<?xml version="1.0" encoding="UTF-8" standalone="no"?>
<!-- Generator: Adobe Illustrator 16.0.0, SVG Export Plug-In . SVG Version: 6.00 Build 0)  -->

<svg
   xmlns:dc="http://purl.org/dc/elements/1.1/"
   xmlns:cc="http://creativecommons.org/ns#"
   xmlns:rdf="http://www.w3.org/1999/02/22-rdf-syntax-ns#"
   xmlns:svg="http://www.w3.org/2000/svg"
   xmlns="http://www.w3.org/2000/svg"
   xmlns:sodipodi="http://sodipodi.sourceforge.net/DTD/sodipodi-0.dtd"
   xmlns:inkscape="http://www.inkscape.org/namespaces/inkscape"
   version="1.1"
   x="0px"
   y="0px"
   width="65.864998"
   height="10.079"
   viewBox="0 0 65.864997 10.079001"
   enable-background="new 0 0 91.026 30.223"
   xml:space="preserve"
   id="svg28"
   sodipodi:docname="samsung-logo.svg"
   inkscape:version="0.92.4 (5da689c313, 2019-01-14)"><metadata
   id="metadata34"><rdf:RDF><cc:Work
       rdf:about=""><dc:format>image/svg+xml</dc:format><dc:type
         rdf:resource="http://purl.org/dc/dcmitype/StillImage" /></cc:Work></rdf:RDF></metadata><defs
   id="defs32" /><sodipodi:namedview
   pagecolor="#ffffff"
   bordercolor="#666666"
   borderopacity="1"
   objecttolerance="10"
   gridtolerance="10"
   guidetolerance="10"
   inkscape:pageopacity="0"
   inkscape:pageshadow="2"
   inkscape:window-width="3240"
   inkscape:window-height="2035"
   id="namedview30"
   showgrid="false"
   inkscape:zoom="24.740184"
   inkscape:cx="35.606756"
   inkscape:cy="17.838226"
   inkscape:window-x="-13"
   inkscape:window-y="-13"
   inkscape:window-maximized="1"
   inkscape:current-layer="g20" />
<g
   id="g26"
   transform="translate(-12.824,-10.057)">
	<g
   id="g24">
		
		<g
   id="g22">
			<g
   id="g20">
				<polygon
   points="69.541,10.356 69.541,19.669 66.191,19.669 63.866,12.026 63.816,12.026 63.945,19.669 61.63,19.669 61.63,10.356 65.125,10.356 67.288,17.745 67.34,17.745 67.211,10.356 "
   id="polygon6"
   style="fill:#ffffff;fill-opacity:1" />
				<polygon
   points="21.157,19.767 22.902,10.356 27.088,10.356 28.825,19.767 26.294,19.767 25.04,11.228 24.987,11.228 23.698,19.767 "
   id="polygon8"
   style="fill:#ffffff;fill-opacity:1" />
				<polygon
   points="40.963,10.356 41.167,19.767 38.815,19.767 38.753,11.306 38.704,11.306 37.131,19.767 34.743,19.767 33.169,11.306 33.118,11.306 33.059,19.767 30.702,19.767 30.91,10.356 34.75,10.356 35.912,17.55 35.962,17.55 37.125,10.356 "
   id="polygon10"
   style="fill:#ffffff;fill-opacity:1" />
				<path
   d="m 17.194,17.112 c 0.092,0.228 0.064,0.521 0.021,0.698 -0.079,0.313 -0.291,0.632 -0.917,0.632 -0.59,0 -0.948,-0.338 -0.948,-0.855 v -0.911 h -2.524 l -0.002,0.729 c 0,2.098 1.652,2.731 3.422,2.731 1.702,0 3.104,-0.582 3.327,-2.15 0.114,-0.813 0.029,-1.345 -0.01,-1.546 -0.397,-1.97 -3.969,-2.558 -4.235,-3.66 -0.045,-0.189 -0.032,-0.389 -0.01,-0.496 0.065,-0.3 0.271,-0.631 0.86,-0.631 0.55,0 0.875,0.34 0.875,0.854 0,0.173 0,0.581 0,0.581 H 19.4 v -0.661 c 0,-2.05 -1.84,-2.37 -3.173,-2.37 -1.674,0 -3.042,0.553 -3.292,2.085 -0.068,0.423 -0.078,0.8 0.021,1.272 0.411,1.923 3.754,2.48 4.238,3.698 z"
   id="path12"
   style="fill:#ffffff;fill-opacity:1"
   inkscape:connector-curvature="0" />
				<path
   d="m 47.796,17.095 c 0.093,0.226 0.063,0.511 0.021,0.688 -0.077,0.312 -0.287,0.626 -0.909,0.626 -0.582,0 -0.937,-0.338 -0.937,-0.843 l -0.002,-0.903 h -2.498 l -0.003,0.719 c 0,2.077 1.637,2.704 3.389,2.704 1.684,0 3.073,-0.574 3.292,-2.128 0.114,-0.807 0.033,-1.332 -0.008,-1.529 -0.395,-1.952 -3.931,-2.534 -4.194,-3.625 -0.045,-0.188 -0.032,-0.386 -0.009,-0.487 0.067,-0.302 0.269,-0.625 0.852,-0.625 0.545,0 0.863,0.332 0.863,0.842 0,0.171 0,0.575 0,0.575 h 2.329 v -0.654 c 0,-2.028 -1.825,-2.346 -3.145,-2.346 -1.655,0 -3.012,0.546 -3.257,2.067 -0.068,0.417 -0.075,0.787 0.022,1.257 0.405,1.903 3.715,2.456 4.194,3.662 z"
   id="path14"
   style="fill:#ffffff;fill-opacity:1"
   inkscape:connector-curvature="0" />
				<path
   d="m 55.701,18.359 c 0.653,0 0.857,-0.452 0.902,-0.683 0.019,-0.102 0.024,-0.238 0.022,-0.36 v -6.964 h 2.38 v 6.751 c 0.005,0.173 -0.012,0.529 -0.02,0.618 -0.167,1.757 -1.556,2.327 -3.285,2.327 -1.731,0 -3.121,-0.57 -3.286,-2.327 -0.008,-0.089 -0.025,-0.445 -0.02,-0.618 v -6.751 h 2.378 v 6.964 c 0,0.122 0.004,0.259 0.022,0.36 0.051,0.231 0.249,0.683 0.907,0.683 z"
   id="path16"
   style="fill:#ffffff;fill-opacity:1"
   inkscape:connector-curvature="0" />
				<path
   d="m 75.333,18.26 c 0.682,0 0.92,-0.431 0.964,-0.682 0.017,-0.108 0.022,-0.239 0.021,-0.358 V 15.854 H 75.352 V 14.48 h 3.337 v 2.526 c -0.002,0.176 -0.006,0.306 -0.034,0.62 -0.157,1.712 -1.642,2.323 -3.31,2.323 -1.671,0 -3.154,-0.611 -3.313,-2.323 -0.027,-0.314 -0.031,-0.444 -0.034,-0.62 L 72,13.043 c 0,-0.167 0.021,-0.463 0.039,-0.62 0.209,-1.759 1.635,-2.325 3.306,-2.325 1.669,0 3.13,0.563 3.303,2.325 0.031,0.3 0.021,0.62 0.021,0.62 v 0.314 H 76.296 V 12.83 c 0.002,10e-4 -0.003,-0.224 -0.031,-0.358 -0.04,-0.208 -0.221,-0.686 -0.938,-0.686 -0.686,0 -0.887,0.452 -0.937,0.686 -0.029,0.124 -0.04,0.292 -0.04,0.444 v 4.304 c -0.002,0.119 0.005,0.25 0.024,0.358 0.041,0.252 0.278,0.682 0.959,0.682 z"
   id="path18"
   style="fill:#ffffff;fill-opacity:1"
   inkscape:connector-curvature="0" />
			</g>
		</g>
	</g>
</g>
</svg>