<svg xmlns="http://www.w3.org/2000/svg" xmlns:xlink="http://www.w3.org/1999/xlink" version="1.1" width="434.55854" height="266.7385" viewBox="0 0 434.55854 266.7385">
<g>
<path stroke-width="1.885039" stroke-linecap="butt" stroke-miterlimit="4" stroke-linejoin="miter" fill="none" stroke="#5f5f61" d="M10.484 130.828H70.227"/>
<path transform="matrix(-1,-.0000000474466,.0000000474466,-1,0,0)" d="M-60.367-126.266-72.723-130.809-60.367-135.355C-62.34-132.672-62.328-129-60.367-126.266ZM-60.367-126.266" fill="#5f5f61" fill-rule="evenodd"/>
<path transform="matrix(-1,-.0000000474466,.0000000474466,-1,0,0)" stroke-width=".70689" stroke-linecap="butt" stroke-linejoin="round" fill="none" stroke="#5f5f61" d="M-60.367-126.266-72.723-130.809-60.367-135.355C-62.34-132.672-62.328-129-60.367-126.266ZM-60.367-126.266"/>
<path stroke-width="1.885039" stroke-linecap="butt" stroke-miterlimit="4" stroke-linejoin="miter" fill="none" stroke="#5f5f61" d="M80.941 130.828H139.301"/>
<path transform="matrix(-1,0,0,-1,0,0)" d="M-129.438-126.266-141.797-130.809-129.438-135.355C-131.414-132.672-131.402-129-129.438-126.266ZM-129.438-126.266" fill="#5f5f61" fill-rule="evenodd"/>
<path transform="matrix(-1,0,0,-1,0,0)" stroke-width=".70689" stroke-linecap="butt" stroke-linejoin="round" fill="none" stroke="#5f5f61" d="M-129.438-126.266-141.797-130.809-129.438-135.355C-131.414-132.672-131.402-129-129.438-126.266ZM-129.438-126.266"/>
<path stroke-width="1.885039" stroke-linecap="butt" stroke-miterlimit="4" stroke-linejoin="miter" fill="none" stroke="#5f5f61" d="M152.156 130.828H256.359"/>
<path transform="matrix(-1,-.0000000272033,.0000000272033,-1,0,0)" d="M-246.496-126.266-258.855-130.809-246.496-135.355C-248.473-132.672-248.461-129-246.496-126.266ZM-246.496-126.266" fill="#5f5f61" fill-rule="evenodd"/>
<path transform="matrix(-1,-.0000000272033,.0000000272033,-1,0,0)" stroke-width=".70689" stroke-linecap="butt" stroke-linejoin="round" fill="none" stroke="#5f5f61" d="M-246.496-126.266-258.855-130.809-246.496-135.355C-248.473-132.672-248.461-129-246.496-126.266ZM-246.496-126.266"/>
<path stroke-width="1.885039" stroke-linecap="butt" stroke-miterlimit="4" stroke-linejoin="miter" fill="none" stroke="#5f5f61" d="M266.113 130.828H327.152"/>
<path transform="matrix(-1,-.0000000464413,.0000000464413,-1,0,0)" d="M-317.293-126.266-329.648-130.809-317.293-135.355C-319.266-132.672-319.254-129-317.293-126.266ZM-317.293-126.266" fill="#5f5f61" fill-rule="evenodd"/>
<path transform="matrix(-1,-.0000000464413,.0000000464413,-1,0,0)" stroke-width=".70689" stroke-linecap="butt" stroke-linejoin="round" fill="none" stroke="#5f5f61" d="M-317.293-126.266-329.648-130.809-317.293-135.355C-319.266-132.672-319.254-129-317.293-126.266ZM-317.293-126.266"/>
<path stroke-width="1.885039" stroke-linecap="butt" stroke-miterlimit="4" stroke-linejoin="miter" fill="none" stroke="#5f5f61" d="M266.113 130.828 330.633 66.309"/>
<path transform="matrix(-1,1,-1,-1,0,0)" d="M-125.189-195.244-133.928-198.459-125.191-201.672C-126.586-199.773-126.578-197.18-125.189-195.244ZM-125.189-195.244" fill="#5f5f61" fill-rule="evenodd"/>
<path transform="matrix(-1,1,-1,-1,0,0)" stroke-width=".499847" stroke-linecap="butt" stroke-linejoin="round" fill="none" stroke="#5f5f61" d="M-125.189-195.244-133.928-198.459-125.191-201.672C-126.586-199.773-126.578-197.18-125.189-195.244ZM-125.189-195.244"/>
<path stroke-width="1.885039" stroke-linecap="butt" stroke-miterlimit="4" stroke-linejoin="miter" fill="none" stroke="#5f5f61" d="M152.156 130.828 258.078 195.125"/>
<path transform="matrix(-1,-.607036,.607036,-1,0,0)" d="M-266.71-24.207-277.272-28.092-266.708-31.977C-268.397-29.683-268.387-26.544-266.71-24.207ZM-266.71-24.207" fill="#5f5f61" fill-rule="evenodd"/>
<path transform="matrix(-1,-.607036,.607036,-1,0,0)" stroke-width=".604269" stroke-linecap="butt" stroke-linejoin="round" fill="none" stroke="#5f5f61" d="M-266.71-24.207-277.272-28.092-266.708-31.977C-268.397-29.683-268.387-26.544-266.71-24.207ZM-266.71-24.207"/>
<path stroke-width="1.885039" stroke-linecap="butt" stroke-miterlimit="4" stroke-linejoin="miter" fill="none" stroke="#5f5f61" d="M266.113 201.285H329.027"/>
<path transform="matrix(-1,-.0000000450572,.0000000450572,-1,0,0)" d="M-319.168-196.723-331.523-201.27-319.168-205.812C-321.141-203.129-321.129-199.457-319.168-196.723ZM-319.168-196.723" fill="#5f5f61" fill-rule="evenodd"/>
<path transform="matrix(-1,-.0000000450572,.0000000450572,-1,0,0)" stroke-width=".70689" stroke-linecap="butt" stroke-linejoin="round" fill="none" stroke="#5f5f61" d="M-319.168-196.723-331.523-201.27-319.168-205.812C-321.141-203.129-321.129-199.457-319.168-196.723ZM-319.168-196.723"/>
<path stroke-width="1.885039" stroke-linecap="butt" stroke-miterlimit="4" stroke-linejoin="miter" fill="none" stroke="#5f5f61" d="M337.332 59.613H379.758"/>
<path transform="matrix(-1,0,0,-1,0,0)" d="M-369.895-55.051-382.254-59.594-369.895-64.137C-371.871-61.457-371.859-57.785-369.895-55.051ZM-369.895-55.051" fill="#5f5f61" fill-rule="evenodd"/>
<path transform="matrix(-1,0,0,-1,0,0)" stroke-width=".70689" stroke-linecap="butt" stroke-linejoin="round" fill="none" stroke="#5f5f61" d="M-369.895-55.051-382.254-59.594-369.895-64.137C-371.871-61.457-371.859-57.785-369.895-55.051ZM-369.895-55.051"/>
<path stroke-width="1.885039" stroke-linecap="butt" stroke-miterlimit="4" stroke-linejoin="miter" fill="none" stroke="#5f5f61" d="M337.332 130.828H379.758"/>
<path transform="matrix(-1,0,0,-1,0,0)" d="M-369.895-126.266-382.254-130.809-369.895-135.355C-371.871-132.672-371.859-129-369.895-126.266ZM-369.895-126.266" fill="#5f5f61" fill-rule="evenodd"/>
<path transform="matrix(-1,0,0,-1,0,0)" stroke-width=".70689" stroke-linecap="butt" stroke-linejoin="round" fill="none" stroke="#5f5f61" d="M-369.895-126.266-382.254-130.809-369.895-135.355C-371.871-132.672-371.859-129-369.895-126.266ZM-369.895-126.266"/>
<path stroke-width="1.885039" stroke-linecap="butt" stroke-miterlimit="4" stroke-linejoin="miter" fill="none" stroke="#5f5f61" d="M337.332 201.285H379.758"/>
<path transform="matrix(-1,0,0,-1,0,0)" d="M-369.895-196.723-382.254-201.27-369.895-205.812C-371.871-203.129-371.859-199.457-369.895-196.723ZM-369.895-196.723" fill="#5f5f61" fill-rule="evenodd"/>
<path transform="matrix(-1,0,0,-1,0,0)" stroke-width=".70689" stroke-linecap="butt" stroke-linejoin="round" fill="none" stroke="#5f5f61" d="M-369.895-196.723-382.254-201.27-369.895-205.812C-371.871-203.129-371.859-199.457-369.895-196.723ZM-369.895-196.723"/>
<path d="M21.109 130.602C21.109 136.434 16.383 141.156 10.555 141.156 4.727 141.156 0 136.434 0 130.602 0 124.773 4.727 120.051 10.555 120.051 16.383 120.051 21.109 124.773 21.109 130.602ZM21.109 130.602" fill="#abaeb0"/>
<path d="M91.863 130.066C91.863 135.898 87.137 140.621 81.309 140.621 75.477 140.621 70.754 135.898 70.754 130.066 70.754 124.238 75.477 119.512 81.309 119.512 87.137 119.512 91.863 124.238 91.863 130.066ZM91.863 130.066" fill="#abaeb0"/>
<path d="M166.344 130.23C166.344 137.836 160.176 144.004 152.566 144.004 144.961 144.004 138.793 137.836 138.793 130.23 138.793 122.621 144.961 116.457 152.566 116.457 160.176 116.457 166.344 122.621 166.344 130.23ZM166.344 130.23" fill="#d43f3d"/>
<path d="M276.953 200.59C276.953 206.422 272.23 211.145 266.398 211.145 260.57 211.145 255.844 206.422 255.844 200.59 255.844 194.762 260.57 190.035 266.398 190.035 272.23 190.035 276.953 194.762 276.953 200.59ZM276.953 200.59" fill="#abaeb0"/>
<path d="M277.164 130.105C277.164 135.934 272.438 140.66 266.609 140.66 260.781 140.66 256.055 135.934 256.055 130.105 256.055 124.277 260.781 119.551 266.609 119.551 272.438 119.551 277.164 124.277 277.164 130.105ZM277.164 130.105" fill="#abaeb0"/>
<path d="M348.25 130.383C348.25 136.215 343.523 140.938 337.695 140.938 331.867 140.938 327.141 136.215 327.141 130.383 327.141 124.555 331.867 119.828 337.695 119.828 343.523 119.828 348.25 124.555 348.25 130.383ZM348.25 130.383" fill="#abaeb0"/>
<path d="M348.156 59.5C348.156 65.328 343.434 70.055 337.602 70.055 331.773 70.055 327.047 65.328 327.047 59.5 327.047 53.672 331.773 48.945 337.602 48.945 343.434 48.945 348.156 53.672 348.156 59.5ZM348.156 59.5" fill="#abaeb0"/>
<path d="M348.25 200.844C348.25 206.672 343.523 211.398 337.695 211.398 331.867 211.398 327.141 206.672 327.141 200.844 327.141 195.012 331.867 190.289 337.695 190.289 343.523 190.289 348.25 195.012 348.25 200.844ZM348.25 200.844" fill="#abaeb0"/>
<path stroke-width="3.302362" stroke-linecap="butt" stroke-miterlimit="4" stroke-linejoin="miter" fill="none" stroke="#b38200" d="M396.852 219.129C396.852 219.129 206.184 300.023 152.156 155.379"/>
<path transform="matrix(.373526,1,-1,.373526,0,0)" d="M192.187-78.85 182.048-82.578 192.187-86.307C190.568-84.107 190.577-81.096 192.187-78.85ZM192.187-78.85" fill="#b38200" fill-rule="evenodd"/>
<path transform="matrix(.373526,1,-1,.373526,0,0)" stroke-width=".580049" stroke-linecap="butt" stroke-linejoin="round" fill="none" stroke="#b38200" d="M192.187-78.85 182.048-82.578 192.187-86.307C190.568-84.107 190.577-81.096 192.187-78.85ZM192.187-78.85"/>
<path stroke-width="3.302362" stroke-linecap="butt" stroke-miterlimit="4" stroke-linejoin="miter" fill="none" stroke="#b38200" d="M388.723 38.059C388.723 38.059 234.199 4.844 170.449 76.629"/>
<path transform="matrix(.88806,-1,1,.88806,0,0)" d="M46.539 136.331 38.446 133.354 46.54 130.377C45.246 132.135 45.255 134.538 46.539 136.331ZM46.539 136.331" fill="#b38200" fill-rule="evenodd"/>
<path transform="matrix(.88806,-1,1,.88806,0,0)" stroke-width=".462981" stroke-linecap="butt" stroke-linejoin="round" fill="none" stroke="#b38200" d="M46.539 136.331 38.446 133.354 46.54 130.377C45.246 132.135 45.255 134.538 46.539 136.331ZM46.539 136.331"/>
<path stroke-width="3.302362" stroke-linecap="butt" stroke-miterlimit="4" stroke-linejoin="miter" fill="none" stroke="#b38200" d="M393.844 113.594C393.844 113.594 258.371 82.473 181.23 103.367"/>
<path transform="matrix(1,-.270833,.270833,1,0,0)" d="M148.898 145.889 138.451 142.048 148.901 138.206C147.233 140.473 147.24 143.577 148.898 145.889ZM148.898 145.889" fill="#b38200" fill-rule="evenodd"/>
<path transform="matrix(1,-.270833,.270833,1,0,0)" stroke-width=".597661" stroke-linecap="butt" stroke-linejoin="round" fill="none" stroke="#b38200" d="M148.898 145.889 138.451 142.048 148.901 138.206C147.233 140.473 147.24 143.577 148.898 145.889ZM148.898 145.889"/>
<path d="M395.516 47.965 393.164 50.344 393.465 50.645 395.516 48.867 397.512 50.645 397.812 50.344ZM395.516 47.965"/>
<path d="M390.211 62.863C391.141 61.387 391.441 60.27 391.66 59.34 392.289 56.934 392.945 54.855 394.039 53.652 394.23 53.434 394.367 53.27 394.941 53.27 396.141 53.27 396.168 54.473 396.168 54.719 396.168 55.02 396.086 55.266 396.086 55.348 396.086 55.484 396.195 55.484 396.195 55.484 396.496 55.484 396.961 55.293 397.398 54.965 397.699 54.719 397.863 54.555 397.863 53.844 397.863 52.887 397.371 52.176 396.387 52.176 395.84 52.176 394.312 52.312 392.59 54.035 391.195 55.484 390.375 58.629 390.047 59.914 389.746 61.145 389.609 61.66 389.062 62.727 388.953 62.918 388.488 63.684 388.242 63.93 387.777 64.367 387.613 64.668 387.613 64.75 387.613 64.777 387.641 64.859 387.777 64.859 387.832 64.859 388.188 64.777 388.652 64.504 388.953 64.312 388.98 64.285 389.391 63.875 390.266 63.875 390.867 64.039 391.961 64.367 392.863 64.586 393.738 64.859 394.641 64.859 396.059 64.859 397.48 63.793 398.027 63.027 398.383 62.562 398.492 62.125 398.492 62.07 398.492 61.934 398.383 61.934 398.355 61.934 398.082 61.934 397.672 62.152 397.371 62.344 396.906 62.645 396.879 62.754 396.77 63.055 396.688 63.328 396.578 63.465 396.496 63.574 396.359 63.766 396.332 63.766 396.086 63.766 395.242 63.766 394.367 63.52 393.219 63.191 392.727 63.055 391.77 62.781 390.895 62.781 390.676 62.781 390.43 62.809 390.211 62.863ZM390.211 62.863"/>
<path d="M402.094 53.344H403.324C403.57 53.344 403.707 53.344 403.707 53.07 403.707 52.906 403.57 52.906 403.352 52.906H402.203L402.641 51.102C402.668 51.047 402.695 50.965 402.695 50.938 402.695 50.691 402.504 50.527 402.258 50.527 401.957 50.527 401.793 50.746 401.684 51.047 401.602 51.375 401.766 50.773 401.223 52.906H399.992C399.773 52.906 399.609 52.906 399.609 53.18 399.609 53.344 399.746 53.344 399.965 53.344H401.113L400.402 56.215C400.32 56.512 400.211 56.949 400.211 57.113 400.211 57.824 400.84 58.262 401.52 58.262 402.887 58.262 403.652 56.566 403.652 56.406 403.652 56.242 403.488 56.242 403.461 56.242 403.297 56.242 403.297 56.27 403.188 56.484 402.859 57.25 402.23 57.934 401.574 57.934 401.305 57.934 401.141 57.77 401.141 57.332 401.141 57.223 401.195 56.949 401.223 56.84ZM402.094 53.344"/>
<path d="M407.824 54.348C407.824 54.102 407.797 54.102 407.496 54.102 406.895 54.648 405.91 54.648 405.746 54.648H405.609V55.031H405.746C405.938 55.031 406.512 55.004 407.031 54.785V59.156C407.031 59.402 407.031 59.512 406.102 59.512H405.664V59.895C406.129 59.867 406.922 59.867 407.414 59.867 407.934 59.867 408.699 59.867 409.191 59.895V59.512H408.754C407.824 59.512 407.824 59.402 407.824 59.156ZM407.824 54.348"/>
<path d="M417.793 68.66C417.793 68.605 417.793 68.578 417.492 68.277 415.332 66.09 414.758 62.781 414.758 60.105 414.758 57.07 415.414 54.035 417.574 51.879 417.793 51.66 417.793 51.633 417.793 51.578 417.793 51.441 417.738 51.387 417.629 51.387 417.438 51.387 415.879 52.586 414.84 54.801 413.969 56.715 413.75 58.656 413.75 60.105 413.75 61.469 413.941 63.574 414.895 65.57 415.961 67.703 417.438 68.852 417.629 68.852 417.738 68.852 417.793 68.797 417.793 68.66ZM417.793 68.66"/>
<path d="M428.344 55.922C428.344 52.859 426.539 52.23 425.473 52.23 424.078 52.23 422.355 53.133 421.043 55.512 420.141 57.152 419.594 59.531 419.594 60.926 419.594 63.465 420.934 64.613 422.492 64.613 423.668 64.613 425.199 63.93 426.402 62.152 427.879 60.023 428.344 57.234 428.344 55.922ZM422.246 58C422.492 56.988 422.957 55.402 423.477 54.5 423.887 53.789 424.598 52.859 425.418 52.859 426.156 52.859 426.484 53.625 426.484 54.664 426.484 55.758 426.102 57.289 425.91 58ZM425.691 58.848C424.598 63.52 423.148 63.984 422.547 63.984 422.301 63.984 421.918 63.93 421.672 63.383 421.48 62.918 421.48 62.234 421.48 62.207 421.48 61.223 421.863 59.586 422.055 58.848ZM425.691 58.848"/>
<path d="M434.18 60.105C434.18 58.766 433.988 56.66 433.031 54.664 431.992 52.531 430.488 51.387 430.324 51.387 430.215 51.387 430.133 51.469 430.133 51.578 430.133 51.633 430.133 51.66 430.461 51.988 432.184 53.707 433.168 56.469 433.168 60.105 433.168 63.109 432.539 66.172 430.379 68.359 430.133 68.578 430.133 68.605 430.133 68.66 430.133 68.77 430.215 68.852 430.324 68.852 430.488 68.852 432.074 67.648 433.086 65.434 433.988 63.52 434.18 61.578 434.18 60.105ZM434.18 60.105"/>
<path d="M395.461 119.07 393.109 121.449 393.41 121.75 395.461 119.973 397.457 121.75 397.758 121.449ZM395.461 119.07"/>
<path d="M390.156 133.973C391.086 132.496 391.387 131.375 391.605 130.445 392.234 128.039 392.891 125.961 393.984 124.762 394.176 124.543 394.312 124.379 394.887 124.379 396.086 124.379 396.113 125.578 396.113 125.824 396.113 126.125 396.031 126.371 396.031 126.453 396.031 126.59 396.141 126.59 396.141 126.59 396.441 126.59 396.906 126.398 397.344 126.07 397.645 125.824 397.809 125.66 397.809 124.953 397.809 123.996 397.316 123.285 396.332 123.285 395.785 123.285 394.258 123.422 392.535 125.145 391.141 126.59 390.32 129.734 389.992 131.02 389.691 132.25 389.555 132.77 389.008 133.836 388.898 134.027 388.434 134.789 388.188 135.035 387.723 135.473 387.559 135.773 387.559 135.855 387.559 135.883 387.586 135.965 387.723 135.965 387.777 135.965 388.133 135.883 388.598 135.609 388.898 135.418 388.926 135.391 389.336 134.98 390.211 134.98 390.812 135.145 391.906 135.473 392.809 135.691 393.684 135.965 394.586 135.965 396.004 135.965 397.426 134.898 397.973 134.137 398.328 133.672 398.438 133.234 398.438 133.18 398.438 133.043 398.328 133.043 398.301 133.043 398.027 133.043 397.617 133.262 397.316 133.453 396.852 133.754 396.824 133.863 396.715 134.164 396.633 134.438 396.523 134.57 396.441 134.68 396.305 134.871 396.277 134.871 396.031 134.871 395.188 134.871 394.312 134.625 393.164 134.301 392.672 134.164 391.715 133.891 390.84 133.891 390.621 133.891 390.375 133.918 390.156 133.973ZM390.156 133.973"/>
<path d="M402.039 124.449H403.27C403.516 124.449 403.652 124.449 403.652 124.176 403.652 124.012 403.516 124.012 403.297 124.012H402.148L402.586 122.207C402.613 122.152 402.641 122.07 402.641 122.043 402.641 121.797 402.449 121.633 402.203 121.633 401.902 121.633 401.738 121.852 401.629 122.152 401.547 122.48 401.711 121.879 401.168 124.012H399.938C399.719 124.012 399.555 124.012 399.555 124.285 399.555 124.449 399.691 124.449 399.91 124.449H401.059L400.348 127.32C400.266 127.621 400.156 128.059 400.156 128.223 400.156 128.934 400.785 129.371 401.469 129.371 402.832 129.371 403.598 127.676 403.598 127.512 403.598 127.348 403.434 127.348 403.406 127.348 403.242 127.348 403.242 127.375 403.133 127.594 402.805 128.359 402.176 129.043 401.52 129.043 401.25 129.043 401.086 128.879 401.086 128.441 401.086 128.332 401.141 128.059 401.168 127.949ZM402.039 124.449"/>
<path d="M409.438 129.309H409.055C409.055 129.473 408.945 130.02 408.809 130.102 408.754 130.156 408.016 130.156 407.879 130.156H406.184C406.758 129.746 407.387 129.254 407.906 128.898 408.699 128.352 409.438 127.859 409.438 126.93 409.438 125.809 408.371 125.207 407.141 125.207 405.965 125.207 405.09 125.863 405.09 126.738 405.09 127.176 405.473 127.258 405.609 127.258 405.828 127.258 406.102 127.094 406.102 126.738 406.102 126.438 405.883 126.246 405.609 126.246 405.855 125.836 406.375 125.59 406.949 125.59 407.797 125.59 408.508 126.082 408.508 126.93 408.508 127.668 407.988 128.242 407.332 128.789L405.199 130.594C405.117 130.676 405.09 130.676 405.09 130.73V131.004H409.137ZM409.438 129.309"/>
<path d="M417.738 139.766C417.738 139.711 417.738 139.684 417.438 139.383 415.277 137.195 414.703 133.891 414.703 131.211 414.703 128.176 415.359 125.145 417.52 122.984 417.738 122.766 417.738 122.738 417.738 122.684 417.738 122.547 417.684 122.492 417.574 122.492 417.383 122.492 415.824 123.695 414.785 125.906 413.914 127.82 413.695 129.762 413.695 131.211 413.695 132.578 413.887 134.68 414.84 136.676 415.906 138.809 417.383 139.957 417.574 139.957 417.684 139.957 417.738 139.902 417.738 139.766ZM417.738 139.766"/>
<path d="M428.289 127.027C428.289 123.969 426.484 123.34 425.418 123.34 424.023 123.34 422.301 124.242 420.988 126.617 420.086 128.258 419.539 130.637 419.539 132.031 419.539 134.57 420.879 135.719 422.438 135.719 423.613 135.719 425.145 135.035 426.348 133.262 427.824 131.129 428.289 128.34 428.289 127.027ZM422.191 129.105C422.438 128.094 422.902 126.508 423.422 125.605 423.832 124.898 424.543 123.969 425.363 123.969 426.102 123.969 426.43 124.734 426.43 125.77 426.43 126.863 426.047 128.395 425.855 129.105ZM425.637 129.953C424.543 134.625 423.094 135.09 422.492 135.09 422.246 135.09 421.863 135.035 421.617 134.492 421.426 134.027 421.426 133.344 421.426 133.316 421.426 132.332 421.809 130.691 422 129.953ZM425.637 129.953"/>
<path d="M434.125 131.211C434.125 129.871 433.934 127.766 432.977 125.77 431.938 123.641 430.434 122.492 430.27 122.492 430.16 122.492 430.078 122.574 430.078 122.684 430.078 122.738 430.078 122.766 430.406 123.094 432.129 124.816 433.113 127.574 433.113 131.211 433.113 134.219 432.484 137.277 430.324 139.465 430.078 139.684 430.078 139.711 430.078 139.766 430.078 139.875 430.16 139.957 430.27 139.957 430.434 139.957 432.02 138.754 433.031 136.539 433.934 134.625 434.125 132.688 434.125 131.211ZM434.125 131.211"/>
<path d="M395.078 190.676 392.727 193.055 393.027 193.355 395.078 191.578 397.074 193.355 397.375 193.055ZM395.078 190.676"/>
<path d="M389.773 205.578C390.703 204.102 391.004 202.98 391.223 202.051 391.852 199.645 392.508 197.57 393.602 196.367 393.793 196.148 393.93 195.984 394.504 195.984 395.703 195.984 395.73 197.188 395.73 197.434 395.73 197.734 395.648 197.98 395.648 198.062 395.648 198.199 395.758 198.199 395.758 198.199 396.059 198.199 396.523 198.008 396.961 197.68 397.262 197.434 397.426 197.27 397.426 196.559 397.426 195.602 396.934 194.891 395.949 194.891 395.406 194.891 393.875 195.027 392.152 196.75 390.758 198.199 389.938 201.34 389.609 202.625 389.309 203.855 389.172 204.375 388.625 205.441 388.516 205.633 388.051 206.398 387.805 206.645 387.34 207.082 387.176 207.383 387.176 207.465 387.176 207.492 387.203 207.57 387.34 207.57 387.395 207.57 387.75 207.492 388.215 207.219 388.516 207.027 388.543 207 388.953 206.59 389.828 206.59 390.43 206.754 391.523 207.082 392.426 207.301 393.301 207.57 394.203 207.57 395.621 207.57 397.043 206.508 397.59 205.742 397.945 205.277 398.055 204.84 398.055 204.785 398.055 204.648 397.945 204.648 397.918 204.648 397.645 204.648 397.234 204.867 396.934 205.059 396.469 205.359 396.441 205.469 396.332 205.77 396.25 206.043 396.141 206.18 396.059 206.289 395.922 206.48 395.895 206.48 395.648 206.48 394.805 206.48 393.93 206.234 392.781 205.906 392.289 205.77 391.332 205.496 390.457 205.496 390.238 205.496 389.992 205.523 389.773 205.578ZM389.773 205.578"/>
<path d="M401.656 196.055H402.887C403.133 196.055 403.27 196.055 403.27 195.781 403.27 195.617 403.133 195.617 402.914 195.617H401.766L402.203 193.812C402.23 193.758 402.258 193.676 402.258 193.648 402.258 193.406 402.066 193.242 401.82 193.242 401.52 193.242 401.359 193.461 401.25 193.758 401.168 194.086 401.332 193.488 400.785 195.617H399.555C399.336 195.617 399.172 195.617 399.172 195.891 399.172 196.055 399.309 196.055 399.527 196.055H400.676L399.965 198.926C399.883 199.227 399.773 199.664 399.773 199.828 399.773 200.539 400.402 200.977 401.086 200.977 402.449 200.977 403.215 199.281 403.215 199.117 403.215 198.953 403.051 198.953 403.023 198.953 402.859 198.953 402.859 198.98 402.75 199.199 402.422 199.965 401.793 200.648 401.141 200.648 400.867 200.648 400.703 200.484 400.703 200.047 400.703 199.938 400.758 199.664 400.785 199.555ZM401.656 196.055"/>
<path d="M407.113 197.004C407.168 196.867 407.168 196.867 407.168 196.812 407.168 196.676 407.031 196.676 406.895 196.676L405.828 196.758C405.664 196.758 405.637 196.758 405.609 196.812 405.582 196.84 405.555 196.949 405.555 197.004 405.555 197.141 405.691 197.141 405.801 197.141 405.828 197.141 405.965 197.141 406.102 197.168 406.266 197.195 406.266 197.223 406.266 197.277 406.266 197.305 406.266 197.332 406.238 197.496L405.035 202.305C405.008 202.414 405.008 202.441 405.008 202.496 405.008 202.688 405.145 202.824 405.336 202.824 405.664 202.824 405.746 202.496 405.773 202.359L406.184 200.773C406.402 200.773 407.496 200.828 407.496 201.457 407.496 201.512 407.496 201.539 407.469 201.648 407.441 201.785 407.441 201.812 407.441 201.867 407.441 202.496 407.988 202.824 408.508 202.824 409.383 202.824 409.738 201.566 409.738 201.457 409.738 201.348 409.602 201.348 409.547 201.348 409.41 201.348 409.383 201.375 409.355 201.539 409.273 201.84 409 202.523 408.535 202.523 408.207 202.523 408.18 202.195 408.18 202.004 408.18 202.004 408.18 201.867 408.207 201.73 408.234 201.594 408.262 201.484 408.262 201.43 408.262 200.664 407.277 200.527 406.703 200.473 406.949 200.336 407.332 200.035 407.469 199.926 407.961 199.543 408.453 199.16 408.945 199.16 409.137 199.16 409.191 199.215 409.246 199.27 409.246 199.27 409.191 199.297 409.164 199.297 408.781 199.434 408.781 199.789 408.781 199.816 408.781 199.953 408.891 200.172 409.164 200.172 409.328 200.172 409.711 200.035 409.711 199.543 409.711 199.133 409.383 198.859 408.945 198.859 408.371 198.859 407.852 199.27 407.223 199.762 406.922 200.008 406.621 200.227 406.266 200.391ZM407.113 197.004"/>
<path d="M418.172 211.371C418.172 211.316 418.172 211.289 417.871 210.988 415.715 208.801 415.141 205.496 415.141 202.816 415.141 199.781 415.797 196.75 417.953 194.59 418.172 194.371 418.172 194.344 418.172 194.289 418.172 194.152 418.117 194.098 418.008 194.098 417.816 194.098 416.262 195.301 415.223 197.516 414.348 199.426 414.129 201.367 414.129 202.816 414.129 204.184 414.32 206.289 415.277 208.281 416.344 210.414 417.816 211.562 418.008 211.562 418.117 211.562 418.172 211.508 418.172 211.371ZM418.172 211.371"/>
<path d="M428.723 198.633C428.723 195.574 426.918 194.945 425.852 194.945 424.457 194.945 422.734 195.848 421.426 198.227 420.523 199.863 419.977 202.242 419.977 203.637 419.977 206.18 421.316 207.328 422.871 207.328 424.047 207.328 425.578 206.645 426.781 204.867 428.258 202.734 428.723 199.945 428.723 198.633ZM422.625 200.711C422.871 199.699 423.336 198.117 423.855 197.215 424.266 196.504 424.977 195.574 425.797 195.574 426.535 195.574 426.863 196.34 426.863 197.379 426.863 198.469 426.48 200 426.289 200.711ZM426.07 201.559C424.977 206.234 423.527 206.699 422.926 206.699 422.68 206.699 422.297 206.645 422.051 206.098 421.859 205.633 421.859 204.949 421.859 204.922 421.859 203.938 422.242 202.297 422.434 201.559ZM426.07 201.559"/>
<path d="M434.559 202.816C434.559 201.477 434.367 199.371 433.41 197.379 432.371 195.246 430.867 194.098 430.703 194.098 430.594 194.098 430.512 194.18 430.512 194.289 430.512 194.344 430.512 194.371 430.84 194.699 432.562 196.422 433.547 199.18 433.547 202.816 433.547 205.824 432.918 208.883 430.758 211.07 430.512 211.289 430.512 211.316 430.512 211.371 430.512 211.48 430.594 211.562 430.703 211.562 430.867 211.562 432.453 210.359 433.465 208.145 434.367 206.234 434.559 204.293 434.559 202.816ZM434.559 202.816"/>
<path d="M156.25 94.277C156.25 89.547 153.465 88.578 151.82 88.578 149.664 88.578 147.008 89.973 144.98 93.645 143.586 96.176 142.742 99.848 142.742 102 142.742 105.926 144.812 107.699 147.219 107.699 149.031 107.699 151.398 106.645 153.254 103.902 155.535 100.609 156.25 96.305 156.25 94.277ZM146.836 97.484C147.219 95.922 147.934 93.473 148.738 92.082 149.371 90.984 150.469 89.547 151.734 89.547 152.875 89.547 153.379 90.73 153.379 92.336 153.379 94.023 152.789 96.387 152.496 97.484ZM152.156 98.793C150.469 106.012 148.23 106.73 147.301 106.73 146.922 106.73 146.332 106.645 145.949 105.801 145.656 105.082 145.656 104.027 145.656 103.984 145.656 102.465 146.246 99.934 146.543 98.793ZM152.156 98.793" fill="#621809"/>
<path d="M163.621 99.75C163.621 99.457 163.367 99.035 162.859 99.035 162.355 99.035 161.805 99.539 161.805 100.09 161.805 100.383 162.016 100.805 162.566 100.805 163.07 100.805 163.621 100.258 163.621 99.75ZM159.777 109.332C159.695 109.586 159.609 109.797 159.609 110.137 159.609 111.023 160.328 111.699 161.383 111.699 163.238 111.699 164.086 109.121 164.086 108.828 164.086 108.574 163.832 108.574 163.789 108.574 163.535 108.574 163.492 108.699 163.41 108.91 162.988 110.43 162.184 111.191 161.426 111.191 161.047 111.191 160.961 110.938 160.961 110.516 160.961 110.094 161.086 109.754 161.258 109.332 161.469 108.828 161.68 108.32 161.848 107.812 162.016 107.348 162.734 105.66 162.777 105.406 162.859 105.238 162.902 105.027 162.902 104.816 162.902 103.93 162.145 103.211 161.129 103.211 159.23 103.211 158.387 105.789 158.387 106.125 158.387 106.336 158.641 106.336 158.723 106.336 158.977 106.336 158.977 106.25 159.062 106.039 159.523 104.438 160.371 103.762 161.047 103.762 161.34 103.762 161.508 103.887 161.508 104.395 161.508 104.859 161.426 105.113 160.961 106.293ZM159.777 109.332" fill="#621809"/>
<path d="M234.75 12.387C234.75 9.652 233.137 8.805 231.852 8.805 229.445 8.805 227.152 11.293 227.152 13.754 227.152 15.391 228.191 16.703 229.992 16.703 231.086 16.703 232.344 16.293 233.656 15.227 233.875 16.156 234.449 16.703 235.242 16.703 236.172 16.703 236.719 15.746 236.719 15.473 236.719 15.336 236.609 15.281 236.5 15.281 236.391 15.281 236.336 15.336 236.281 15.473 235.953 16.32 235.324 16.32 235.297 16.32 234.75 16.32 234.75 14.953 234.75 14.543 234.75 14.191 234.75 14.137 234.941 13.945 236.582 11.867 236.938 9.844 236.938 9.844 236.938 9.789 236.91 9.652 236.719 9.652 236.555 9.652 236.555 9.707 236.473 10.035 236.145 11.129 235.57 12.441 234.75 13.48ZM233.602 14.789C232.043 16.129 230.703 16.32 230.02 16.32 228.98 16.32 228.438 15.527 228.438 14.406 228.438 13.562 228.898 11.676 229.445 10.801 230.266 9.516 231.223 9.188 231.824 9.188 233.547 9.188 233.547 11.484 233.547 12.824 233.547 13.48 233.547 14.488 233.602 14.789ZM233.602 14.789" fill="#b400b4"/>
<path d="M241.66 11.367C241.66 11.039 241.66 11.039 241.305 11.039 240.512 11.805 239.418 11.805 238.926 11.805V12.238C239.199 12.238 240.02 12.238 240.676 11.914V18.117C240.676 18.527 240.676 18.691 239.473 18.691H239.008V19.129C239.227 19.129 240.73 19.074 241.168 19.074 241.551 19.074 243.082 19.129 243.355 19.129V18.691H242.891C241.66 18.691 241.66 18.527 241.66 18.117ZM241.66 11.367" fill="#b400b4"/>
<path d="M259.02 4.98C259.047 4.926 259.102 4.816 259.102 4.734 259.102 4.625 259.074 4.598 258.691 4.598H246.637C246.254 4.598 246.227 4.625 246.227 4.734 246.227 4.816 246.281 4.926 246.309 4.98L252.188 16.758C252.324 16.977 252.379 17.086 252.652 17.086 252.953 17.086 253.008 16.977 253.141 16.758ZM248.387 5.852H257.953L253.195 15.445ZM248.387 5.852" fill="#8c6200"/>
<path d="M267.281 13.277C267.281 11.148 265.969 10.574 264.984 10.574 264.414 10.574 263.074 10.766 261.898 12.457 261.078 13.66 260.641 15.438 260.641 16.531 260.641 18.391 261.734 19.238 262.965 19.238 263.594 19.238 264.797 18.965 265.914 17.516 266.762 16.367 267.281 14.535 267.281 13.277ZM262.609 14.562C262.855 13.715 263.047 12.949 263.457 12.238 263.758 11.777 264.332 11.121 264.957 11.121 265.367 11.121 265.832 11.449 265.832 12.484 265.832 13.141 265.668 13.77 265.477 14.562ZM265.312 15.246C265.176 15.766 264.902 16.832 264.441 17.57 264.059 18.227 263.484 18.664 262.965 18.664 262.391 18.664 262.09 18.117 262.09 17.324 262.09 16.695 262.309 15.848 262.445 15.246ZM265.312 15.246" fill="#8c6200"/>
<path d="M271.477 15.43C271.477 15.211 271.34 15.047 271.094 15.047 270.848 15.047 270.574 15.293 270.574 15.566 270.574 15.812 270.766 15.949 270.957 15.949 271.23 15.949 271.477 15.703 271.477 15.43ZM271.887 19.613C271.887 19.504 271.75 19.504 271.723 19.504 271.559 19.504 271.559 19.531 271.504 19.695 271.367 20.16 270.957 20.68 270.52 20.68 270.328 20.68 270.273 20.543 270.273 20.352 270.273 20.16 270.301 20.051 270.383 19.887 270.438 19.723 270.52 19.559 270.574 19.422 270.602 19.34 270.93 18.547 271.066 18.219 271.121 18.055 271.176 17.918 271.176 17.781 271.176 17.371 270.766 17.016 270.219 17.016 269.316 17.016 268.824 18.137 268.824 18.355 268.824 18.492 268.961 18.492 269.016 18.492 269.152 18.492 269.152 18.438 269.207 18.328 269.398 17.699 269.809 17.316 270.191 17.316 270.355 17.316 270.465 17.398 270.465 17.645 270.465 17.672 270.465 17.781 270.41 17.945 270.355 18.109 269.945 19.039 269.836 19.34 269.754 19.504 269.754 19.504 269.645 19.805 269.59 19.941 269.535 20.051 269.535 20.188 269.535 20.652 269.973 20.98 270.492 20.98 271.395 20.98 271.887 19.832 271.887 19.613ZM271.887 19.613" fill="#8c6200"/>
<path d="M282.871 0 280.52 2.379 280.82 2.68 282.871 .902 284.867 2.68 285.168 2.379ZM282.871 0" fill="#8c6200"/>
<path d="M277.566 14.898C278.496 13.426 278.797 12.305 279.016 11.375 279.645 8.969 280.301 6.891 281.395 5.688 281.586 5.469 281.723 5.305 282.297 5.305 283.5 5.305 283.527 6.508 283.527 6.754 283.527 7.055 283.445 7.301 283.445 7.383 283.445 7.52 283.555 7.52 283.555 7.52 283.855 7.52 284.32 7.328 284.754 7 285.055 6.754 285.219 6.59 285.219 5.879 285.219 4.926 284.727 4.215 283.746 4.215 283.199 4.215 281.668 4.352 279.945 6.07 278.551 7.52 277.73 10.664 277.402 11.949 277.102 13.18 276.965 13.699 276.418 14.762 276.309 14.953 275.844 15.719 275.598 15.965 275.137 16.402 274.973 16.703 274.973 16.785 274.973 16.812 275 16.895 275.137 16.895 275.191 16.895 275.543 16.812 276.008 16.539 276.309 16.348 276.336 16.32 276.746 15.91 277.621 15.91 278.223 16.074 279.316 16.402 280.219 16.621 281.094 16.895 281.996 16.895 283.418 16.895 284.836 15.828 285.383 15.062 285.738 14.598 285.848 14.164 285.848 14.109 285.848 13.973 285.738 13.973 285.711 13.973 285.438 13.973 285.027 14.191 284.727 14.379 284.266 14.68 284.238 14.789 284.129 15.09 284.047 15.363 283.938 15.5 283.855 15.609 283.719 15.801 283.691 15.801 283.445 15.801 282.598 15.801 281.723 15.555 280.574 15.227 280.082 15.09 279.125 14.816 278.25 14.816 278.031 14.816 277.785 14.844 277.566 14.898ZM277.566 14.898" fill="#8c6200"/>
<path d="M289.449 5.379H290.68C290.926 5.379 291.062 5.379 291.062 5.105 291.062 4.941 290.926 4.941 290.707 4.941H289.559L289.996 3.137C290.023 3.082 290.051 3 290.051 2.973 290.051 2.727 289.859 2.562 289.613 2.562 289.312 2.562 289.148 2.781 289.039 3.082 288.957 3.41 289.121 2.809 288.574 4.941H287.344C287.125 4.941 286.961 4.941 286.961 5.215 286.961 5.379 287.098 5.379 287.316 5.379H288.465L287.754 8.25C287.672 8.551 287.562 8.988 287.562 9.152 287.562 9.859 288.191 10.297 288.875 10.297 290.242 10.297 291.008 8.605 291.008 8.441 291.008 8.277 290.844 8.277 290.816 8.277 290.652 8.277 290.652 8.305 290.543 8.523 290.215 9.289 289.586 9.969 288.93 9.969 288.656 9.969 288.492 9.805 288.492 9.371 288.492 9.262 288.547 8.988 288.574 8.879ZM289.449 5.379" fill="#8c6200"/>
<path d="M295.18 6.383C295.18 6.137 295.152 6.137 294.852 6.137 294.25 6.684 293.266 6.684 293.102 6.684H292.965V7.066H293.102C293.293 7.066 293.867 7.039 294.387 6.82V11.195C294.387 11.441 294.387 11.547 293.457 11.547H293.02V11.93C293.484 11.902 294.277 11.902 294.77 11.902 295.289 11.902 296.055 11.902 296.547 11.93V11.547H296.109C295.18 11.547 295.18 11.441 295.18 11.195ZM295.18 6.383" fill="#8c6200"/>
<path d="M305.148 20.695C305.148 20.641 305.148 20.613 304.848 20.312 302.688 18.125 302.113 14.816 302.113 12.141 302.113 9.105 302.77 6.07 304.93 3.914 305.148 3.695 305.148 3.668 305.148 3.613 305.148 3.477 305.094 3.422 304.984 3.422 304.793 3.422 303.234 4.625 302.195 6.836 301.32 8.75 301.102 10.691 301.102 12.141 301.102 13.508 301.293 15.609 302.25 17.605 303.316 19.738 304.793 20.887 304.984 20.887 305.094 20.887 305.148 20.832 305.148 20.695ZM305.148 20.695" fill="#8c6200"/>
<path d="M315.699 7.957C315.699 4.898 313.895 4.27 312.828 4.27 311.434 4.27 309.711 5.172 308.398 7.547 307.5 9.188 306.953 11.566 306.953 12.961 306.953 15.5 308.293 16.648 309.848 16.648 311.023 16.648 312.555 15.965 313.758 14.191 315.234 12.059 315.699 9.27 315.699 7.957ZM309.602 10.035C309.848 9.023 310.312 7.438 310.832 6.535 311.242 5.824 311.953 4.898 312.773 4.898 313.512 4.898 313.84 5.66 313.84 6.699 313.84 7.793 313.457 9.324 313.266 10.035ZM313.047 10.883C311.953 15.555 310.504 16.02 309.902 16.02 309.656 16.02 309.273 15.965 309.027 15.418 308.836 14.953 308.836 14.273 308.836 14.246 308.836 13.262 309.219 11.621 309.41 10.883ZM313.047 10.883" fill="#8c6200"/>
<path d="M321.535 12.141C321.535 10.801 321.344 8.695 320.387 6.699 319.348 4.57 317.844 3.422 317.68 3.422 317.57 3.422 317.488 3.504 317.488 3.613 317.488 3.668 317.488 3.695 317.816 4.023 319.539 5.742 320.523 8.504 320.523 12.141 320.523 15.145 319.895 18.207 317.734 20.395 317.488 20.613 317.488 20.641 317.488 20.695 317.488 20.805 317.57 20.887 317.68 20.887 317.844 20.887 319.43 19.684 320.441 17.469 321.344 15.555 321.535 13.617 321.535 12.141ZM321.535 12.141" fill="#8c6200"/>
<path d="M210.609 79.199C210.609 76.465 208.996 75.617 207.711 75.617 205.305 75.617 203.008 78.105 203.008 80.566 203.008 82.207 204.047 83.52 205.852 83.52 206.945 83.52 208.203 83.109 209.516 82.043 209.734 82.973 210.309 83.52 211.098 83.52 212.027 83.52 212.574 82.562 212.574 82.289 212.574 82.152 212.465 82.098 212.355 82.098 212.246 82.098 212.191 82.152 212.137 82.289 211.809 83.137 211.18 83.137 211.152 83.137 210.609 83.137 210.609 81.77 210.609 81.359 210.609 81.004 210.609 80.949 210.797 80.758 212.438 78.68 212.793 76.656 212.793 76.656 212.793 76.602 212.766 76.465 212.574 76.465 212.41 76.465 212.41 76.52 212.328 76.848 212 77.941 211.426 79.254 210.609 80.293ZM209.461 81.605C207.902 82.945 206.562 83.137 205.879 83.137 204.84 83.137 204.293 82.344 204.293 81.223 204.293 80.375 204.758 78.488 205.305 77.613 206.125 76.328 207.082 76 207.684 76 209.406 76 209.406 78.297 209.406 79.637 209.406 80.293 209.406 81.305 209.461 81.605ZM209.461 81.605" fill="#b400b4"/>
<path d="M219.598 83.727H219.188C219.16 84 219.023 84.711 218.859 84.82 218.777 84.902 217.848 84.902 217.656 84.902H215.414C216.699 83.781 217.137 83.426 217.848 82.852 218.75 82.141 219.598 81.379 219.598 80.23 219.598 78.754 218.312 77.852 216.754 77.852 215.25 77.852 214.211 78.918 214.211 80.039 214.211 80.641 214.73 80.723 214.867 80.723 215.141 80.723 215.496 80.504 215.496 80.066 215.496 79.848 215.414 79.41 214.785 79.41 215.168 78.562 215.988 78.289 216.562 78.289 217.793 78.289 218.422 79.246 218.422 80.23 218.422 81.297 217.656 82.117 217.273 82.551L214.348 85.477C214.211 85.586 214.211 85.613 214.211 85.941H219.242ZM219.598 83.727" fill="#b400b4"/>
<path d="M234.879 71.793C234.906 71.738 234.961 71.629 234.961 71.547 234.961 71.438 234.934 71.41 234.551 71.41H222.496C222.113 71.41 222.086 71.438 222.086 71.547 222.086 71.629 222.141 71.738 222.168 71.793L228.043 83.574C228.18 83.793 228.234 83.902 228.508 83.902 228.809 83.902 228.863 83.793 229 83.574ZM224.246 72.668H233.812L229.055 82.262ZM224.246 72.668" fill="#8c6200"/>
<path d="M243.141 80.094C243.141 77.961 241.828 77.387 240.844 77.387 240.27 77.387 238.93 77.578 237.758 79.273 236.938 80.477 236.5 82.25 236.5 83.344 236.5 85.203 237.594 86.051 238.82 86.051 239.449 86.051 240.652 85.777 241.773 84.328 242.621 83.18 243.141 81.352 243.141 80.094ZM238.465 81.379C238.711 80.531 238.902 79.766 239.312 79.055 239.613 78.59 240.188 77.934 240.816 77.934 241.227 77.934 241.691 78.262 241.691 79.301 241.691 79.957 241.527 80.586 241.336 81.379ZM241.172 82.062C241.035 82.578 240.762 83.645 240.297 84.383 239.914 85.039 239.34 85.477 238.82 85.477 238.246 85.477 237.945 84.93 237.945 84.137 237.945 83.508 238.164 82.66 238.301 82.062ZM241.172 82.062" fill="#8c6200"/>
<path d="M247.336 82.246C247.336 82.027 247.199 81.863 246.953 81.863 246.707 81.863 246.434 82.109 246.434 82.383 246.434 82.629 246.625 82.766 246.816 82.766 247.09 82.766 247.336 82.52 247.336 82.246ZM247.746 86.426C247.746 86.316 247.609 86.316 247.582 86.316 247.418 86.316 247.418 86.344 247.363 86.508 247.227 86.973 246.816 87.492 246.379 87.492 246.188 87.492 246.133 87.355 246.133 87.164 246.133 86.973 246.16 86.863 246.242 86.699 246.297 86.535 246.379 86.371 246.434 86.234 246.461 86.152 246.789 85.359 246.926 85.031 246.98 84.867 247.035 84.73 247.035 84.594 247.035 84.184 246.625 83.832 246.078 83.832 245.176 83.832 244.684 84.949 244.684 85.168 244.684 85.305 244.82 85.305 244.875 85.305 245.012 85.305 245.012 85.25 245.066 85.141 245.258 84.512 245.668 84.129 246.051 84.129 246.215 84.129 246.324 84.211 246.324 84.457 246.324 84.484 246.324 84.594 246.27 84.758 246.215 84.922 245.805 85.852 245.695 86.152 245.613 86.316 245.613 86.316 245.504 86.617 245.449 86.754 245.395 86.863 245.395 87 245.395 87.465 245.832 87.793 246.352 87.793 247.254 87.793 247.746 86.645 247.746 86.426ZM247.746 86.426" fill="#8c6200"/>
<path d="M258.73 66.812 256.379 69.191 256.68 69.492 258.73 67.715 260.727 69.492 261.023 69.191ZM258.73 66.812" fill="#8c6200"/>
<path d="M253.426 81.715C254.355 80.238 254.656 79.117 254.875 78.188 255.504 75.781 256.16 73.707 257.254 72.504 257.441 72.285 257.578 72.121 258.152 72.121 259.355 72.121 259.383 73.324 259.383 73.57 259.383 73.871 259.301 74.117 259.301 74.199 259.301 74.336 259.41 74.336 259.41 74.336 259.711 74.336 260.176 74.145 260.613 73.816 260.914 73.57 261.078 73.406 261.078 72.695 261.078 71.738 260.586 71.027 259.602 71.027 259.055 71.027 257.523 71.164 255.805 72.887 254.41 74.336 253.59 77.477 253.262 78.762 252.961 79.992 252.824 80.512 252.277 81.578 252.168 81.77 251.703 82.535 251.457 82.781 250.992 83.219 250.828 83.52 250.828 83.602 250.828 83.629 250.855 83.711 250.992 83.711 251.047 83.711 251.402 83.629 251.867 83.355 252.168 83.164 252.195 83.137 252.605 82.727 253.48 82.727 254.082 82.891 255.176 83.219 256.078 83.438 256.953 83.711 257.852 83.711 259.273 83.711 260.695 82.645 261.242 81.879 261.598 81.414 261.707 80.977 261.707 80.922 261.707 80.785 261.598 80.785 261.57 80.785 261.297 80.785 260.887 81.004 260.586 81.195 260.121 81.496 260.094 81.605 259.984 81.906 259.902 82.18 259.793 82.316 259.711 82.426 259.574 82.617 259.547 82.617 259.301 82.617 258.453 82.617 257.578 82.371 256.434 82.043 255.941 81.906 254.984 81.633 254.109 81.633 253.891 81.633 253.645 81.66 253.426 81.715ZM253.426 81.715" fill="#8c6200"/>
<path d="M265.309 72.191H266.539C266.785 72.191 266.922 72.191 266.922 71.918 266.922 71.754 266.785 71.754 266.566 71.754H265.418L265.855 69.953C265.883 69.898 265.91 69.816 265.91 69.789 265.91 69.543 265.719 69.379 265.473 69.379 265.172 69.379 265.008 69.598 264.898 69.898 264.816 70.227 264.98 69.625 264.434 71.754H263.203C262.984 71.754 262.82 71.754 262.82 72.027 262.82 72.191 262.957 72.191 263.176 72.191H264.324L263.613 75.062C263.531 75.363 263.422 75.801 263.422 75.965 263.422 76.676 264.051 77.113 264.734 77.113 266.102 77.113 266.867 75.418 266.867 75.254 266.867 75.09 266.703 75.09 266.676 75.09 266.512 75.09 266.512 75.117 266.402 75.336 266.074 76.102 265.445 76.785 264.789 76.785 264.516 76.785 264.352 76.621 264.352 76.184 264.352 76.074 264.406 75.801 264.434 75.691ZM265.309 72.191" fill="#8c6200"/>
<path d="M272.707 77.051H272.324C272.324 77.215 272.215 77.762 272.078 77.844 272.023 77.898 271.285 77.898 271.148 77.898H269.453C270.027 77.488 270.656 76.996 271.176 76.641 271.969 76.094 272.707 75.602 272.707 74.672 272.707 73.551 271.641 72.949 270.41 72.949 269.234 72.949 268.359 73.605 268.359 74.48 268.359 74.918 268.742 75 268.879 75 269.098 75 269.371 74.836 269.371 74.48 269.371 74.18 269.152 73.988 268.879 73.988 269.125 73.578 269.645 73.332 270.219 73.332 271.066 73.332 271.777 73.824 271.777 74.672 271.777 75.41 271.258 75.984 270.602 76.531L268.469 78.336C268.387 78.418 268.359 78.418 268.359 78.473V78.746H272.406ZM272.707 77.051" fill="#8c6200"/>
<path d="M281.008 87.508C281.008 87.453 281.008 87.426 280.707 87.125 278.547 84.938 277.973 81.633 277.973 78.953 277.973 75.918 278.629 72.887 280.789 70.727 281.008 70.508 281.008 70.48 281.008 70.426 281.008 70.289 280.953 70.234 280.844 70.234 280.652 70.234 279.094 71.438 278.055 73.652 277.18 75.562 276.961 77.504 276.961 78.953 276.961 80.32 277.152 82.426 278.109 84.418 279.176 86.551 280.652 87.699 280.844 87.699 280.953 87.699 281.008 87.645 281.008 87.508ZM281.008 87.508" fill="#8c6200"/>
<path d="M291.555 74.773C291.555 71.711 289.754 71.082 288.688 71.082 287.293 71.082 285.57 71.984 284.258 74.363 283.355 76 282.809 78.379 282.809 79.773 282.809 82.316 284.148 83.465 285.707 83.465 286.883 83.465 288.414 82.781 289.617 81.004 291.09 78.871 291.555 76.082 291.555 74.773ZM285.461 76.848C285.707 75.836 286.172 74.254 286.691 73.352 287.102 72.641 287.812 71.711 288.633 71.711 289.371 71.711 289.699 72.477 289.699 73.516 289.699 74.609 289.316 76.137 289.125 76.848ZM288.906 77.695C287.812 82.371 286.363 82.836 285.762 82.836 285.516 82.836 285.133 82.781 284.887 82.234 284.695 81.77 284.695 81.086 284.695 81.059 284.695 80.074 285.078 78.434 285.27 77.695ZM288.906 77.695" fill="#8c6200"/>
<path d="M297.395 78.953C297.395 77.613 297.203 75.508 296.246 73.516 295.207 71.383 293.703 70.234 293.539 70.234 293.43 70.234 293.348 70.316 293.348 70.426 293.348 70.48 293.348 70.508 293.676 70.836 295.398 72.559 296.383 75.316 296.383 78.953 296.383 81.961 295.754 85.02 293.594 87.207 293.348 87.426 293.348 87.453 293.348 87.508 293.348 87.617 293.43 87.699 293.539 87.699 293.703 87.699 295.289 86.496 296.301 84.285 297.203 82.371 297.395 80.43 297.395 78.953ZM297.395 78.953" fill="#8c6200"/>
<path d="M210.609 258.145C210.609 255.41 208.996 254.562 207.711 254.562 205.305 254.562 203.008 257.051 203.008 259.512 203.008 261.152 204.047 262.465 205.852 262.465 206.945 262.465 208.203 262.055 209.516 260.988 209.734 261.918 210.309 262.465 211.098 262.465 212.027 262.465 212.574 261.508 212.574 261.234 212.574 261.098 212.465 261.043 212.355 261.043 212.246 261.043 212.191 261.098 212.137 261.234 211.809 262.082 211.18 262.082 211.152 262.082 210.609 262.082 210.609 260.715 210.609 260.305 210.609 259.949 210.609 259.895 210.797 259.703 212.438 257.625 212.793 255.602 212.793 255.602 212.793 255.547 212.766 255.41 212.574 255.41 212.41 255.41 212.41 255.465 212.328 255.793 212 256.887 211.426 258.199 210.609 259.238ZM209.461 260.551C207.902 261.891 206.562 262.082 205.879 262.082 204.84 262.082 204.293 261.289 204.293 260.168 204.293 259.32 204.758 257.434 205.305 256.559 206.125 255.273 207.082 254.945 207.684 254.945 209.406 254.945 209.406 257.242 209.406 258.582 209.406 259.238 209.406 260.25 209.461 260.551ZM209.461 260.551" fill="#b400b4"/>
<path d="M217.273 256.797C217.273 256.77 217.301 256.605 217.301 256.605 217.301 256.523 217.273 256.414 217.109 256.414 216.863 256.414 215.852 256.523 215.551 256.551 215.469 256.551 215.277 256.578 215.277 256.824 215.277 256.988 215.469 256.988 215.605 256.988 216.18 256.988 216.18 257.098 216.18 257.18 216.18 257.262 216.152 257.344 216.152 257.453L214.43 264.34C214.348 264.559 214.348 264.586 214.348 264.613 214.348 264.805 214.512 264.996 214.785 264.996 215.113 264.996 215.25 264.777 215.332 264.504 215.359 264.449 215.879 262.289 215.934 262.125 216.809 262.207 217.492 262.508 217.492 263.137 217.492 263.191 217.492 263.246 217.465 263.383 217.41 263.547 217.41 263.629 217.41 263.766 217.41 264.613 218.121 264.996 218.723 264.996 219.898 264.996 220.254 263.164 220.254 263.137 220.254 262.973 220.117 262.973 220.062 262.973 219.898 262.973 219.871 263.055 219.816 263.273 219.68 263.793 219.352 264.668 218.75 264.668 218.422 264.668 218.312 264.367 218.312 264.039 218.312 263.82 218.312 263.793 218.395 263.492 218.422 263.438 218.449 263.246 218.449 263.109 218.449 262.016 217 261.852 216.48 261.824 216.836 261.605 217.273 261.195 217.492 261.004 218.121 260.434 218.723 259.859 219.406 259.859 219.543 259.859 219.707 259.887 219.816 260.023 219.297 260.105 219.188 260.516 219.188 260.707 219.188 260.949 219.379 261.141 219.652 261.141 220.008 261.141 220.363 260.867 220.363 260.379 220.363 259.969 220.062 259.504 219.434 259.504 218.723 259.504 218.094 260.023 217.465 260.598 216.945 261.059 216.562 261.441 216.043 261.66ZM217.273 256.797" fill="#b400b4"/>
<path d="M235.633 250.738C235.66 250.684 235.715 250.574 235.715 250.492 235.715 250.383 235.688 250.355 235.305 250.355H223.25C222.867 250.355 222.84 250.383 222.84 250.492 222.84 250.574 222.895 250.684 222.922 250.738L228.801 262.52C228.938 262.738 228.992 262.848 229.266 262.848 229.566 262.848 229.621 262.738 229.758 262.52ZM225 251.613H234.566L229.812 261.207ZM225 251.613" fill="#8c6200"/>
<path d="M243.895 259.039C243.895 256.906 242.586 256.332 241.602 256.332 241.027 256.332 239.688 256.523 238.512 258.219 237.691 259.422 237.254 261.195 237.254 262.289 237.254 264.148 238.348 264.996 239.578 264.996 240.207 264.996 241.41 264.723 242.531 263.273 243.375 262.125 243.895 260.297 243.895 259.039ZM239.223 260.324C239.469 259.477 239.66 258.711 240.07 258 240.371 257.535 240.945 256.879 241.574 256.879 241.984 256.879 242.449 257.207 242.449 258.246 242.449 258.902 242.285 259.531 242.094 260.324ZM241.93 261.004C241.793 261.523 241.52 262.59 241.055 263.328 240.672 263.984 240.098 264.422 239.578 264.422 239.004 264.422 238.703 263.875 238.703 263.082 238.703 262.453 238.922 261.605 239.059 261.004ZM241.93 261.004" fill="#8c6200"/>
<path d="M248.09 261.191C248.09 260.973 247.953 260.809 247.707 260.809 247.461 260.809 247.188 261.055 247.188 261.328 247.188 261.574 247.379 261.711 247.57 261.711 247.844 261.711 248.09 261.465 248.09 261.191ZM248.5 265.371C248.5 265.262 248.363 265.262 248.336 265.262 248.172 265.262 248.172 265.289 248.117 265.453 247.98 265.918 247.57 266.438 247.133 266.438 246.941 266.438 246.887 266.301 246.887 266.109 246.887 265.918 246.914 265.809 246.996 265.645 247.051 265.48 247.133 265.316 247.188 265.18 247.215 265.098 247.543 264.305 247.68 263.977 247.734 263.812 247.789 263.676 247.789 263.539 247.789 263.129 247.379 262.773 246.832 262.773 245.93 262.773 245.438 263.895 245.438 264.113 245.438 264.25 245.574 264.25 245.629 264.25 245.766 264.25 245.766 264.195 245.82 264.086 246.012 263.457 246.422 263.074 246.805 263.074 246.969 263.074 247.078 263.156 247.078 263.402 247.078 263.43 247.078 263.539 247.023 263.703 246.969 263.867 246.559 264.797 246.449 265.098 246.367 265.262 246.367 265.262 246.258 265.562 246.203 265.699 246.148 265.809 246.148 265.945 246.148 266.41 246.586 266.738 247.105 266.738 248.008 266.738 248.5 265.59 248.5 265.371ZM248.5 265.371" fill="#8c6200"/>
<path d="M259.484 245.758 257.133 248.137 257.434 248.438 259.484 246.66 261.48 248.438 261.781 248.137ZM259.484 245.758" fill="#8c6200"/>
<path d="M254.18 260.66C255.109 259.184 255.41 258.062 255.629 257.133 256.258 254.727 256.914 252.652 258.008 251.449 258.199 251.23 258.336 251.066 258.91 251.066 260.113 251.066 260.141 252.27 260.141 252.516 260.141 252.816 260.059 253.062 260.059 253.145 260.059 253.281 260.168 253.281 260.168 253.281 260.469 253.281 260.934 253.09 261.371 252.762 261.672 252.516 261.836 252.352 261.836 251.641 261.836 250.684 261.344 249.973 260.359 249.973 259.812 249.973 258.281 250.109 256.559 251.832 255.164 253.281 254.344 256.422 254.016 257.707 253.715 258.938 253.578 259.457 253.035 260.523 252.926 260.715 252.461 261.48 252.215 261.727 251.75 262.164 251.586 262.465 251.586 262.547 251.586 262.574 251.613 262.656 251.75 262.656 251.805 262.656 252.16 262.574 252.625 262.301 252.926 262.109 252.953 262.082 253.359 261.672 254.234 261.672 254.836 261.836 255.93 262.164 256.832 262.383 257.707 262.656 258.609 262.656 260.031 262.656 261.453 261.59 262 260.824 262.352 260.359 262.461 259.922 262.461 259.867 262.461 259.73 262.352 259.73 262.324 259.73 262.055 259.73 261.645 259.949 261.344 260.141 260.879 260.441 260.852 260.551 260.742 260.852 260.66 261.125 260.551 261.262 260.469 261.371 260.332 261.562 260.305 261.562 260.059 261.562 259.211 261.562 258.336 261.316 257.188 260.988 256.695 260.852 255.738 260.578 254.863 260.578 254.645 260.578 254.398 260.605 254.18 260.66ZM254.18 260.66" fill="#8c6200"/>
<path d="M266.066 251.137H267.297C267.543 251.137 267.68 251.137 267.68 250.863 267.68 250.699 267.543 250.699 267.324 250.699H266.176L266.613 248.898C266.641 248.844 266.668 248.762 266.668 248.734 266.668 248.488 266.477 248.324 266.23 248.324 265.93 248.324 265.766 248.543 265.656 248.844 265.574 249.168 265.738 248.57 265.191 250.699H263.961C263.742 250.699 263.578 250.699 263.578 250.973 263.578 251.137 263.715 251.137 263.934 251.137H265.082L264.371 254.008C264.289 254.309 264.18 254.746 264.18 254.91 264.18 255.621 264.809 256.059 265.492 256.059 266.859 256.059 267.625 254.363 267.625 254.199 267.625 254.035 267.461 254.035 267.434 254.035 267.27 254.035 267.27 254.062 267.16 254.281 266.832 255.047 266.203 255.73 265.547 255.73 265.273 255.73 265.109 255.566 265.109 255.129 265.109 255.02 265.164 254.746 265.191 254.637ZM266.066 251.137" fill="#8c6200"/>
<path d="M271.52 252.086C271.574 251.949 271.574 251.949 271.574 251.895 271.574 251.758 271.438 251.758 271.301 251.758L270.234 251.84C270.07 251.84 270.043 251.84 270.016 251.895 269.988 251.922 269.961 252.031 269.961 252.086 269.961 252.223 270.098 252.223 270.207 252.223 270.234 252.223 270.371 252.223 270.508 252.25 270.672 252.277 270.672 252.305 270.672 252.359 270.672 252.387 270.672 252.414 270.645 252.578L269.441 257.387C269.414 257.496 269.414 257.523 269.414 257.578 269.414 257.77 269.551 257.906 269.742 257.906 270.07 257.906 270.152 257.578 270.18 257.441L270.59 255.855C270.809 255.855 271.902 255.91 271.902 256.539 271.902 256.594 271.902 256.621 271.875 256.73 271.848 256.867 271.848 256.895 271.848 256.949 271.848 257.578 272.395 257.906 272.914 257.906 273.789 257.906 274.145 256.648 274.145 256.539 274.145 256.43 274.008 256.43 273.953 256.43 273.816 256.43 273.789 256.457 273.762 256.621 273.68 256.922 273.406 257.605 272.941 257.605 272.613 257.605 272.586 257.277 272.586 257.086 272.586 257.086 272.586 256.949 272.613 256.812 272.641 256.676 272.668 256.566 272.668 256.512 272.668 255.746 271.684 255.609 271.109 255.555 271.355 255.418 271.738 255.117 271.875 255.008 272.367 254.625 272.859 254.242 273.352 254.242 273.543 254.242 273.598 254.297 273.652 254.352 273.652 254.352 273.598 254.379 273.57 254.379 273.188 254.516 273.188 254.871 273.188 254.898 273.188 255.035 273.297 255.254 273.57 255.254 273.734 255.254 274.117 255.117 274.117 254.625 274.117 254.215 273.789 253.941 273.352 253.941 272.777 253.941 272.258 254.352 271.629 254.844 271.328 255.09 271.027 255.309 270.672 255.473ZM271.52 252.086" fill="#8c6200"/>
<path d="M282.582 266.453C282.582 266.398 282.582 266.371 282.281 266.07 280.121 263.883 279.547 260.578 279.547 257.898 279.547 254.863 280.203 251.832 282.363 249.672 282.582 249.453 282.582 249.426 282.582 249.371 282.582 249.234 282.527 249.18 282.418 249.18 282.227 249.18 280.668 250.383 279.629 252.598 278.754 254.508 278.535 256.449 278.535 257.898 278.535 259.266 278.727 261.371 279.684 263.363 280.75 265.496 282.227 266.645 282.418 266.645 282.527 266.645 282.582 266.59 282.582 266.453ZM282.582 266.453" fill="#8c6200"/>
<path d="M293.129 253.719C293.129 250.656 291.324 250.027 290.258 250.027 288.863 250.027 287.145 250.93 285.832 253.309 284.93 254.945 284.383 257.324 284.383 258.719 284.383 261.262 285.723 262.41 287.281 262.41 288.453 262.41 289.984 261.727 291.188 259.949 292.664 257.816 293.129 255.027 293.129 253.719ZM287.035 255.793C287.281 254.781 287.746 253.199 288.262 252.297 288.672 251.586 289.383 250.656 290.203 250.656 290.941 250.656 291.27 251.422 291.27 252.461 291.27 253.555 290.887 255.082 290.695 255.793ZM290.477 256.641C289.383 261.316 287.938 261.781 287.336 261.781 287.09 261.781 286.707 261.727 286.461 261.18 286.27 260.715 286.27 260.031 286.27 260.004 286.27 259.02 286.652 257.379 286.844 256.641ZM290.477 256.641" fill="#8c6200"/>
<path d="M298.965 257.898C298.965 256.559 298.773 254.453 297.816 252.461 296.777 250.328 295.277 249.18 295.113 249.18 295.004 249.18 294.922 249.262 294.922 249.371 294.922 249.426 294.922 249.453 295.25 249.781 296.969 251.504 297.953 254.262 297.953 257.898 297.953 260.906 297.324 263.965 295.168 266.152 294.922 266.371 294.922 266.398 294.922 266.453 294.922 266.562 295.004 266.645 295.113 266.645 295.277 266.645 296.859 265.441 297.871 263.227 298.773 261.316 298.965 259.375 298.965 257.898ZM298.965 257.898" fill="#8c6200"/>
</g>
</svg>
