<svg xmlns="http://www.w3.org/2000/svg" fill="none" viewBox="0 0 282 132"><g clip-path="url(#a)"><g clip-path="url(#b)"><mask id="c" width="158" height="140" x="-1" y="-8" maskUnits="userSpaceOnUse" style="mask-type:alpha"><path fill="#C4C4C4" d="m28.635 120.451 11.17 11.028 69.805-19.309 46.543-75.846c-1.811-14.733-5.829-44.222-7.404-44.32-1.574-.098-55.777 1.634-82.682 2.512L12.37 48.078-.043 74.542c2.526 1.744 8.783 6.08 13.602 9.472 5.95 4.186 9.715 15.338 12.586 23.838l.107.317c2.307 6.83 2.55 11.034 2.383 12.282Z"/></mask><g mask="url(#c)"><path fill="#005BBB" d="M144.507-.71s2.604 15.387-4.418 30.177l-.022.053c-9.261 9.474-23.553 11.428-34.867 17.215-7.568 3.881-12.319 9.248-12.319 9.248s-.016-.9.06-2.422c.077-1.523 1.456-3.2-4.444-.15-5.9 3.05-9.132 8.547-16.312 14.86-6.897 6.08-14.608 6.77-14.608 6.77s-.129-2.273.046-5.102c.52-7.823-20.576 3.668-32.462 16.088-5.588 5.837-5.329 7.74-3.985 12.426 2.407 8.418-19.711 16.969-34.34 22.623l-8.592-22.212s5.704-2.199 19.78-7.635c17.278-6.676 14.482-8.809 14.482-8.809C8.043 79.375.536 75.297 20.3 58.367 34.126 46.516 71.925 25.761 65.656 40.85l-2.324 6.219s4.095-.286 9.875-2.264c5.78-1.978 8.555-2.13 11.963-7.58 2.89-4.621 6.244-9.752 14.817-11.305 12.372-2.27 45.21-10.786 44.52-26.63Z"/><path fill="#FFD500" d="M140.089 29.467c-1.238 2.584-2.743 5.151-4.638 7.604-8.442 11.035-6.396 18.316-6.396 18.316s-10.134 2.967-22.007 14.005c-7.985 7.431-10.82 5.656-4.849 2.323 5.972-3.333 3.059-3.567-2.388-.292-6.792 4.109-19.28 20.141-32.922 25.82-19.264 8.009-13.142 1.954-4.907-.807 8.713-2.93 5.76-5.143-7.274.574-32.176 14.074-11.346 27.769-59.315 46.293l-8.574-22.228c14.628-5.654 36.746-14.205 34.34-22.623-1.343-4.703-1.603-6.606 3.984-12.425 11.886-12.422 32.983-23.912 32.463-16.089-.192 2.81-.047 5.102-.047 5.102s7.71-.672 14.608-6.77c7.18-6.313 10.412-11.81 16.312-14.86 5.9-3.05 4.521-1.373 4.445.15-.077 1.523-.06 2.423-.06 2.423s4.75-5.35 12.318-9.249c11.316-5.805 25.607-7.741 34.868-17.215l.039-.052Z"/><path fill="#FFD500" d="M54.303 101.245c-1.028-.514 2.98-3.177 7.694-4.754 8.712-2.93 5.745-5.18-7.288.519a70.92 70.92 0 0 0-2.737 1.268l-.019.017c1.399 2.064 2.368 2.951 2.35 2.95ZM97.06 73.5c1.002-.819 1.925-1.517 2.765-2.022 5.447-3.275 8.36-3.04 2.389.292-2.605 1.456-3.54 2.62-3.085 2.828l-.05-.057s-.807-.319-2.02-1.042Z"/><g opacity=".6"><path fill="url(#d)" d="M54.302 101.245c-1.028-.514 2.98-3.177 7.694-4.754 8.713-2.93 5.745-5.18-7.288.519-.96.425-1.866.837-2.736 1.268l-.02.017c1.4 2.064 2.368 2.95 2.35 2.95Z" opacity=".8"/><path fill="url(#e)" d="M97.06 73.5c1.002-.82 1.925-1.517 2.765-2.022 5.447-3.275 8.36-3.04 2.389.291-2.605 1.457-3.54 2.622-3.085 2.83l-.05-.058s-.807-.319-2.02-1.042Z" opacity=".8"/><g opacity=".6"><g opacity=".4"><path fill="#211E22" d="M96.757 73.732s-9.597-3.956-8.428-12.98c2.605-20.025 2.425-1.449 8.255 4.18 3.407 3.266 8.224 4.086 8.721 4.172-3.972.634-8.548 4.628-8.548 4.628Z" opacity=".032"/><path fill="#29262A" d="M96.945 73.618s-9.48-3.842-8.39-12.726c2.39-19.445 2.22-1.642 8.03 4.04 3.371 3.264 8.241 4.087 8.739 4.172-3.898.603-8.38 4.514-8.38 4.514Z" opacity=".065"/><path fill="#302D31" d="M97.113 73.502s-9.36-3.726-8.351-12.471c2.173-18.866 1.997-1.8 7.804 3.9 3.336 3.262 8.242 4.087 8.74 4.173-3.773.593-8.193 4.398-8.193 4.398Z" opacity=".097"/><path fill="#383538" d="M97.281 73.387s-9.24-3.629-8.313-12.217c1.958-18.286 1.794-1.992 7.581 3.741 3.282 3.26 8.26 4.09 8.758 4.174-3.682.58-8.026 4.302-8.026 4.302Z" opacity=".129"/><path fill="#3F3C40" d="M97.45 73.272s-9.121-3.514-8.275-11.964c1.76-17.687 1.59-2.166 7.357 3.602 3.246 3.258 8.277 4.09 8.775 4.175-3.591.569-7.856 4.187-7.856 4.187Z" opacity=".161"/><path fill="#464447" d="M97.619 73.157s-8.986-3.398-8.237-11.71c1.561-17.106 1.385-2.36 7.13 3.462 3.212 3.255 8.297 4.092 8.794 4.176-3.481.54-7.687 4.072-7.687 4.072Z" opacity=".194"/><path fill="#4E4B4E" d="M97.788 73.041s-8.867-3.282-8.199-11.455c1.365-16.525 1.181-2.534 6.907 3.322 3.175 3.253 8.313 4.093 8.81 4.196-3.39.508-7.518 3.937-7.518 3.937Z" opacity=".226"/><path fill="#555356" d="M97.975 72.927s-8.748-3.167-8.16-11.202c1.165-15.926.976-2.726 6.68 3.183 3.14 3.25 8.333 4.094 8.829 4.196-3.317.496-7.35 3.823-7.35 3.823Z" opacity=".258"/><path fill="#5C5A5D" d="M98.144 72.812s-8.612-3.052-8.124-10.93c.968-15.345.773-2.918 6.457 3.043 3.104 3.248 8.349 4.095 8.846 4.198-3.207.447-7.18 3.689-7.18 3.689Z" opacity=".29"/><path fill="#646265" d="M98.313 72.696S89.82 69.76 90.227 62.02c.787-14.745.569-3.092 6.232 2.903 3.068 3.246 8.35 4.095 8.846 4.198-3.098.438-6.993 3.575-6.993 3.575Z" opacity=".323"/><path fill="#6B696C" d="M98.481 72.58s-8.357-2.818-8.048-10.421c.607-14.145.365-3.285 5.99 2.744 3.033 3.244 8.368 4.096 8.865 4.2-2.99.425-6.807 3.478-6.807 3.478Z" opacity=".355"/><path fill="#737173" d="M98.65 72.465s-8.238-2.703-7.992-10.166c.426-13.545.161-3.46 5.766 2.604 2.98 3.223 8.385 4.098 8.882 4.2-2.899.413-6.656 3.362-6.656 3.362Z" opacity=".387"/><path fill="#7A787B" d="M98.82 72.35s-8.102-2.588-7.954-9.912c.264-12.963-.043-3.652 5.541 2.465 2.944 3.22 8.403 4.098 8.9 4.2-2.807.383-6.487 3.247-6.487 3.247Z" opacity=".419"/><path fill="#818082" d="M99.005 72.236s-7.982-2.472-7.915-9.659c.1-12.36-.248-3.826 5.316 2.326 2.908 3.218 8.422 4.099 8.918 4.201-2.735.37-6.319 3.132-6.319 3.132Z" opacity=".452"/><path fill="#898789" d="M99.174 72.12s-7.847-2.338-7.877-9.404c-.062-11.76-.451-4.018 5.092 2.185 2.872 3.216 8.437 4.119 8.935 4.203-2.625.34-6.15 3.016-6.15 3.016Z" opacity=".484"/><path fill="#908F91" d="M99.343 72.005s-7.71-2.222-7.839-9.15c-.207-11.158-.655-4.211 4.867 2.045 2.836 3.214 8.455 4.12 8.953 4.204-2.535.328-5.98 2.901-5.98 2.901Z" opacity=".516"/><path fill="#989698" d="M99.512 71.89s-7.575-2.106-7.8-8.897c-.335-10.554-.86-4.385 4.641 1.906 2.8 3.212 8.455 4.12 8.953 4.204-2.425.3-5.794 2.787-5.794 2.787Z" opacity=".548"/><path fill="#9F9E9F" d="M99.681 71.775s-7.44-1.972-7.763-8.643c-.48-9.952-1.063-4.578 4.417 1.766 2.766 3.191 8.474 4.12 8.971 4.205-2.316.288-5.625 2.672-5.625 2.672Z" opacity=".581"/><path fill="#A6A5A7" d="M99.85 71.659s-7.304-1.837-7.724-8.388c-.59-9.33-1.268-4.77 4.193 1.608 2.73 3.189 8.491 4.122 8.988 4.206-2.226.276-5.457 2.574-5.457 2.574Z" opacity=".613"/><path fill="#AEADAE" d="M100.036 71.545s-7.168-1.721-7.687-8.134c-.716-8.727-1.47-4.963 3.968 1.468 2.695 3.187 8.51 4.123 9.008 4.208-2.154.261-5.289 2.458-5.289 2.458Z" opacity=".645"/><path fill="#B5B4B5" d="M100.205 71.43s-7.014-1.586-7.648-7.88c-.808-8.122-1.676-5.138 3.743 1.328 2.659 3.185 8.528 4.124 9.025 4.209-2.063.25-5.12 2.342-5.12 2.342Z" opacity=".677"/><path fill="#BDBCBD" d="M100.374 71.314s-6.86-1.45-7.61-7.626c-.9-7.516-1.861-5.329 3.5 1.188 2.623 3.182 8.546 4.125 9.044 4.21-1.936.221-4.934 2.228-4.934 2.228Z" opacity=".71"/><path fill="#C4C3C4" d="M100.542 71.198s-6.706-1.332-7.572-7.354c-.991-6.91-2.065-5.52 3.275 1.049 2.587 3.18 8.563 4.125 9.061 4.21-1.844.191-4.764 2.096-4.764 2.096Z" opacity=".742"/><path fill="#CBCBCC" d="M100.711 71.083s-6.536-1.196-7.535-7.1c-1.064-6.304-2.269-5.713 3.051.908 2.552 3.16 8.563 4.127 9.059 4.229-1.733.144-4.575 1.963-4.575 1.963Z" opacity=".774"/><path fill="#D3D2D3" d="M100.88 70.968s-6.345-1.076-7.478-6.845c-1.12-5.696-2.474-5.888 2.826.768 2.516 3.159 8.581 4.127 9.077 4.23-1.643.132-4.425 1.847-4.425 1.847Z" opacity=".806"/><path fill="#DADADA" d="M101.067 70.853s-6.156-.938-7.44-6.59c-1.157-5.106-2.678-6.08 2.602.61 2.48 3.156 8.599 4.129 9.095 4.231-1.57.119-4.257 1.75-4.257 1.75Z" opacity=".839"/><path fill="#E1E1E2" d="M101.235 70.738s-5.948-.818-7.402-6.337c-1.195-4.496-2.863-6.271 2.377.472 2.445 3.153 8.617 4.129 9.113 4.231-1.479.106-4.088 1.634-4.088 1.634Z" opacity=".871"/><path fill="#E9E9E9" d="M101.404 70.623s-5.703-.713-7.364-6.083c-1.212-3.922-3.066-6.464 2.152.331 2.41 3.133 8.636 4.13 9.132 4.233-1.37.077-3.92 1.52-3.92 1.52Z" opacity=".903"/><path fill="#F0F0F0" d="M101.573 70.508s-5.44-.625-7.326-5.83c-1.213-3.328-3.252-6.654 1.928.192 2.374 3.131 8.653 4.132 9.149 4.234-1.279.065-3.751 1.404-3.751 1.404Z" opacity=".935"/><path fill="#F8F8F8" d="M101.743 70.392s-5.102-.567-7.288-5.575c-1.212-2.771-3.456-6.847 1.702.052 2.34 3.13 8.653 4.132 9.149 4.235-1.169.035-3.563 1.288-3.563 1.288Z" opacity=".968"/><path fill="#fff" d="M101.911 70.277s-4.688-.579-7.25-5.321c-1.21-2.232-3.66-7.04 1.478-.088 2.303 3.126 8.67 4.133 9.167 4.235-1.061.025-3.395 1.174-3.395 1.174Z" opacity=".4"/></g><g opacity=".6"><path fill="#F8F8F8" d="M63.354 46.998c-4.92 13.608-7.913 25.7-4.116 36.595 2.792 7.993 7.536 9.994 7.536 9.994 1.062.534-2.145 2.15-4.795 2.885-5.243 1.436-16.913 9.484 4.907.807 10.478-4.167 24.28-18.537 24.28-18.537s-9.742-2.474-8.465-17.296C83.973 46.695 94.3 28.426 94.47 28.004c.022-.07-4.917 1.385-10.07 10.341-2.475 4.287-7.216 5.16-15.565 7.735-2.747.854-5.481.919-5.481.919Z" opacity=".032"/><path fill="#F0F0F0" d="M63.353 46.998c-4.919 13.608-7.913 25.7-4.115 36.595 2.792 7.992 7.535 9.994 7.535 9.994 1.063.534-2.145 2.15-4.794 2.885-5.262 1.435-16.913 9.484 4.907.807 10.201-4.059 23.637-18.001 23.637-18.001s-9.654-2.469-8.359-17.29c1.268-14.68 11.48-32.56 11.84-33.42.062-.14-4.655 1.204-9.586 9.778-2.474 4.287-7.217 5.16-15.566 7.735-2.764.853-5.499.917-5.499.917Z" opacity=".065"/><path fill="#E9E9E9" d="M63.354 46.998c-4.92 13.608-7.914 25.7-4.116 36.595 2.792 7.993 7.535 9.994 7.535 9.994 1.063.534-2.144 2.15-4.794 2.885-5.28 1.434-16.914 9.503 4.907.807 9.925-3.95 22.992-17.448 22.992-17.448s-9.545-2.48-8.268-17.302c1.263-14.608 11.363-32.101 11.91-33.397.085-.21-4.392 1.022-9.103 9.232-2.475 4.287-7.216 5.16-15.566 7.735-2.763.835-5.497.899-5.497.899Z" opacity=".097"/><path fill="#E1E1E2" d="M63.353 46.998c-4.92 13.608-7.913 25.7-4.116 36.595 2.792 7.993 7.536 9.994 7.536 9.994 1.062.533-2.145 2.15-4.794 2.885-5.28 1.434-16.897 9.504 4.907.807 9.666-3.84 22.347-16.913 22.347-16.913s-9.454-2.491-8.177-17.314c1.26-14.536 11.262-31.64 11.962-33.376.127-.298-4.129.84-8.618 8.669-2.475 4.287-7.217 5.16-15.566 7.735-2.747.854-5.48.918-5.48.918Z" opacity=".129"/><path fill="#DADADA" d="M63.353 46.998c-4.919 13.608-7.913 25.7-4.115 36.595 2.792 7.993 7.535 9.994 7.535 9.994 1.063.533-2.145 2.15-4.794 2.885-5.299 1.45-16.897 9.504 4.907.807 9.39-3.731 21.704-16.378 21.704-16.378s-9.364-2.504-8.087-17.326c1.255-14.465 11.144-31.18 12.033-33.354.149-.368-3.866.66-8.136 8.124-2.475 4.286-7.216 5.16-15.565 7.735-2.747.854-5.482.918-5.482.918Z" opacity=".161"/><path fill="#D3D2D3" d="M63.353 46.998c-4.92 13.608-7.913 25.7-4.115 36.595 2.792 7.993 7.535 9.994 7.535 9.994 1.062.533-2.145 2.15-4.794 2.885-5.317 1.45-16.897 9.504 4.907.807 9.114-3.623 21.06-15.842 21.06-15.842s-9.273-2.516-7.978-17.338c1.25-14.393 11.026-30.72 12.102-33.314.171-.438-3.604.478-7.652 7.561-2.475 4.287-7.217 5.16-15.566 7.735-2.765.853-5.499.917-5.499.917Z" opacity=".194"/><path fill="#CBCBCC" d="M63.354 46.998c-4.92 13.608-7.913 25.7-4.116 36.595 2.792 7.993 7.536 9.994 7.536 9.994 1.062.534-2.146 2.168-4.795 2.885-5.334 1.449-16.879 9.504 4.907.807 8.839-3.514 20.417-15.307 20.417-15.307s-9.166-2.51-7.888-17.35C80.66 50.3 90.322 34.361 91.57 31.33c.211-.508-3.341.296-7.17 7.015-2.474 4.287-7.216 5.16-15.565 7.735-2.747.854-5.481.918-5.481.918Z" opacity=".226"/><path fill="#C4C3C4" d="M63.354 46.998c-4.92 13.608-7.913 25.7-4.116 36.595 2.792 7.992 7.536 9.994 7.536 9.994 1.062.534-2.146 2.168-4.795 2.884-5.334 1.45-16.879 9.505 4.907.808C75.45 93.874 86.66 82.507 86.66 82.507s-9.075-2.522-7.798-17.345c1.242-14.267 10.807-29.798 12.225-33.27.233-.578-3.079.116-6.668 6.454-2.474 4.287-7.216 5.16-15.565 7.735-2.765.853-5.499.917-5.499.917Z" opacity=".258"/><path fill="#BDBCBD" d="M63.354 46.998c-4.92 13.608-7.913 25.7-4.115 36.595 2.791 7.993 7.535 9.994 7.535 9.994 1.062.534-2.146 2.168-4.795 2.885-5.352 1.447-16.878 9.504 4.907.807 8.286-3.297 19.13-14.236 19.13-14.236s-8.986-2.535-7.709-17.357c1.22-14.197 10.69-29.339 12.296-33.248.274-.648-2.816-.067-6.184 5.908-2.475 4.287-7.217 5.16-15.566 7.735-2.765.853-5.499.917-5.499.917Z" opacity=".29"/><path fill="#B5B4B5" d="M63.353 46.998c-4.92 13.608-7.913 25.7-4.116 36.595 2.792 7.992 7.536 9.994 7.536 9.994 1.063.533-2.146 2.168-4.794 2.885-5.37 1.446-16.862 9.524 4.907.807 8.01-3.188 18.484-13.683 18.484-13.683s-8.894-2.547-7.6-17.368C78.986 52.102 88.341 37.348 90.12 33c.297-.736-2.553-.248-5.702 5.345-2.474 4.287-7.215 5.16-15.565 7.735-2.765.853-5.499.917-5.499.917Z" opacity=".323"/><path fill="#AEADAE" d="M63.353 46.998c-4.92 13.608-7.913 25.7-4.116 36.595 2.792 7.992 7.536 9.994 7.536 9.994 1.062.534-2.146 2.168-4.794 2.885-5.37 1.446-16.862 9.524 4.907.807 7.733-3.08 17.84-13.148 17.84-13.148s-8.786-2.558-7.509-17.38c1.211-14.054 10.47-28.418 12.419-33.204.337-.806-2.29-.43-5.218 4.799-2.475 4.287-7.217 5.16-15.566 7.735-2.765.853-5.499.917-5.499.917Z" opacity=".355"/><path fill="#A6A5A7" d="M63.353 46.998c-4.92 13.608-7.913 25.7-4.115 36.595 2.791 7.993 7.535 9.994 7.535 9.994 1.062.533-2.146 2.168-4.794 2.885-5.388 1.445-16.862 9.524 4.907.807 7.475-2.97 17.197-12.613 17.197-12.613s-8.696-2.57-7.42-17.392C77.871 53.29 87.016 39.316 89.153 34.11c.36-.877-2.029-.593-4.735 4.254-2.475 4.287-7.217 5.16-15.566 7.735-2.764.835-5.498.9-5.498.9Z" opacity=".387"/><path fill="#9F9E9F" d="M63.353 46.998c-4.92 13.608-7.913 25.7-4.115 36.595 2.792 7.993 7.535 9.994 7.535 9.994 1.063.533-2.146 2.168-4.794 2.885-5.406 1.444-16.844 9.525 4.907.807 7.2-2.86 16.553-12.077 16.553-12.077s-8.606-2.565-7.328-17.406c1.202-13.91 10.233-27.497 12.54-33.142.383-.947-1.766-.775-4.251 3.691-2.475 4.287-7.216 5.16-15.566 7.735-2.747.854-5.48.919-5.48.919Z" opacity=".419"/><path fill="#989698" d="M63.353 46.998c-4.92 13.608-7.913 25.7-4.115 36.595 2.792 7.992 7.535 9.994 7.535 9.994 1.062.534-2.146 2.168-4.794 2.885-5.425 1.46-16.844 9.524 4.907.807 6.923-2.752 15.909-11.542 15.909-11.542s-8.515-2.577-7.22-17.399c1.198-13.839 10.115-27.037 12.61-33.12.423-1.016-1.503-.956-3.768 3.146-2.475 4.286-7.217 5.16-15.566 7.735-2.764.835-5.498.899-5.498.899Z" opacity=".452"/><path fill="#908F91" d="M63.353 46.998c-4.919 13.608-7.913 25.7-4.115 36.595 2.792 7.992 7.536 9.994 7.536 9.994 1.062.534-2.146 2.168-4.795 2.885-5.425 1.46-16.844 9.524 4.907.807 6.647-2.643 15.265-11.007 15.265-11.007s-8.407-2.588-7.13-17.411c1.194-13.767 10.015-26.576 12.682-33.097.444-1.087-1.24-1.138-3.285 2.582-2.474 4.287-7.217 5.16-15.566 7.735-2.764.853-5.499.917-5.499.917Z" opacity=".484"/><path fill="#898789" d="M63.353 46.998c-4.92 13.608-7.913 25.7-4.115 36.595 2.792 7.992 7.535 9.994 7.535 9.994 1.062.533-2.146 2.168-4.794 2.884-5.443 1.46-16.844 9.525 4.907.808 6.371-2.535 14.621-10.471 14.621-10.471s-8.316-2.602-7.04-17.424c1.19-13.695 9.899-26.134 12.735-33.076.485-1.157-.978-1.32-2.802 2.037-2.475 4.286-7.216 5.16-15.566 7.735-2.747.854-5.48.918-5.48.918Z" opacity=".516"/><path fill="#818082" d="M63.353 46.998c-4.919 13.608-7.913 25.7-4.115 36.595 2.792 7.993 7.536 9.994 7.536 9.994 1.062.533-2.146 2.168-4.795 2.885-5.46 1.459-16.827 9.544 4.907.807 6.095-2.426 13.976-9.918 13.976-9.918s-8.225-2.614-6.948-17.436C75.098 56.3 83.694 44.25 86.719 36.87c.507-1.245-.716-1.5-2.319 1.474-2.475 4.286-7.216 5.16-15.565 7.735-2.747.854-5.482.918-5.482.918Z" opacity=".548"/><path fill="#7A787B" d="M63.354 46.998c-4.92 13.608-7.913 25.7-4.116 36.595 2.792 7.993 7.536 9.994 7.536 9.994 1.062.533-2.146 2.168-4.795 2.885-5.478 1.457-16.827 9.544 4.907.807 5.819-2.317 13.333-9.383 13.333-9.383s-8.136-2.607-6.84-17.447c1.18-13.553 9.661-25.214 12.874-33.014.53-1.315-.453-1.682-1.836.929-2.475 4.287-7.216 5.16-15.565 7.735-2.764.835-5.498.899-5.498.899Z" opacity=".581"/><path fill="#737173" d="M63.354 46.998c-4.92 13.608-7.913 25.7-4.115 36.595 2.792 7.993 7.535 9.994 7.535 9.994 1.062.533-2.146 2.168-4.795 2.885-5.478 1.457-16.827 9.544 4.907.807 5.543-2.209 12.69-8.848 12.69-8.848s-8.028-2.619-6.751-17.441c1.157-13.482 9.56-24.753 12.926-32.993.57-1.384-.19-1.863-1.351.366-2.475 4.286-7.217 5.16-15.566 7.735-2.746.836-5.48.9-5.48.9Z" opacity=".613"/><path fill="#6B696C" d="M63.353 46.998c-4.92 13.608-7.913 25.7-4.115 36.595 2.792 7.993 7.535 9.994 7.535 9.994 1.062.534-2.146 2.168-4.794 2.885-5.497 1.456-16.81 9.545 4.907.807 5.285-2.116 12.045-8.313 12.045-8.313s-7.938-2.63-6.66-17.453c1.153-13.41 9.442-24.293 12.997-32.97.593-1.456.073-2.045-.869-.18-2.475 4.286-7.216 5.16-15.566 7.735-2.746.836-5.48.9-5.48.9Z" opacity=".645"/><path fill="#646265" d="M63.354 46.998c-4.92 13.608-7.914 25.7-4.116 36.595 2.792 7.992 7.535 9.994 7.535 9.994 1.063.533-2.145 2.168-4.794 2.884-5.514 1.456-16.81 9.546 4.907.808 5.01-2.008 11.402-7.778 11.402-7.778s-7.847-2.643-6.57-17.466c1.149-13.338 9.324-23.832 13.067-32.947.633-1.525.336-2.226-.385-.743-2.475 4.286-7.216 5.16-15.565 7.735-2.747.854-5.481.918-5.481.918Z" opacity=".677"/><path fill="#5C5A5D" d="M63.353 46.998c-4.919 13.608-7.913 25.7-4.115 36.595 2.792 7.992 7.535 9.994 7.535 9.994 1.063.534-2.145 2.168-4.794 2.885-5.533 1.472-16.81 9.545 4.907.807 4.733-1.9 10.757-7.242 10.757-7.242s-7.755-2.656-6.46-17.478c1.145-13.284 9.223-23.37 13.137-32.925.656-1.595.598-2.407.098-1.288-2.474 4.287-7.217 5.16-15.566 7.735-2.764.853-5.499.917-5.499.917Z" opacity=".71"/><path fill="#555356" d="M63.353 46.998c-4.919 13.608-7.913 25.7-4.115 36.595 2.792 7.993 7.536 9.994 7.536 9.994 1.062.534-2.146 2.168-4.795 2.885-5.533 1.472-16.791 9.546 4.907.807C71.343 95.49 77 90.573 77 90.573s-7.648-2.667-6.371-17.49c1.141-13.213 9.106-22.912 13.19-32.905.696-1.664.862-2.589.582-1.851-2.474 4.287-7.216 5.16-15.565 7.735-2.748.872-5.483.936-5.483.936Z" opacity=".742"/><path fill="#4E4B4E" d="M63.353 46.998c-4.92 13.608-7.913 25.7-4.115 36.595 2.792 7.993 7.535 9.994 7.535 9.994 1.062.534-2.147 2.186-4.794 2.885-5.551 1.471-16.791 9.546 4.907.807 4.18-1.682 9.487-6.153 9.487-6.153s-7.558-2.66-6.28-17.501c1.136-13.142 8.986-22.452 13.26-32.864.719-1.753 1.122-2.753 1.064-2.397-2.475 4.287-7.217 5.16-15.566 7.735-2.763.835-5.498.899-5.498.899Z" opacity=".774"/><path fill="#464447" d="M63.353 46.998c-4.92 13.608-7.913 25.7-4.115 36.595 2.792 7.993 7.535 9.994 7.535 9.994 1.063.534-2.146 2.186-4.794 2.885-5.57 1.47-16.792 9.564 4.907.807 3.905-1.573 8.843-5.617 8.843-5.617s-7.468-2.674-6.173-17.495c1.132-13.07 8.87-21.992 13.33-32.842.742-1.824 1.385-2.934 1.549-2.96-2.475 4.287-7.216 5.161-15.566 7.735-2.782.834-5.516.898-5.516.898Z" opacity=".806"/><path fill="#3F3C40" d="M63.353 46.999c-4.92 13.607-7.913 25.699-4.115 36.594 2.791 7.993 7.535 9.994 7.535 9.994 1.063.534-2.147 2.186-4.794 2.885-5.587 1.469-16.775 9.565 4.907.807 3.629-1.465 8.2-5.081 8.2-5.081s-7.378-2.687-6.083-17.509c1.128-12.998 8.768-21.53 13.383-32.82.781-1.893 1.647-3.115 2.03-3.505-2.474 4.287-7.216 5.16-15.565 7.735-2.764.835-5.498.9-5.498.9Z" opacity=".839"/><path fill="#383538" d="M63.353 46.998c-4.92 13.608-7.913 25.7-4.115 36.595 2.792 7.993 7.535 9.994 7.535 9.994 1.063.533-2.146 2.186-4.794 2.885-5.587 1.469-16.775 9.565 4.907.807 3.352-1.355 7.555-4.546 7.555-4.546s-7.268-2.698-5.991-17.52c1.123-12.927 8.65-21.071 13.453-32.799.804-1.963 1.91-3.297 2.515-4.068-2.475 4.287-7.217 5.16-15.566 7.735-2.765.853-5.499.917-5.499.917Z" opacity=".871"/><path fill="#302D31" d="M63.354 46.998c-4.92 13.608-7.913 25.7-4.115 36.595 2.791 7.993 7.535 9.994 7.535 9.994 1.062.533-2.148 2.186-4.795 2.885-5.605 1.467-16.774 9.565 4.907.807 3.095-1.246 6.912-4.011 6.912-4.011s-7.178-2.71-5.901-17.533c1.119-12.855 8.532-20.61 13.524-32.775.844-2.033 2.173-3.479 2.998-4.614-2.475 4.287-7.217 5.161-15.566 7.735-2.765.853-5.499.917-5.499.917Z" opacity=".903"/><path fill="#29262A" d="M63.353 46.998c-4.92 13.608-7.913 25.7-4.116 36.595 2.792 7.993 7.536 9.994 7.536 9.994 1.062.534-2.147 2.186-4.794 2.885-5.623 1.467-16.757 9.566 4.907.807 2.818-1.137 6.267-3.475 6.267-3.475s-7.089-2.705-5.792-17.544c1.097-12.785 8.431-20.15 13.575-32.737.867-2.103 2.436-3.66 3.5-5.176-2.475 4.287-7.217 5.161-15.566 7.735-2.783.852-5.517.916-5.517.916Z" opacity=".935"/><path fill="#211E22" d="M63.353 46.998c-4.919 13.608-7.913 25.7-4.115 36.595 2.792 7.993 7.536 9.994 7.536 9.994 1.062.534-2.147 2.186-4.795 2.885-5.64 1.466-16.757 9.566 4.907.807 2.542-1.028 5.624-2.94 5.624-2.94s-6.998-2.718-5.703-17.54c1.092-12.711 8.313-19.688 13.645-32.713.89-2.192 2.7-3.841 3.983-5.72-2.475 4.286-7.217 5.16-15.566 7.734-2.781.834-5.516.898-5.516.898Z" opacity=".968"/><path fill="#1A171B" d="M63.353 46.998c-4.919 13.608-7.913 25.7-4.115 36.595 2.792 7.993 7.535 9.994 7.535 9.994 1.063.533-2.147 2.186-4.794 2.885-5.642 1.483-16.757 9.566 4.907.807 2.266-.92 4.979-2.388 4.979-2.388s-6.89-2.727-5.612-17.55C67.34 64.7 74.448 58.112 79.968 44.65c.93-2.261 2.962-4.022 4.467-6.284-2.475 4.287-7.217 5.161-15.566 7.735-2.781.834-5.516.898-5.516.898Z" opacity=".6"/></g><g opacity=".5"><path fill="#FBFAFB" d="M95.492 37.9c16.749-31.191 32.87 17.66 33.191 17.698-.019.016-9.989 2.957-21.653 13.81-7.985 7.432-10.821 5.657-4.85 2.324 2.866-1.603 3.693-2.486 3.162-2.608l.034.02c.018 0-23.353-4.576-9.884-31.244Z" opacity=".02"/><path fill="#F6F6F6" d="M95.438 38.22c16.442-30.887 32.25 17.513 32.893 17.572-.038.033-9.828 2.949-21.299 13.598-7.985 7.432-10.821 5.656-4.849 2.324 2.865-1.602 3.691-2.485 3.161-2.608l.034.02c-.001.018-23.178-4.494-9.94-30.906Z" opacity=".039"/><path fill="#F2F1F2" d="M95.362 38.557C111.5 7.975 127.011 55.925 127.94 56.02c-.057.05-9.681 2.922-20.944 13.387-7.986 7.432-10.821 5.656-4.85 2.323 2.866-1.601 3.692-2.485 3.161-2.608l.035.02c.018.002-22.946-4.46-9.978-30.584Z" opacity=".059"/><path fill="#EDEDED" d="M95.306 38.877c15.813-30.296 31.03 17.204 32.279 17.336-.076.067-9.537 2.913-20.591 13.193-7.986 7.432-10.82 5.656-4.849 2.323 2.864-1.601 3.692-2.485 3.16-2.608l.035.02s-22.77-4.413-10.034-30.264Z" opacity=".078"/><path fill="#E9E8E9" d="M95.233 39.197c15.507-29.993 30.411 17.057 31.982 17.208-.095.084-9.393 2.905-20.237 12.982-7.985 7.432-10.82 5.656-4.849 2.324 2.865-1.602 3.692-2.486 3.161-2.608l.034.02c.017.018-22.56-4.33-10.09-29.927Z" opacity=".098"/><path fill="#E4E4E4" d="M95.176 39.534c15.201-29.687 29.81 16.894 31.684 17.083-.114.1-9.248 2.878-19.882 12.77-7.986 7.432-10.821 5.656-4.85 2.323 2.865-1.601 3.692-2.485 3.161-2.608l.034.02c0 .018-22.364-4.28-10.147-29.588Z" opacity=".118"/><path fill="#E0DFE0" d="M95.103 39.853c14.876-29.384 29.191 16.748 31.385 16.974-.133.118-9.104 2.869-19.529 12.577-7.985 7.432-10.821 5.656-4.849 2.324 2.865-1.603 3.692-2.486 3.161-2.609l.034.02s-22.169-4.25-10.202-29.286Z" opacity=".137"/><path fill="#DBDBDB" d="M95.046 40.191c14.571-29.097 28.572 16.584 31.087 16.848-.151.135-8.941 2.86-19.174 12.365-7.986 7.432-10.821 5.656-4.85 2.324 2.865-1.602 3.693-2.486 3.161-2.609l.035.02s-21.976-4.185-10.26-28.947Z" opacity=".157"/><path fill="#D7D6D7" d="M94.971 40.51c14.248-28.794 27.971 16.44 30.791 16.722-.17.133-8.796 2.833-18.821 12.153-7.985 7.431-10.82 5.656-4.849 2.323 2.865-1.602 3.692-2.485 3.161-2.608l.035.02c-.002.018-21.765-4.118-10.317-28.61Z" opacity=".176"/><path fill="#D2D2D2" d="M94.916 40.83c13.942-28.49 27.351 16.293 30.475 16.595-.188.15-8.652 2.824-18.467 11.959-7.985 7.432-10.82 5.656-4.849 2.323 2.865-1.602 3.692-2.485 3.161-2.608l.034.02c0 .018-21.57-4.07-10.354-28.289Z" opacity=".196"/><path fill="#CECDCE" d="M94.86 41.169c13.634-28.185 26.731 16.128 30.176 16.485-.208.167-8.508 2.816-18.113 11.747-7.986 7.432-10.821 5.657-4.85 2.324 2.866-1.602 3.692-2.485 3.161-2.608l.035.02s-21.376-4.022-10.41-27.968Z" opacity=".216"/><path fill="#C9C8C9" d="M94.787 41.487c13.31-27.881 26.112 15.982 29.878 16.36-.227.183-8.362 2.789-17.776 11.534-7.985 7.432-10.821 5.657-4.849 2.324 2.865-1.602 3.692-2.485 3.161-2.608l.034.02c.017.019-21.146-3.954-10.448-27.63Z" opacity=".235"/><path fill="#C5C4C5" d="M94.729 41.826c13.005-27.595 25.512 15.818 29.581 16.232-.246.201-8.218 2.78-17.423 11.341-7.986 7.432-10.821 5.656-4.85 2.324 2.865-1.602 3.693-2.486 3.161-2.608l.035.02c.018 0-20.969-3.925-10.504-27.31Z" opacity=".255"/><path fill="#C0BFC0" d="M94.673 42.146c12.7-27.29 24.893 15.672 29.283 16.124-.265.217-8.073 2.753-17.069 11.13-7.985 7.431-10.821 5.655-4.85 2.323 2.866-1.602 3.693-2.486 3.162-2.609l.034.021s-20.775-3.859-10.56-26.99Z" opacity=".275"/><path fill="#BCBBBC" d="M94.6 42.465c12.375-26.987 24.274 15.508 28.985 15.998-.284.234-7.911 2.745-16.714 10.917-7.986 7.432-10.822 5.656-4.85 2.324 2.865-1.602 3.692-2.485 3.161-2.608l.035.02c.017.02-20.563-3.792-10.617-26.651Z" opacity=".294"/><path fill="#B7B6B7" d="M94.543 42.803c12.069-26.683 23.673 15.363 28.688 15.871-.303.251-7.767 2.736-16.362 10.724-7.985 7.432-10.82 5.657-4.849 2.324 2.865-1.602 3.692-2.485 3.161-2.608l.035.02S84.847 65.39 94.543 42.803Z" opacity=".314"/><path fill="#B3B2B3" d="M94.487 43.123c11.747-26.397 23.053 15.216 28.373 15.744-.322.268-7.621 2.71-16.007 10.512-7.986 7.432-10.82 5.656-4.849 2.323 2.864-1.601 3.692-2.485 3.16-2.608l.035.02c.017.02-20.157-3.676-10.712-25.991Z" opacity=".333"/><path fill="#AEADAF" d="M94.43 43.46c11.439-26.091 22.435 15.053 28.074 15.637-.341.285-7.477 2.7-15.653 10.3-7.986 7.432-10.82 5.656-4.849 2.324 2.865-1.602 3.692-2.486 3.16-2.609l.035.02s-19.98-3.647-10.767-25.671Z" opacity=".353"/><path fill="#AAA9AA" d="M94.375 43.78c11.133-25.787 21.814 14.907 27.776 15.51-.36.302-7.333 2.691-15.299 10.107-7.986 7.432-10.821 5.656-4.85 2.324 2.865-1.602 3.692-2.486 3.161-2.609l.034.02s-19.785-3.581-10.822-25.351Z" opacity=".372"/><path fill="#A5A4A6" d="M94.301 44.1c10.81-25.484 21.215 14.743 27.479 15.383-.379.318-7.187 2.665-14.945 9.895-7.985 7.432-10.821 5.656-4.85 2.324 2.866-1.602 3.693-2.486 3.162-2.608l.034.02c-.001.017-19.574-3.516-10.88-25.014Z" opacity=".392"/><path fill="#A19FA1" d="M94.244 44.438c10.503-25.18 20.595 14.597 27.182 15.257-.398.335-7.044 2.655-14.591 9.683-7.986 7.432-10.821 5.656-4.85 2.324 2.866-1.603 3.693-2.486 3.161-2.608l.035.02c-.001.017-19.38-3.467-10.937-24.676Z" opacity=".412"/><path fill="#9C9B9D" d="M94.188 44.758c10.198-24.893 19.976 14.433 26.882 15.149-.417.352-6.881 2.647-14.237 9.49-7.986 7.43-10.821 5.655-4.85 2.322 2.866-1.601 3.693-2.485 3.161-2.608l.035.02s-19.186-3.418-10.991-24.373Z" opacity=".431"/><path fill="#989698" d="M94.131 45.096c9.874-24.59 19.375 14.287 26.586 15.023-.437.368-6.736 2.62-13.883 9.277-7.986 7.432-10.821 5.656-4.85 2.323 2.865-1.601 3.692-2.485 3.161-2.608l.034.02c-.017-.001-18.99-3.37-11.048-24.035Z" opacity=".451"/><path fill="#939294" d="M94.076 45.416c9.567-24.285 18.755 14.142 26.27 14.895-.455.386-6.592 2.612-13.547 9.065-7.986 7.431-10.82 5.656-4.849 2.323 2.864-1.602 3.692-2.485 3.16-2.608l.035.02c.017.02-18.762-3.302-11.07-23.695Z" opacity=".471"/><path fill="#8F8D8F" d="M94.019 45.754c9.261-23.98 18.136 13.978 25.972 14.769-.473.384-6.446 2.584-13.193 8.853-7.984 7.431-10.82 5.656-4.849 2.323 2.865-1.602 3.692-2.485 3.161-2.608l.035.02c.017.019-18.569-3.237-11.126-23.357Z" opacity=".49"/><path fill="#8A898B" d="M93.963 46.075c8.939-23.696 17.535 13.832 25.674 14.66-.492.4-6.302 2.575-12.839 8.659-7.986 7.432-10.821 5.656-4.85 2.323 2.865-1.601 3.693-2.485 3.161-2.608l.035.02c.018.002-18.373-3.206-11.181-23.055Z" opacity=".51"/><path fill="#868486" d="M93.908 46.394c8.632-23.39 16.916 13.668 25.376 14.535-.511.417-6.158 2.566-12.485 8.446-7.984 7.415-10.82 5.657-4.849 2.324 2.864-1.602 3.692-2.485 3.16-2.608l.035.02c-.001.018-18.179-3.14-11.237-22.717Z" opacity=".529"/><path fill="#818082" d="M93.85 46.732c8.308-23.087 16.297 13.522 25.079 14.408-.53.434-5.995 2.54-12.131 8.235-7.984 7.415-10.82 5.657-4.849 2.324 2.865-1.602 3.692-2.485 3.161-2.608l.034.02c-.001.018-17.985-3.075-11.294-22.379Z" opacity=".549"/><path fill="#7D7B7D" d="M93.795 47.053c8.002-22.783 15.678 13.357 24.78 14.299-.549.451-5.85 2.531-11.777 8.042-7.985 7.413-10.821 5.656-4.85 2.323 2.865-1.601 3.693-2.485 3.161-2.608l.035.02s-17.772-3.043-11.35-22.077Z" opacity=".569"/><path fill="#787779" d="M93.738 47.39c7.696-22.477 15.077 13.212 24.483 14.174-.568.468-5.706 2.522-11.423 7.83-7.985 7.413-10.821 5.656-4.85 2.323 2.865-1.602 3.693-2.485 3.161-2.608l.035.02S87.566 66.134 93.738 47.39Z" opacity=".588"/><path fill="#747274" d="M93.7 47.711c7.373-22.191 14.457 13.067 24.167 14.047-.587.484-5.56 2.495-11.068 7.617-7.984 7.415-10.822 5.657-4.849 2.324 2.864-1.602 3.691-2.485 3.16-2.608l.035.02c-.002.018-17.385-2.912-11.445-21.4Z" opacity=".608"/><path fill="#6F6D70" d="M93.644 48.032c7.067-21.888 13.839 12.902 23.87 13.92-.606.5-5.417 2.486-10.715 7.424-7.984 7.414-10.822 5.656-4.849 2.323 2.864-1.602 3.691-2.485 3.16-2.608l.035.02c-.001.018-17.19-2.863-11.5-21.08Z" opacity=".627"/><path fill="#6B696B" d="M93.587 48.37c6.76-21.583 13.238 12.756 23.572 13.811-.625.518-5.273 2.477-10.361 7.213-7.985 7.413-10.821 5.656-4.85 2.323 2.865-1.601 3.693-2.485 3.161-2.608l.034.02s-16.976-2.832-11.556-20.76Z" opacity=".647"/><path fill="#666467" d="M93.55 48.69c6.436-21.278 12.618 12.594 23.273 13.686-.644.535-5.127 2.45-10.006 7-7.985 7.415-10.821 5.657-4.85 2.325 2.866-1.602 3.692-2.486 3.161-2.609l.035.02c-.019.017-16.802-2.75-11.613-20.421Z" opacity=".667"/><path fill="#626063" d="M93.493 49.029c6.132-20.993 12 12.446 22.976 13.559-.663.552-4.964 2.442-9.671 6.806-7.984 7.413-10.82 5.656-4.849 2.323 2.865-1.601 3.692-2.485 3.161-2.608l.035.02c.017.002-16.571-2.717-11.652-20.1Z" opacity=".686"/><path fill="#5D5B5E" d="M93.437 49.349c5.825-20.688 11.398 12.301 22.679 13.432-.682.569-4.82 2.434-9.317 6.595-7.984 7.414-10.82 5.656-4.849 2.323 2.865-1.602 3.692-2.485 3.161-2.608l.034.02c.017.02-16.377-2.651-11.708-19.762Z" opacity=".706"/><path fill="#59575A" d="M93.398 49.67c5.501-20.385 10.779 12.137 22.363 13.323-.701.586-4.676 2.407-8.963 6.382-7.984 7.415-10.82 5.657-4.849 2.324 2.865-1.602 3.692-2.485 3.161-2.608l.034.02c.017.02-16.166-2.584-11.746-19.44Z" opacity=".726"/><path fill="#545255" d="M93.36 50.01c5.195-20.08 10.159 11.99 22.065 13.196-.721.602-4.531 2.397-8.61 6.189-7.984 7.414-10.82 5.656-4.849 2.324 2.865-1.603 3.692-2.486 3.161-2.609l.035.02S89.173 66.575 93.36 50.01Z" opacity=".745"/><path fill="#504E51" d="M93.304 50.33c4.872-19.795 9.542 11.826 21.768 13.07-.739.619-4.386 2.37-8.255 5.977-7.984 7.414-10.821 5.656-4.85 2.324 2.865-1.602 3.692-2.486 3.161-2.608l.035.02c.017.018-15.777-2.489-11.859-18.783Z" opacity=".765"/><path fill="#4B494C" d="M93.266 50.669c4.565-19.49 8.939 11.68 21.469 12.944-.758.635-4.241 2.36-7.9 5.765-7.985 7.414-10.821 5.656-4.85 2.324 2.866-1.602 3.693-2.485 3.162-2.608l.034.02c-.001.017-15.583-2.423-11.915-18.445Z" opacity=".784"/><path fill="#474448" d="M93.228 50.99c4.259-19.186 8.321 11.517 21.171 12.835-.776.635-4.097 2.352-7.547 5.572-7.985 7.414-10.821 5.656-4.85 2.324 2.865-1.602 3.693-2.486 3.161-2.609l.035.02S89.81 66.74 93.228 50.99Z" opacity=".804"/><path fill="#424043" d="M93.189 51.329c3.935-18.882 7.701 11.37 20.873 12.71-.794.65-3.934 2.326-7.193 5.359-7.984 7.414-10.82 5.657-4.849 2.324 2.865-1.602 3.692-2.486 3.161-2.608l.035.02s-15.194-2.345-12.027-17.805Z" opacity=".824"/><path fill="#3E3B3F" d="M93.15 51.65c3.63-18.577 7.101 11.226 20.577 12.583-.813.668-3.789 2.317-6.838 5.148-7.985 7.415-10.821 5.657-4.85 2.324 2.865-1.602 3.693-2.485 3.161-2.608l.035.02c-.019.017-15-2.26-12.084-17.467Z" opacity=".843"/><path fill="#39373A" d="M93.113 51.971c3.323-18.29 6.481 11.062 20.259 12.474-.832.685-3.645 2.309-6.485 4.954-7.984 7.414-10.821 5.657-4.849 2.324 2.865-1.602 3.692-2.486 3.161-2.608l.034.02s-14.787-2.23-12.12-17.164Z" opacity=".863"/><path fill="#353236" d="M93.075 52.31c2.999-17.987 5.861 10.916 19.961 12.347-.852.702-3.499 2.282-6.13 4.743-7.985 7.414-10.821 5.656-4.85 2.324 2.865-1.602 3.692-2.485 3.161-2.608l.035.02S90.659 66.955 93.075 52.31Z" opacity=".882"/><path fill="#302E31" d="M93.036 52.632c2.693-17.683 5.262 10.752 19.664 12.22-.87.72-3.355 2.273-5.776 4.531-7.985 7.415-10.821 5.657-4.85 2.324 2.866-1.602 3.693-2.485 3.162-2.608l.034.02c-.001.018-14.4-2.098-12.234-16.487Z" opacity=".902"/><path fill="#2C292D" d="M93.015 52.972c2.369-17.38 4.641 10.606 19.367 12.094-.89.736-3.212 2.264-5.441 4.336-7.985 7.415-10.821 5.657-4.85 2.324 2.865-1.602 3.692-2.485 3.161-2.608l.034.02S91.1 67.072 93.015 52.972Z" opacity=".922"/><path fill="#272528" d="M92.977 53.293c2.065-17.093 4.024 10.442 19.069 11.986-.909.752-3.048 2.238-5.087 4.125-7.984 7.413-10.82 5.656-4.849 2.324 2.865-1.603 3.692-2.486 3.16-2.609l.035.02c.018.001-13.993-2-12.328-15.846Z" opacity=".941"/><path fill="#232024" d="M92.956 53.633c1.758-16.788 3.404 10.296 18.771 11.86-.928.77-2.904 2.229-4.732 3.913-7.985 7.414-10.822 5.656-4.85 2.323 2.865-1.601 3.692-2.485 3.161-2.608l.034.02S91.542 67.19 92.956 53.633Z" opacity=".961"/><path fill="#1E1C1F" d="M92.918 53.955c1.434-16.485 2.802 10.15 18.473 11.733-.947.786-2.76 2.22-4.378 3.701-7.984 7.414-10.821 5.656-4.849 2.323 2.865-1.601 3.692-2.485 3.161-2.608l.034.02c.017.02-13.587-1.884-12.441-15.17Z" opacity=".98"/><path fill="#1A171B" d="M92.898 54.277c1.128-16.18 2.184 9.986 18.159 11.606-.966.803-2.615 2.192-4.025 3.507-7.985 7.414-10.821 5.656-4.85 2.324 2.866-1.602 3.693-2.486 3.161-2.608l.035.02c.016.018-13.376-1.819-12.48-14.849Z" opacity=".5"/></g><g opacity=".7"><path fill="#FAFAFA" d="M-1.958 91.212c17.278-6.676 14.483-8.809 14.483-8.809C8.096 79.38.589 75.318 20.166 58.484c2.14-1.79 5.386-4.016 8.937-6.258.12.08 16.742 45.492 16.571 45.643-19.902 16.562-6.508 28.537-50.264 45.435l-17.167-44.44s5.723-2.215 19.8-7.652Z" opacity=".02"/><path fill="#F5F5F5" d="M-1.957 91.212c17.278-6.676 14.482-8.809 14.482-8.809C8.131 79.4.624 75.338 20.015 58.62c1.87-1.502 5.236-3.648 8.834-5.762.24.177 16.718 45.293 16.376 45.595-19.58 16.294-6.574 28.156-49.833 44.851l-17.149-44.439s5.723-2.216 19.8-7.652Z" opacity=".039"/><path fill="#F0F0F0" d="M-1.957 91.212c17.278-6.676 14.482-8.809 14.482-8.809-4.378-2.967-11.868-7.027 7.356-23.649 1.62-1.23 5.07-3.28 8.73-5.264.362.256 16.714 45.094 16.202 45.53-19.24 16.027-6.64 27.756-49.384 44.267l-17.185-44.423s5.722-2.215 19.799-7.652Z" opacity=".059"/><path fill="#EBEBEB" d="M-1.957 91.213c17.278-6.677 14.482-8.81 14.482-8.81C8.182 79.457.692 75.397 19.728 58.89c1.353-.959 4.922-2.912 8.628-4.75.482.336 16.69 44.896 16.007 45.483-18.918 15.759-6.705 27.356-48.953 43.682l-17.166-44.44s5.722-2.215 19.799-7.651Z" opacity=".078"/><path fill="#E6E6E6" d="M-1.957 91.212c17.278-6.676 14.482-8.809 14.482-8.809-4.309-2.927-11.8-6.969 7.068-23.36 1.084-.688 4.756-2.546 8.525-4.253.603.414 16.684 44.697 15.83 45.434-18.596 15.493-6.77 26.958-48.52 43.081l-17.184-44.44s5.722-2.217 19.799-7.653Z" opacity=".098"/><path fill="#E1E1E1" d="M-1.957 91.212c17.278-6.676 14.482-8.809 14.482-8.809-4.274-2.907-11.764-6.949 6.916-23.227.816-.416 4.607-2.177 8.423-3.755.722.512 16.66 44.498 15.635 45.387-18.256 15.226-6.817 26.559-48.089 42.496l-17.166-44.44s5.723-2.215 19.799-7.652Z" opacity=".118"/><path fill="#DCDCDC" d="M-1.957 91.213c17.278-6.677 14.482-8.81 14.482-8.81-4.239-2.887-11.73-6.929 6.764-23.092.547-.128 4.441-1.81 8.302-3.26.844.591 16.637 44.299 15.459 45.34-17.933 14.941-6.883 26.177-47.64 41.913l-17.166-44.44s5.723-2.215 19.799-7.651Z" opacity=".137"/><path fill="#D7D7D7" d="M-1.958 91.213c17.278-6.677 14.483-8.81 14.483-8.81-4.223-2.868-11.697-6.89 6.63-22.957.296.145 4.292-1.441 8.2-2.763.963.671 16.631 44.084 15.263 45.293-17.594 14.673-6.948 25.777-47.208 41.328l-17.167-44.44s5.723-2.215 19.8-7.651Z" opacity=".157"/><path fill="#D2D2D2" d="M-1.957 91.212c17.278-6.676 14.483-8.809 14.483-8.809-4.188-2.848-11.662-6.87 6.477-22.822.029.415 4.126-1.075 8.096-2.248 1.084.768 16.609 43.883 15.07 45.226-17.271 14.406-7.013 25.378-46.776 40.744l-17.15-44.439s5.724-2.215 19.8-7.652Z" opacity=".176"/><path fill="#CDCDCD" d="M-1.957 91.213c17.278-6.677 14.483-8.81 14.483-8.81-4.154-2.827-11.629-6.832 6.342-22.669-.24.686 3.977-.706 7.993-1.75 1.205.847 16.603 43.685 14.894 45.179-16.95 14.138-7.06 24.979-46.344 40.141l-17.167-44.44s5.723-2.215 19.799-7.651Z" opacity=".196"/><path fill="#C8C8C8" d="M-1.957 91.212c17.278-6.676 14.482-8.809 14.482-8.809-4.119-2.807-11.611-6.813 6.19-22.535-.509.975 3.811-.338 7.891-1.254 1.344.928 16.58 43.487 14.7 45.132-16.61 13.872-7.126 24.58-45.896 39.558l-17.167-44.44s5.723-2.216 19.8-7.652Z" opacity=".216"/><path fill="#C3C3C3" d="M-1.957 91.212c17.278-6.676 14.483-8.809 14.483-8.809-4.084-2.787-11.578-6.775 6.038-22.4-.76 1.247 3.663.03 7.788-.758 1.463 1.026 16.556 43.288 14.523 45.085-16.287 13.586-7.192 24.199-45.464 38.974l-17.167-44.44s5.723-2.215 19.8-7.652Z" opacity=".235"/><path fill="#BEBEBE" d="M-1.957 91.212c17.278-6.676 14.482-8.809 14.482-8.809C8.458 79.635.982 75.648 18.43 60.138c-1.028 1.519 3.495.397 7.685-.26 1.584 1.105 16.55 43.089 14.328 45.037-15.965 13.318-7.257 23.799-45.033 38.389l-17.166-44.44s5.723-2.215 19.799-7.652Z" opacity=".255"/><path fill="#B9B9B9" d="M-1.957 91.213c17.278-6.677 14.482-8.81 14.482-8.81-4.032-2.748-11.51-6.717 5.753-22.13-1.296 1.789 3.347.765 7.583.237 1.704 1.184 16.526 42.89 14.134 44.97-15.625 13.052-7.322 23.4-44.601 37.805l-17.15-44.42s5.723-2.216 19.799-7.652Z" opacity=".275"/><path fill="#B4B4B4" d="M-1.957 91.213c17.278-6.677 14.482-8.81 14.482-8.81-3.997-2.728-11.475-6.697 5.618-21.977-1.565 2.06 3.18 1.132 7.479.752 1.825 1.263 16.52 42.692 13.957 44.923-15.303 12.785-7.369 23.002-44.15 37.204l-17.185-44.44s5.723-2.216 19.799-7.652Z" opacity=".294"/><path fill="#AFAFAF" d="M-1.957 91.213c17.278-6.677 14.482-8.81 14.482-8.81-3.963-2.708-11.441-6.659 5.466-21.843-1.816 2.35 3.032 1.501 7.376 1.249 1.945 1.36 16.497 42.493 13.763 44.876-14.964 12.518-7.434 22.602-43.72 36.619l-17.167-44.44s5.723-2.215 19.8-7.651Z" opacity=".314"/><path fill="#AAA" d="M-1.957 91.213c17.278-6.677 14.482-8.81 14.482-8.81-3.93-2.67-11.407-6.639 5.314-21.708-2.084 2.621 2.864 1.886 7.273 1.745 2.066 1.44 16.474 42.294 13.587 44.83-14.642 12.249-7.5 22.219-43.289 36.034l-17.166-44.44s5.723-2.215 19.799-7.651Z" opacity=".333"/><path fill="#A5A5A5" d="M-1.957 91.212c17.278-6.676 14.483-8.809 14.483-8.809-3.913-2.651-11.374-6.6 5.179-21.573-2.352 2.892 2.716 2.254 7.17 2.242 2.188 1.52 16.468 42.096 13.393 44.782-14.32 11.964-7.566 21.82-42.857 35.45l-17.167-44.44s5.723-2.216 19.799-7.652Z" opacity=".353"/><path fill="#A0A0A0" d="M-1.957 91.212c17.278-6.676 14.482-8.809 14.482-8.809-3.878-2.631-11.338-6.58 5.027-21.438-2.62 3.163 2.55 2.62 7.069 2.74 2.307 1.616 16.444 41.896 13.216 44.715-13.979 11.698-7.612 21.422-42.408 34.867l-17.185-44.423s5.723-2.215 19.799-7.652Z" opacity=".372"/><path fill="#9B9B9B" d="M-1.958 91.212c17.278-6.676 14.483-8.809 14.483-8.809-3.844-2.61-11.305-6.543 4.892-21.285-2.89 3.452 2.401 2.99 6.964 3.255 2.428 1.696 16.44 41.679 13.022 44.668-13.657 11.43-7.677 21.022-41.975 34.264l-17.185-44.44s5.723-2.216 19.8-7.653Z" opacity=".392"/><path fill="#969696" d="M-1.957 91.213c17.278-6.677 14.482-8.81 14.482-8.81-3.809-2.59-11.27-6.522 4.74-21.15-3.14 3.724 2.235 3.356 6.844 3.75 2.549 1.776 16.416 41.481 12.828 44.62-13.336 11.163-7.743 20.623-41.545 33.68l-17.148-44.439s5.722-2.215 19.799-7.651Z" opacity=".412"/><path fill="#919191" d="M-1.956 91.213c17.278-6.677 14.482-8.81 14.482-8.81-3.774-2.57-11.237-6.485 4.588-21.016-3.408 3.995 2.086 3.725 6.742 4.247 2.668 1.873 16.392 41.282 12.65 44.573-12.995 10.896-7.809 20.242-41.113 33.096l-17.149-44.439s5.723-2.215 19.8-7.651Z" opacity=".431"/><path fill="#8C8C8C" d="M-1.957 91.213c17.278-6.677 14.482-8.81 14.482-8.81-3.757-2.551-11.202-6.465 4.454-20.88-3.677 4.265 1.92 4.091 6.639 4.744 2.789 1.952 16.387 41.083 12.456 44.525C23.4 121.402 28.2 130.634-4.59 143.304l-17.167-44.44s5.723-2.215 19.8-7.651Z" opacity=".451"/><path fill="#878787" d="M-1.957 91.213c17.278-6.677 14.483-8.81 14.483-8.81-3.723-2.531-11.17-6.426 4.301-20.746-3.944 4.537 1.772 4.46 6.537 5.24 2.91 2.033 16.363 40.885 12.279 44.479-12.35 10.343-7.921 19.443-40.233 31.928l-17.166-44.44s5.723-2.215 19.799-7.651Z" opacity=".471"/><path fill="#828282" d="M-1.957 91.212c17.278-6.676 14.482-8.809 14.482-8.809-3.688-2.511-11.134-6.406 4.167-20.593-4.197 4.827 1.605 4.827 6.432 5.756 3.03 2.111 16.358 40.687 12.086 44.412-12.01 10.077-7.986 19.044-39.8 31.326l-17.167-44.44s5.723-2.216 19.8-7.652Z" opacity=".49"/><path fill="#7D7D7D" d="M-1.957 91.213c17.278-6.677 14.482-8.81 14.482-8.81-3.653-2.491-11.1-6.368 4.015-20.459-4.464 5.099 1.456 5.196 6.33 6.253 3.15 2.21 16.334 40.488 11.891 44.365-11.689 9.808-8.051 18.644-39.369 30.741l-17.148-44.439s5.723-2.215 19.799-7.651Z" opacity=".51"/><path fill="#787878" d="M-1.957 91.213c17.278-6.677 14.483-8.81 14.483-8.81-3.619-2.47-11.066-6.348 3.862-20.324-4.733 5.369 1.29 5.563 6.228 6.75 3.27 2.287 16.31 40.288 11.714 44.317-11.35 9.542-8.117 18.263-38.92 30.158l-17.166-44.44s5.723-2.215 19.799-7.651Z" opacity=".529"/><path fill="#737373" d="M-1.957 91.213c17.278-6.677 14.482-8.81 14.482-8.81-3.584-2.45-11.032-6.31 3.729-20.189-5.001 5.64 1.141 5.932 6.125 7.247 3.391 2.368 16.304 40.09 11.52 44.269-11.027 9.257-8.165 17.865-38.489 29.574l-17.166-44.44s5.723-2.215 19.799-7.651Z" opacity=".549"/><path fill="#6E6E6E" d="M-1.957 91.212c17.278-6.676 14.482-8.809 14.482-8.809-3.567-2.431-10.997-6.29 3.577-20.055-5.253 5.93.975 6.299 6.022 7.745 3.511 2.464 16.28 39.89 11.343 44.222-10.704 8.989-8.23 17.465-38.057 28.989l-17.167-44.44s5.723-2.216 19.8-7.652Z" opacity=".569"/><path fill="#696969" d="M-1.957 91.213c17.278-6.677 14.482-8.81 14.482-8.81-3.533-2.394-10.963-6.27 3.442-19.9-5.521 6.2.826 6.665 5.918 8.258 3.632 2.544 16.275 39.693 11.15 44.156-10.365 8.723-8.295 17.066-37.625 28.387l-17.166-44.44s5.722-2.215 19.799-7.651Z" opacity=".588"/><path fill="#646464" d="M-1.957 91.212c17.278-6.676 14.483-8.809 14.483-8.809-3.5-2.374-10.93-6.232 3.289-19.767-5.789 6.472.66 7.034 5.816 8.756 3.753 2.624 16.251 39.494 10.973 44.11-10.043 8.454-8.36 16.666-37.176 27.803l-17.184-44.44s5.723-2.217 19.799-7.653Z" opacity=".608"/><path fill="#5F5F5F" d="M-1.957 91.213c17.278-6.677 14.483-8.81 14.483-8.81C9.06 80.05 1.63 76.192 15.663 62.772c-6.057 6.743.512 7.402 5.713 9.253 3.873 2.72 16.23 39.276 10.779 44.061-9.721 8.187-8.426 16.285-36.744 27.219l-17.167-44.44s5.723-2.215 19.8-7.651Z" opacity=".627"/><path fill="#5A5A5A" d="M-1.958 91.213c17.278-6.677 14.483-8.81 14.483-8.81-3.43-2.333-10.861-6.173 3.003-19.497-6.307 7.015.345 7.77 5.61 9.75 4.012 2.801 16.224 39.078 10.584 44.013-9.38 7.921-8.473 15.886-36.312 26.635l-17.167-44.44s5.723-2.215 19.8-7.651Z" opacity=".647"/><path fill="#555" d="M-1.957 91.213c17.278-6.677 14.483-8.81 14.483-8.81C9.113 80.09 1.7 76.25 15.376 63.042c-6.576 7.304.198 8.138 5.509 10.246 4.132 2.881 16.2 38.879 10.407 43.967-9.058 7.635-8.538 15.487-35.881 26.05l-17.167-44.44s5.723-2.215 19.8-7.651Z" opacity=".667"/><path fill="#505050" d="M-1.957 91.213c17.278-6.677 14.482-8.81 14.482-8.81-3.378-2.294-10.792-6.116 2.716-19.209-6.845 7.575.03 8.523 5.388 10.742 4.253 2.96 16.194 38.681 10.213 43.901-8.735 7.367-8.603 15.087-35.43 25.449l-17.168-44.422s5.723-2.215 19.799-7.651Z" opacity=".686"/><path fill="#4B4B4B" d="M-1.957 91.212c17.278-6.676 14.482-8.809 14.482-8.809-3.343-2.274-10.758-6.096 2.564-19.075-7.113 7.846-.12 8.891 5.284 11.257 4.373 3.058 16.17 38.482 10.037 43.854-8.396 7.102-8.669 14.688-35 24.865l-17.167-44.44s5.723-2.215 19.8-7.652Z" opacity=".706"/><path fill="#464646" d="M-1.957 91.213c17.278-6.677 14.482-8.81 14.482-8.81-3.308-2.254-10.724-6.057 2.412-18.94-7.381 8.116-.285 9.258 5.182 11.754 4.493 3.136 16.147 38.283 9.842 43.806-8.074 6.833-8.717 14.307-34.569 24.28l-17.148-44.439s5.723-2.215 19.799-7.651Z" opacity=".726"/><path fill="#414141" d="M-1.957 91.213c17.278-6.677 14.483-8.81 14.483-8.81C9.25 80.17 1.836 76.367 14.803 63.6c-7.632 8.406-.434 9.625 5.08 12.25 4.613 3.216 16.14 38.085 9.647 43.758-7.735 6.567-8.782 13.908-34.137 23.696l-17.15-44.439s5.724-2.215 19.8-7.651Z" opacity=".745"/><path fill="#3C3C3C" d="M-1.957 91.213c17.279-6.677 14.483-8.81 14.483-8.81-3.257-2.215-10.656-5.999 2.126-18.67-7.901 8.678-.583 9.994 4.976 12.748 4.734 3.314 16.117 37.885 9.47 43.71-7.41 6.282-8.846 13.509-33.687 23.113l-17.167-44.44s5.723-2.215 19.8-7.651Z" opacity=".765"/><path fill="#373737" d="M-1.958 91.212c17.278-6.676 14.483-8.809 14.483-8.809-3.223-2.194-10.622-5.979 1.99-18.517-8.169 8.949-.749 10.362 4.874 13.245 4.855 3.393 16.112 37.687 9.276 43.663-7.09 6.013-8.912 13.108-33.255 22.51l-17.167-44.44s5.723-2.215 19.8-7.652Z" opacity=".784"/><path fill="#323232" d="M-1.957 91.213c17.278-6.677 14.482-8.81 14.482-8.81-3.188-2.174-10.588-5.94 1.839-18.383-8.438 9.22-.898 10.73 4.77 13.76 4.975 3.473 16.088 37.488 9.1 43.598-6.75 5.747-8.977 12.71-32.824 21.926l-17.166-44.44s5.722-2.215 19.799-7.651Z" opacity=".804"/><path fill="#2D2D2D" d="M-1.957 91.213c17.278-6.677 14.483-8.81 14.483-8.81-3.154-2.154-10.554-5.92 1.686-18.248-8.688 9.492-1.064 11.097 4.667 14.257 5.097 3.551 16.065 37.288 8.906 43.549-6.427 5.48-9.025 12.329-32.392 21.342l-17.15-44.439s5.724-2.215 19.8-7.651Z" opacity=".824"/><path fill="#282828" d="M-1.957 91.213c17.278-6.677 14.482-8.81 14.482-8.81-3.118-2.134-10.537-5.883 1.553-18.112-8.957 9.78-1.213 11.465 4.564 14.753 5.216 3.65 16.06 37.091 8.73 43.503-6.106 5.212-9.09 11.93-31.944 20.758l-17.185-44.44s5.723-2.216 19.8-7.652Z" opacity=".843"/><path fill="#232323" d="M-1.957 91.213c17.278-6.677 14.483-8.81 14.483-8.81-3.103-2.097-10.503-5.864 1.4-17.978-9.225 10.051-1.38 11.832 4.462 15.25 5.337 3.729 16.035 36.892 8.535 43.455-5.766 4.946-9.155 11.53-31.513 20.174l-17.166-44.44s5.723-2.215 19.799-7.651Z" opacity=".863"/><path fill="#1E1E1E" d="M-1.957 91.213c17.278-6.677 14.482-8.81 14.482-8.81-3.068-2.077-10.47-5.826 1.265-17.825-9.493 10.323-1.527 12.201 4.36 15.748 5.457 3.808 16.03 36.676 8.34 43.407-5.443 4.66-9.22 11.13-31.08 19.571l-17.167-44.44s5.723-2.215 19.8-7.651Z" opacity=".882"/><path fill="#191919" d="M-1.957 91.213c17.278-6.677 14.482-8.81 14.482-8.81-3.033-2.057-10.434-5.806 1.114-17.69-9.744 10.594-1.694 12.568 4.255 16.262 5.578 3.905 16.008 36.477 8.165 43.342-5.104 4.393-9.268 10.732-30.649 18.987l-17.166-44.44s5.723-2.215 19.799-7.651Z" opacity=".902"/><path fill="#141414" d="M-1.957 91.212c17.278-6.676 14.482-8.809 14.482-8.809-2.999-2.037-10.401-5.767.961-17.556-10.013 10.883-1.842 12.936 4.153 16.76 5.699 3.983 15.984 36.277 7.97 43.294-4.781 4.125-9.333 10.35-30.199 18.403l-17.167-44.44s5.723-2.215 19.8-7.652Z" opacity=".922"/></g><mask id="g" width="53" height="70" x="92" y="-1" maskUnits="userSpaceOnUse" style="mask-type:alpha"><path fill="url(#f)" d="M92.2 28.996c1.951-1.353 4.424-2.422 7.77-3.095 45.192-9.044 44.799-24.455 44.56-26.393.332 2.177 2.844 21.945-9.098 37.58-8.442 11.034-6.396 18.316-6.396 18.316s-9.824 2.896-21.455 13.517L92.2 28.996Z" opacity=".6"/></mask><mask id="i" width="60" height="86" x="7" y="35" maskUnits="userSpaceOnUse" style="mask-type:alpha"><path fill="url(#h)" d="M29.952 120.046c-2.463-10.111-9.806-33.359-18.909-38.633-9.102-5.274-.22-14.43 9.241-23.065 9.46-8.617 51.53-33.672 45.357-17.518-6.19 16.154-10.743 30.216-6.418 42.744 2.558 7.42 7.535 9.994 7.535 9.994s-1.498-1.333-14.267 4.454C37.188 105 33.847 114.284 29.952 120.046Z" opacity=".6"/></mask><g mask="url(#i)" opacity=".6"><path fill="url(#j)" d="M29.952 120.046c-2.464-10.111-9.807-33.359-18.91-38.633-9.102-5.274-.22-14.43 9.241-23.065 9.46-8.617 51.53-33.672 45.357-17.518-6.19 16.154-10.743 30.216-6.418 42.744 2.558 7.42 7.535 9.994 7.535 9.994s-1.497-1.333-14.266 4.454C37.187 105 33.847 114.284 29.95 120.046Z" opacity=".6"/><g opacity=".4"><path fill="#211E22" d="M47.77 65.175c5.311-15.29 8.571-9.93 9.416-4.143.126.871.198 1.738.203 2.53.119 7.359-.271 13.95 1.943 20.252l.232.608c2.396 6.26 6.585 8.803 7.21 9.148-1.198-.38-4.105.446-6.712 1.363-2.624.915-4.932 1.923-4.932 1.923s-2.213-1.396-4.415-4.696a24.706 24.706 0 0 1-2.73-5.508c-1.16-3.325-1.84-6.837-1.922-10.437-.1-3.62.418-7.344 1.707-11.04Z" opacity=".032"/><path fill="#29262A" d="M48.05 65.588c5.156-14.815 8.318-9.622 9.198-3.815.127.853.2 1.702.206 2.475.146 7.218-.162 13.652 2.008 19.79.077.203.155.406.215.589 2.388 6.098 6.473 8.58 7.08 8.923-1.18-.36-4.032.434-6.582 1.318-2.57.883-4.84 1.874-4.84 1.874s-2.178-1.375-4.366-4.62a23.877 23.877 0 0 1-2.682-5.415c-1.145-3.271-1.83-6.711-1.914-10.275-.07-3.51.43-7.236 1.677-10.844Z" opacity=".065"/><path fill="#302D31" d="M48.312 66c4.983-14.341 8.083-9.295 8.963-3.488.128.835.202 1.666.21 2.421.172 7.075-.073 13.351 2.09 19.328.076.203.137.386.214.589 2.361 5.952 6.379 8.376 6.969 8.7-1.163-.36-3.94.403-6.455 1.272-2.514.868-4.729 1.828-4.729 1.828s-2.143-1.356-4.3-4.527c-.954-1.407-1.886-3.173-2.651-5.324-1.13-3.216-1.819-6.602-1.906-10.113-.092-3.457.39-7.166 1.595-10.686Z" opacity=".097"/><path fill="#383538" d="M48.59 66.431c4.812-13.884 7.83-8.97 8.744-3.143.13.817.187 1.63.213 2.368.2 6.915 0 13.068 2.155 18.865.078.184.138.386.216.57 2.335 5.789 6.266 8.154 6.857 8.479-1.145-.36-3.868.389-6.308 1.226a69.128 69.128 0 0 0-4.636 1.78s-2.11-1.336-4.233-4.451a23.104 23.104 0 0 1-2.622-5.232c-1.116-3.143-1.79-6.474-1.9-9.932-.11-3.423.332-7.098 1.515-10.53Z" opacity=".129"/><path fill="#3F3C40" d="M48.87 66.844c4.62-13.41 7.594-8.643 8.508-2.816.131.781.19 1.575.216 2.314.227 6.773.108 12.77 2.236 18.42.079.185.139.368.217.553 2.31 5.643 6.155 7.931 6.727 8.255-1.127-.358-3.795.376-6.18 1.18-2.403.822-4.543 1.731-4.543 1.731s-2.075-1.296-4.165-4.374c-.922-1.352-1.84-3.062-2.591-5.14-1.102-3.088-1.78-6.348-1.892-9.77-.116-3.35.308-7.01 1.467-10.353Z" opacity=".161"/><path fill="#464447" d="M49.132 67.255c4.43-12.937 7.34-8.316 8.29-2.487.132.763.193 1.54.22 2.26.253 6.631.198 12.47 2.3 17.957.078.184.14.368.219.534 2.3 5.482 6.041 7.728 6.613 8.05-1.109-.356-3.704.364-6.034 1.154-2.366.806-4.434 1.703-4.434 1.703s-2.04-1.277-4.098-4.3a22.592 22.592 0 0 1-2.56-5.047c-1.09-3.016-1.77-6.24-1.885-9.608-.136-3.316.252-6.96 1.37-10.216Z" opacity=".194"/><path fill="#4E4B4E" d="M49.41 67.686c4.257-12.463 7.087-7.99 8.054-2.143.115.744.194 1.504.223 2.207.281 6.47.288 12.17 2.383 17.494.06.184.14.35.22.517 2.274 5.319 5.946 7.506 6.501 7.827-1.093-.337-3.63.332-5.906 1.108a60.7 60.7 0 0 0-4.34 1.654s-2.007-1.256-4.032-4.222a22.976 22.976 0 0 1-2.53-4.957 31.314 31.314 0 0 1-1.877-9.428c-.139-3.28.21-6.889 1.305-10.057Z" opacity=".226"/><path fill="#555356" d="M49.672 68.098c4.083-11.988 6.851-7.664 7.818-1.816.116.726.196 1.468.226 2.153.308 6.328.378 11.87 2.448 17.03.061.166.14.333.22.5 2.248 5.172 5.835 7.282 6.372 7.603-1.075-.336-3.557.32-5.76 1.063-2.255.759-4.247 1.606-4.247 1.606s-1.971-1.236-3.982-4.147c-.89-1.278-1.779-2.897-2.5-4.865a30.517 30.517 0 0 1-1.87-9.266c-.108-3.188.223-6.78 1.275-9.861Z" opacity=".258"/><path fill="#5C5A5D" d="M49.953 68.51c3.911-11.53 6.598-7.355 7.599-1.47.118.71.199 1.433.229 2.1.336 6.169.47 11.57 2.53 16.568.062.166.141.333.221.5 2.222 5.009 5.722 7.077 6.26 7.38-1.057-.335-3.467.307-5.63 1.018-2.201.726-4.139 1.559-4.139 1.559s-1.935-1.218-3.914-4.072c-.874-1.259-1.746-2.841-2.47-4.773a30.536 30.536 0 0 1-1.861-9.103c-.148-3.137.164-6.713 1.175-9.706Z" opacity=".29"/><path fill="#646265" d="M50.23 68.942c3.739-11.057 6.345-7.03 7.363-1.144.12.69.183 1.396.233 2.046.38 6.027.56 11.27 2.595 16.105.061.166.142.315.204.48 2.214 4.847 5.61 6.855 6.148 7.158-1.04-.334-3.394.275-5.484.973-2.146.711-4.045 1.51-4.045 1.51s-1.902-1.196-3.848-3.995c-.857-1.24-1.713-2.785-2.44-4.681-1.032-2.761-1.71-5.75-1.854-8.923-.15-3.084.14-6.625 1.129-9.53Z" opacity=".323"/><path fill="#6B696C" d="M50.493 69.353c3.565-10.582 6.09-6.705 7.145-.815.12.672.185 1.36.235 1.992.408 5.885.669 10.97 2.678 15.643.062.165.142.315.205.462 2.189 4.683 5.516 6.633 6.018 6.935-1.022-.316-3.303.262-5.356.943-2.108.678-3.953 1.463-3.953 1.463s-1.867-1.159-3.78-3.92a20.652 20.652 0 0 1-2.39-4.606 29.23 29.23 0 0 1-1.847-8.76c-.156-2.994.098-6.52 1.045-9.337Z" opacity=".355"/><path fill="#737173" d="M50.773 69.766c3.392-10.108 5.855-6.378 6.908-.47.121.654.187 1.323.239 1.938.436 5.725.758 10.67 2.742 15.18.063.147.143.296.206.444 2.18 4.539 5.404 6.429 5.907 6.712-1.005-.315-3.231.249-5.21.899-2.054.663-3.842 1.415-3.842 1.415s-1.834-1.138-3.714-3.843a20.57 20.57 0 0 1-2.36-4.514c-.986-2.632-1.67-5.515-1.838-8.599-.197-2.924.038-6.415.962-9.162Z" opacity=".387"/><path fill="#7A787B" d="M51.033 70.195c3.219-9.633 5.602-6.052 6.672-.143.123.637.19 1.288.243 1.884.463 5.583.849 10.371 2.825 14.718.062.148.143.297.207.426 2.153 4.376 5.29 6.207 5.794 6.49-.986-.313-3.157.235-5.081.853-1.997.631-3.749 1.367-3.749 1.367s-1.798-1.118-3.646-3.768a19.454 19.454 0 0 1-2.33-4.422 28.873 28.873 0 0 1-1.832-8.418c-.182-2.87.015-6.345.897-8.987Z" opacity=".419"/><path fill="#818082" d="M51.313 70.608c3.046-9.158 5.347-5.726 6.453.203.124.618.192 1.252.246 1.83.49 5.441.939 10.072 2.89 14.254.062.148.143.28.207.409 2.127 4.23 5.18 5.983 5.665 6.266-.968-.312-3.066.205-4.953.806-1.942.617-3.657 1.337-3.657 1.337s-1.764-1.097-3.598-3.674a19.772 19.772 0 0 1-2.3-4.33 27.63 27.63 0 0 1-1.824-8.257c-.166-2.832.013-6.29.871-8.844Z" opacity=".452"/><path fill="#898789" d="M51.594 71.021c2.872-8.684 5.093-5.4 6.217.53.107.6.194 1.216.232 1.776.517 5.28 1.046 9.789 2.971 13.791.064.13.127.278.208.409 2.12 4.068 5.085 5.78 5.553 6.043-.952-.293-2.993.191-4.806.762a50.295 50.295 0 0 0-3.547 1.29s-1.729-1.078-3.53-3.598a18.93 18.93 0 0 1-2.27-4.24 26.938 26.938 0 0 1-1.816-8.094c-.189-2.761-.03-6.185.788-8.669Z" opacity=".484"/><path fill="#908F91" d="M51.854 71.45c2.7-8.209 4.84-5.074 6 .858.107.582.178 1.18.234 1.723.544 5.138 1.137 9.489 3.036 13.328.064.13.128.26.21.39 2.093 3.905 4.972 5.558 5.44 5.82-.933-.291-2.92.179-4.679.735-1.849.568-3.453 1.241-3.453 1.241s-1.696-1.04-3.464-3.522a19.265 19.265 0 0 1-2.24-4.147 26.668 26.668 0 0 1-1.809-7.914c-.19-2.726-.05-6.133.725-8.511Z" opacity=".516"/><path fill="#989698" d="M52.134 71.864c2.526-7.735 4.588-4.767 5.763 1.202.109.564.18 1.143.238 1.669.552 4.995 1.227 9.189 3.119 12.866.064.13.128.241.192.371 2.066 3.76 4.86 5.335 5.329 5.597-.934-.291-2.83.166-4.533.69a42.775 42.775 0 0 0-3.343 1.195s-1.66-1.02-3.396-3.447a18.894 18.894 0 0 1-2.21-4.055 26.133 26.133 0 0 1-1.8-7.752c-.214-2.655-.111-6.046.641-8.336Z" opacity=".548"/><path fill="#9F9E9F" d="M52.396 72.275c2.354-7.278 4.334-4.44 5.544 1.53.11.547.184 1.108.242 1.615.58 4.836 1.317 8.89 3.183 12.403.064.13.13.242.194.354 2.04 3.596 4.747 5.13 5.199 5.373-.916-.29-2.756.135-4.404.644-1.739.521-3.25 1.147-3.25 1.147s-1.627-1-3.33-3.37a19.308 19.308 0 0 1-2.179-3.965 25.424 25.424 0 0 1-1.793-7.588c-.183-2.565-.118-5.922.594-8.143Z" opacity=".581"/><path fill="#A6A5A7" d="M52.675 72.706c2.18-6.803 4.08-4.115 5.309 1.857.11.529.185 1.072.244 1.561.608 4.694 1.426 8.591 3.266 11.94l.195.337c2.032 3.433 4.653 4.908 5.087 5.15-.898-.289-2.666.123-4.258.599-1.683.507-3.157 1.099-3.157 1.099s-1.592-.98-3.28-3.295c-.746-1.017-1.492-2.304-2.131-3.872a25.631 25.631 0 0 1-1.786-7.427c-.222-2.494-.177-5.835.51-7.949Z" opacity=".613"/><path fill="#AEADAE" d="M52.953 73.119c2.008-6.329 3.827-3.79 5.073 2.202.112.51.187 1.036.247 1.507.653 4.553 1.517 8.291 3.33 11.477l.196.336c2.005 3.288 4.54 4.686 4.975 4.929-.881-.27-2.593.108-4.129.552-1.628.475-3.047 1.051-3.047 1.051s-1.557-.959-3.213-3.219a17.733 17.733 0 0 1-2.1-3.779 25.135 25.135 0 0 1-1.78-7.247c-.224-2.458-.198-5.782.448-7.809Z" opacity=".645"/><path fill="#B5B4B5" d="M53.215 73.53c1.854-5.852 3.573-3.463 4.854 2.53.114.493.19 1 .252 1.454.68 4.392 1.607 7.991 3.413 11.015.065.112.131.206.196.318 1.98 3.125 4.428 4.481 4.845 4.705-.863-.27-2.519.077-3.983.508-1.573.459-2.953 1.003-2.953 1.003s-1.523-.94-3.146-3.143a18.133 18.133 0 0 1-2.07-3.688 24.22 24.22 0 0 1-1.771-7.084c-.249-2.37-.243-5.66.364-7.617Z" opacity=".677"/><path fill="#BDBCBD" d="M53.494 73.961c1.68-5.378 3.32-3.138 4.618 2.875.096.473.173.963.254 1.4.707 4.25 1.715 7.692 3.478 10.552.066.094.131.205.197.3 1.954 2.96 4.316 4.258 4.733 4.482-.845-.269-2.428.064-3.855.479-1.536.444-2.862.973-2.862.973s-1.489-.9-3.079-3.067a17.253 17.253 0 0 1-2.04-3.596 24.216 24.216 0 0 1-1.763-6.922c-.231-2.35-.262-5.625.32-7.476Z" opacity=".71"/><path fill="#C4C3C4" d="M53.756 74.373c1.507-4.904 3.066-2.812 4.4 3.203.097.456.177.91.258 1.346.734 4.09 1.805 7.392 3.56 10.09l.198.281c1.945 2.817 4.222 4.037 4.622 4.26-.828-.268-2.357.051-3.71.434-1.48.412-2.75.927-2.75.927s-1.455-.881-3.013-2.991a17.743 17.743 0 0 1-2.01-3.504 23.362 23.362 0 0 1-1.755-6.742c-.272-2.282-.34-5.54.2-7.304Z" opacity=".742"/><path fill="#CBCBCC" d="M54.036 74.786c1.352-4.428 2.813-2.486 4.164 3.53.098.437.18.874.261 1.292.761 3.948 1.896 7.092 3.624 9.644.066.094.132.188.2.264 1.919 2.654 4.11 3.814 4.49 4.035-.81-.247-2.265.04-3.58.39-1.425.397-2.658.877-2.658.877s-1.42-.86-2.946-2.897a17.347 17.347 0 0 1-1.98-3.412 23.18 23.18 0 0 1-1.748-6.58c-.257-2.227-.345-5.45.173-7.143Z" opacity=".774"/><path fill="#D3D2D3" d="M54.315 75.216c1.178-3.953 2.54-2.161 3.926 3.875.1.42.182.838.265 1.239.788 3.805 2.004 6.793 3.706 9.182.066.094.133.17.182.244 1.893 2.509 3.998 3.61 4.38 3.814-.793-.248-2.191.007-3.451.343-1.37.364-2.566.83-2.566.83s-1.385-.841-2.897-2.823a16.45 16.45 0 0 1-1.95-3.32c-.803-1.812-1.443-3.955-1.74-6.418-.224-2.171-.331-5.377.145-6.966Z" opacity=".806"/><path fill="#DADADA" d="M54.577 75.628c1.023-3.478 2.287-1.835 3.709 4.203.1.401.183.802.267 1.185.817 3.646 2.095 6.493 3.771 8.718.067.076.135.152.183.245 1.866 2.345 3.885 3.387 4.267 3.608-.776-.246-2.12-.005-3.306.299-1.314.35-2.455.782-2.455.782s-1.35-.82-2.83-2.746a16.925 16.925 0 0 1-1.919-3.228 21.682 21.682 0 0 1-1.733-6.238c-.263-2.138-.39-5.31.046-6.828Z" opacity=".839"/><path fill="#E1E1E2" d="M54.856 76.04c.851-3.002 2.016-1.51 3.472 4.548.103.384.187.767.272 1.132.843 3.503 2.203 6.194 3.853 8.256.067.076.116.151.184.227 1.84 2.181 3.79 3.165 4.137 3.384-.758-.245-2.029-.018-3.178.27-1.277.317-2.363.735-2.363.735s-1.316-.783-2.761-2.67a16.555 16.555 0 0 1-1.89-3.137c-.775-1.702-1.405-3.7-1.725-6.075-.248-2.083-.413-5.239 0-6.67Z" opacity=".871"/><path fill="#E9E9E9" d="M55.117 76.47c.695-2.527 1.762-1.185 3.254 4.876.085.365.17.73.275 1.078.888 3.345 2.293 5.894 3.918 7.792l.184.21c1.832 2.036 3.678 2.96 4.025 3.161-.74-.243-1.955-.05-3.032.225-1.221.302-2.269.687-2.269.687s-1.282-.762-2.695-2.594a15.563 15.563 0 0 1-1.84-3.044c-.762-1.63-1.395-3.592-1.718-5.913-.271-2.012-.472-5.152-.102-6.477Z" opacity=".903"/><path fill="#F0F0F0" d="M55.397 76.883c.539-2.034 1.49-.842 3.019 5.203.086.347.172.694.277 1.024.916 3.202 2.403 5.577 4 7.33.069.059.118.133.187.192 1.805 1.873 3.566 2.737 3.912 2.938-.722-.224-1.881-.062-2.903.18-1.166.269-2.159.639-2.159.639s-1.246-.742-2.627-2.518c-.617-.775-1.239-1.748-1.811-2.952-.747-1.574-1.366-3.464-1.71-5.733-.294-1.942-.514-5.047-.185-6.303Z" opacity=".935"/><path fill="#F8F8F8" d="M55.677 77.296c.383-1.558 1.217-.517 2.8 5.548.087.33.174.659.28.97.942 3.061 2.493 5.279 4.065 6.868.069.058.119.115.187.173 1.78 1.728 3.454 2.515 3.802 2.717-.705-.224-1.792-.076-2.757.134-1.111.254-2.066.59-2.066.59s-1.213-.721-2.56-2.44a14.899 14.899 0 0 1-1.782-2.861c-.733-1.502-1.354-3.356-1.702-5.57-.333-1.873-.555-4.96-.267-6.129Z" opacity=".968"/><path fill="#fff" d="M62.19 94.22s-1.178-.702-2.512-2.367c-1.334-1.664-2.823-4.291-3.445-8.177-.3-1.834-.542-4.887-.295-5.968.247-1.081.946-.193 2.564 5.875.932 3.51 2.849 5.911 4.6 7.494 1.754 1.565 3.36 2.311 3.672 2.493-1.497-.47-4.584.65-4.584.65Z" opacity=".4"/></g><g opacity=".2"><path fill="#050505" d="M39.712 45.065c3.297-1.9 6.62-3.652 9.747-5.13 3.904-1.843 7.494-3.256 10.336-3.925-5.108 5.058-8.211 10.51-10.061 16.022-.198.58-.379 1.18-.558 1.763-1.76 6.074-2.08 12.112-1.99 17.636.215 11.032 2.143 19.924-2.255 22.491-4.938 2.876-10.496-3.365-15.86-10.726-.347-.47-.694-.96-1.041-1.45-2.38-3.328-4.717-6.78-6.928-9.65-3.06-3.947-5.866-6.781-8.267-6.589 1.892-2.129 4.375-4.528 7.6-7.294 4.592-3.975 11.866-8.899 19.277-13.148Z" opacity=".02"/><path fill="#0A0A0A" d="M39.527 45.16c3.26-1.882 6.565-3.636 9.655-5.098 3.867-1.828 7.439-3.242 10.264-3.912-5.068 4.989-8.152 10.406-9.998 15.864a31.863 31.863 0 0 0-.54 1.746c-1.737 6.022-2.055 12.024-1.945 17.496.219 10.978 2.168 19.817-2.173 22.334-4.862 2.826-10.33-3.445-15.658-10.786-.348-.47-.695-.96-1.042-1.449-2.362-3.327-4.682-6.761-6.877-9.594-3.027-3.908-5.837-6.67-8.24-6.46 1.873-2.096 4.32-4.478 7.505-7.193 4.587-3.886 11.766-8.743 19.049-12.947Z" opacity=".039"/><path fill="#0F0F0F" d="M39.358 45.276c3.24-1.866 6.51-3.605 9.582-5.068 3.83-1.83 7.364-3.21 10.173-3.899-5.047 4.936-8.091 10.302-9.918 15.725a35.851 35.851 0 0 0-.538 1.729c-1.716 5.969-2.03 11.917-1.918 17.353.222 10.906 2.174 19.71-2.075 22.196-4.771 2.797-10.182-3.507-15.44-10.825-.348-.471-.677-.959-1.025-1.43-2.346-3.31-4.649-6.724-6.828-9.537-3.012-3.854-5.806-6.58-8.21-6.334 1.852-2.078 4.278-4.408 7.408-7.108 4.514-3.854 11.6-8.664 18.79-12.802Z" opacity=".059"/><path fill="#141414" d="M39.19 45.374c3.204-1.85 6.455-3.59 9.508-5.037 3.794-1.814 7.292-3.197 10.084-3.904-5.007 4.866-8.05 10.196-9.838 15.585a31.28 31.28 0 0 0-.538 1.729c-1.694 5.899-2.006 11.811-1.872 17.194.245 10.837 2.198 19.604-1.994 22.04-4.696 2.747-10.034-3.57-15.24-10.867-.348-.471-.677-.959-1.007-1.429-2.31-3.307-4.596-6.702-6.777-9.48-2.996-3.817-5.776-6.487-8.182-6.206 1.832-2.043 4.22-4.358 7.312-7.006 4.473-3.785 11.448-8.53 18.544-12.62Z" opacity=".078"/><path fill="#191919" d="M39.023 45.471c3.185-1.833 6.398-3.557 9.435-5.023 3.757-1.798 7.22-3.183 10.011-3.891-4.968 4.815-7.989 10.092-9.775 15.446-.196.563-.358 1.146-.537 1.71-1.673 5.847-1.964 11.706-1.846 17.053.25 10.764 2.225 19.479-1.912 21.9-4.623 2.716-9.87-3.63-15.023-10.907-.33-.47-.678-.94-1.007-1.429-2.293-3.287-4.56-6.681-6.726-9.423-2.963-3.778-5.747-6.396-8.156-6.06 1.814-2.027 4.182-4.306 7.234-6.903 4.417-3.753 11.299-8.43 18.302-12.473Z" opacity=".098"/><path fill="#1E1E1E" d="M38.854 45.586a134.23 134.23 0 0 1 9.361-4.991c3.72-1.783 7.165-3.17 9.92-3.879-4.946 4.762-7.927 9.988-9.694 15.307-.178.564-.357 1.128-.518 1.694-1.651 5.793-1.939 11.6-1.819 16.91.272 10.694 2.231 19.372-1.813 21.746-4.547 2.666-9.721-3.695-14.82-10.968-.33-.47-.661-.94-.99-1.427-2.275-3.287-4.528-6.644-6.676-9.366-2.949-3.724-5.716-6.305-8.128-5.933 1.793-1.992 4.124-4.238 7.138-6.801 4.36-3.703 11.13-8.316 18.039-12.292Z" opacity=".118"/><path fill="#232323" d="M38.686 45.684c3.13-1.82 6.288-3.51 9.287-4.96 3.684-1.767 7.092-3.156 9.83-3.867-4.906 4.693-7.867 9.884-9.614 15.169-.178.564-.356 1.11-.516 1.675-1.63 5.741-1.916 11.512-1.775 16.77.275 10.64 2.256 19.265-1.733 21.606-4.472 2.617-9.556-3.756-14.62-11.009l-.99-1.409c-2.26-3.268-4.476-6.624-6.627-9.31-2.915-3.685-5.686-6.212-8.1-5.804 1.774-1.958 4.085-4.187 7.043-6.7 4.323-3.687 11.016-8.233 17.815-12.16Z" opacity=".137"/><path fill="#282828" d="M38.519 45.781c3.093-1.803 6.233-3.496 9.195-4.93 3.647-1.75 7.018-3.124 9.758-3.853-4.886 4.64-7.827 9.797-9.552 15.03a56.89 56.89 0 0 0-.516 1.657c-1.609 5.688-1.891 11.405-1.747 16.626.297 10.57 2.28 19.16-1.634 21.452-4.399 2.585-9.408-3.82-14.402-11.05-.33-.47-.643-.938-.973-1.408-2.222-3.266-4.442-6.585-6.575-9.252-2.9-3.63-5.638-6.12-8.072-5.677 1.754-1.941 4.027-4.119 6.947-6.616 4.265-3.618 10.864-8.098 17.57-11.979Z" opacity=".157"/><path fill="#2D2D2D" d="M38.35 45.897c3.073-1.787 6.177-3.464 9.121-4.899 3.61-1.753 6.946-3.11 9.669-3.858-4.847 4.588-7.767 9.692-9.47 14.871-.178.547-.356 1.093-.499 1.66-1.588 5.635-1.849 11.3-1.703 16.485.302 10.499 2.287 19.052-1.553 21.313-4.324 2.536-9.26-3.882-14.201-11.11-.312-.468-.642-.938-.955-1.406-2.205-3.247-4.407-6.566-6.541-9.214-2.885-3.595-5.608-6.029-8.044-5.55 1.734-1.906 3.987-4.067 6.869-6.513 4.207-3.55 10.693-7.947 17.306-11.78Z" opacity=".176"/><path fill="#323232" d="M38.182 45.994c3.037-1.77 6.123-3.449 9.048-4.867 3.574-1.738 6.891-3.096 9.578-3.846-4.806 4.52-7.706 9.588-9.39 14.733-.177.546-.337 1.093-.496 1.64-1.567 5.584-1.825 11.194-1.677 16.344.307 10.427 2.312 18.947-1.454 21.176-4.232 2.505-9.096-3.944-13.984-11.15-.312-.469-.625-.92-.955-1.39-2.188-3.245-4.374-6.526-6.492-9.156-2.87-3.54-5.577-5.936-8.016-5.422 1.716-1.89 3.93-3.999 6.773-6.411 4.152-3.536 10.545-7.866 17.065-11.65Z" opacity=".196"/><path fill="#373737" d="M38.014 46.092a143.434 143.434 0 0 1 8.975-4.854c3.537-1.722 6.819-3.083 9.487-3.834-4.784 4.467-7.645 9.484-9.327 14.593a55.512 55.512 0 0 0-.495 1.623c-1.546 5.53-1.8 11.087-1.65 16.201.328 10.375 2.336 18.84-1.373 21.019-4.157 2.456-8.948-4.006-13.783-11.191-.313-.469-.626-.92-.938-1.389-2.153-3.224-4.32-6.505-6.441-9.099-2.837-3.501-5.547-5.845-7.99-5.277 1.696-1.854 3.891-3.947 6.678-6.309 4.148-3.481 10.447-7.746 16.857-11.483Z" opacity=".216"/><path fill="#3C3C3C" d="M37.846 46.207a135.953 135.953 0 0 1 8.901-4.822c3.5-1.707 6.746-3.07 9.414-3.82-4.744 4.397-7.603 9.378-9.246 14.453a26.843 26.843 0 0 0-.477 1.606c-1.524 5.478-1.776 11-1.605 16.061.332 10.303 2.344 18.714-1.292 20.88-4.084 2.425-8.783-4.068-13.582-11.25a37.05 37.05 0 0 1-.92-1.388c-2.135-3.224-4.288-6.468-6.391-9.042-2.822-3.447-5.517-5.753-7.961-5.15 1.675-1.82 3.832-3.879 6.58-6.207 4.057-3.433 10.263-7.65 16.579-11.32Z" opacity=".235"/><path fill="#414141" d="M37.678 46.305a142.54 142.54 0 0 1 8.828-4.792c3.463-1.69 6.672-3.037 9.325-3.825-4.723 4.344-7.543 9.275-9.166 14.315a26.313 26.313 0 0 0-.476 1.588C44.687 59 44.455 64.485 44.611 69.51c.354 10.232 2.368 18.608-1.193 20.724-4.009 2.375-8.635-4.131-13.364-11.29-.314-.452-.608-.92-.921-1.37-2.119-3.206-4.253-6.448-6.34-8.986-2.807-3.41-5.487-5.661-7.934-5.022 1.657-1.802 3.793-3.827 6.504-6.122 3.998-3.365 10.092-7.517 16.315-11.14Z" opacity=".255"/><path fill="#464646" d="M37.51 46.402c2.926-1.724 5.9-3.355 8.754-4.76 3.408-1.676 6.617-3.023 9.234-3.813-4.684 4.293-7.483 9.17-9.103 14.175a26.181 26.181 0 0 0-.476 1.589c-1.481 5.354-1.71 10.787-1.55 15.758.358 10.16 2.392 18.501-1.113 20.585-3.935 2.344-8.468-4.21-13.164-11.332-.295-.45-.608-.919-.903-1.369-2.083-3.203-4.201-6.408-6.29-8.928-2.773-3.372-5.439-5.568-7.905-4.894 1.636-1.768 3.735-3.76 6.407-6.02 3.978-3.33 9.978-7.417 16.109-10.991Z" opacity=".275"/><path fill="#4B4B4B" d="M37.342 46.517a154.343 154.343 0 0 1 8.662-4.73c3.371-1.66 6.544-3.009 9.162-3.8-4.644 4.225-7.423 9.067-9.024 14.038-.176.528-.316 1.04-.474 1.57-1.46 5.302-1.685 10.68-1.506 15.617.363 10.089 2.4 18.394-1.013 20.43-3.86 2.294-8.303-4.272-12.963-11.392-.295-.45-.59-.917-.885-1.367-2.066-3.184-4.166-6.388-6.24-8.872-2.758-3.317-5.408-5.476-7.877-4.767 1.618-1.75 3.696-3.707 6.312-5.917 3.92-3.28 9.826-7.282 15.846-10.81Z" opacity=".294"/><path fill="#505050" d="M37.173 46.615c2.889-1.69 5.809-3.307 8.589-4.698 3.336-1.663 6.472-2.996 9.07-3.788-4.622 4.171-7.361 8.963-8.94 13.88a49.88 49.88 0 0 0-.456 1.553c-1.439 5.25-1.66 10.575-1.479 15.476.384 10.036 2.424 18.288-.933 20.29-3.785 2.246-8.155-4.334-12.745-11.431-.295-.45-.59-.9-.885-1.368-2.048-3.183-4.132-6.35-6.19-8.814-2.742-3.28-5.377-5.385-7.849-4.621 1.597-1.717 3.638-3.64 6.215-5.817 3.865-3.247 9.677-7.183 15.603-10.662Z" opacity=".314"/><path fill="#555" d="M37.006 46.712a153.616 153.616 0 0 1 8.515-4.667c3.299-1.647 6.398-2.964 8.98-3.775-4.583 4.12-7.32 8.858-8.879 13.74a49.042 49.042 0 0 0-.454 1.536c-1.417 5.197-1.62 10.487-1.434 15.334.388 9.965 2.448 18.182-.852 20.134-3.693 2.215-8.007-4.397-12.544-11.474-.296-.45-.573-.898-.869-1.348-2.03-3.163-4.098-6.33-6.139-8.757-2.71-3.224-5.349-5.275-7.822-4.494 1.578-1.7 3.599-3.587 6.137-5.713 3.827-3.214 9.527-7.085 15.36-10.516Z" opacity=".333"/><path fill="#5A5A5A" d="M36.837 46.828a151.715 151.715 0 0 1 8.442-4.654c3.262-1.631 6.343-2.95 8.91-3.78-4.562 4.05-7.26 8.754-8.8 13.602a62.686 62.686 0 0 0-.453 1.517c-1.396 5.145-1.594 10.381-1.407 15.192.411 9.895 2.456 18.057-.753 19.997-3.619 2.166-7.842-4.46-12.327-11.514-.277-.449-.573-.899-.85-1.347-1.995-3.162-4.046-6.309-6.088-8.719-2.694-3.186-5.318-5.183-7.794-4.366 1.558-1.664 3.541-3.519 6.042-5.629 3.732-3.13 9.356-6.933 15.078-10.3Z" opacity=".353"/><path fill="#5F5F5F" d="M36.67 46.925c2.797-1.66 5.643-3.245 8.368-4.622 3.227-1.633 6.27-2.936 8.819-3.767-4.523 3.998-7.2 8.649-8.736 13.461a21.365 21.365 0 0 0-.436 1.519c-1.375 5.092-1.57 10.275-1.38 15.05.415 9.822 2.48 17.95-.672 19.84-3.545 2.134-7.694-4.523-12.125-11.574-.278-.449-.573-.898-.85-1.347-1.98-3.143-4.013-6.27-6.038-8.661-2.662-3.131-5.288-5.092-7.766-4.239 1.538-1.63 3.502-3.468 5.946-5.527 3.729-3.077 9.24-6.815 14.87-10.133Z" opacity=".372"/><path fill="#646464" d="M36.502 47.022c2.778-1.643 5.587-3.212 8.295-4.59 3.19-1.618 6.198-2.923 8.728-3.755-4.482 3.928-7.139 8.545-8.656 13.322-.156.494-.295.989-.434 1.501-1.354 5.04-1.546 10.169-1.336 14.91.438 9.751 2.505 17.843-.573 19.7-3.47 2.087-7.53-4.582-11.926-11.614-.277-.448-.555-.897-.833-1.328-1.961-3.141-3.978-6.25-5.987-8.604-2.646-3.094-5.24-4.998-7.738-4.11 1.519-1.614 3.443-3.4 5.85-5.426 3.656-3.063 9.073-6.717 14.61-10.006Z" opacity=".392"/><path fill="#696969" d="M36.334 47.138c2.74-1.628 5.532-3.198 8.203-4.56 3.152-1.603 6.125-2.91 8.655-3.742-4.461 3.876-7.096 8.44-8.575 13.184-.157.493-.295.988-.433 1.483-1.333 4.986-1.504 10.063-1.31 14.766.441 9.698 2.512 17.736-.492 19.545-3.395 2.055-7.381-4.646-11.706-11.655-.278-.448-.557-.88-.834-1.328-1.944-3.123-3.926-6.211-5.937-8.547-2.63-3.057-5.21-4.907-7.71-3.983 1.499-1.579 3.405-3.348 5.772-5.323 3.599-3.012 8.923-6.619 14.367-9.84Z" opacity=".412"/><path fill="#6E6E6E" d="M36.166 47.235c2.722-1.61 5.476-3.165 8.129-4.529 3.115-1.586 6.069-2.877 8.565-3.747-4.421 3.825-7.035 8.336-8.512 13.044-.157.493-.294.97-.432 1.465-1.311 4.934-1.479 9.957-1.265 14.626.446 9.626 2.536 17.63-.393 19.407-3.321 2.005-7.234-4.709-11.506-11.714-.278-.45-.538-.879-.816-1.327-1.926-3.122-3.891-6.191-5.886-8.49-2.598-3.002-5.18-4.816-7.683-3.839 1.48-1.561 3.346-3.279 5.675-5.22 3.56-2.96 8.79-6.501 14.124-9.676Z" opacity=".431"/><path fill="#737373" d="M35.997 47.333c2.685-1.596 5.422-3.151 8.056-4.498 3.078-1.57 5.996-2.864 8.475-3.735-4.4 3.754-6.976 8.232-8.432 12.905-.156.476-.294.97-.413 1.449-1.29 4.863-1.456 9.868-1.237 14.465.468 9.557 2.56 17.523-.312 19.25-3.247 1.974-7.069-4.77-11.288-11.754-.26-.43-.538-.879-.799-1.308-1.891-3.101-3.858-6.153-5.836-8.433-2.582-2.964-5.15-4.723-7.655-3.71 1.46-1.528 3.307-3.229 5.58-5.137 3.485-2.894 8.62-6.368 13.861-9.494Z" opacity=".451"/><path fill="#787878" d="M35.829 47.448a145.42 145.42 0 0 1 7.981-4.466c3.042-1.555 5.924-2.85 8.402-3.721-4.36 3.702-6.915 8.127-8.35 12.748-.155.475-.293.952-.413 1.449-1.268 4.81-1.43 9.761-1.21 14.323.472 9.484 2.568 17.415-.231 19.111-3.173 1.925-6.92-4.85-11.088-11.796-.26-.43-.52-.877-.8-1.308-1.873-3.1-3.804-6.132-5.785-8.376-2.567-2.91-5.119-4.631-7.627-3.582 1.44-1.493 3.25-3.16 5.485-5.035 3.465-2.877 8.49-6.287 13.636-9.347Z" opacity=".471"/><path fill="#7D7D7D" d="M35.661 47.546c2.63-1.58 5.311-3.104 7.91-4.453 3.005-1.557 5.85-2.837 8.311-3.709-4.32 3.633-6.855 8.024-8.288 12.608-.155.476-.275.954-.412 1.43-1.246 4.759-1.388 9.657-1.165 14.183.494 9.414 2.593 17.291-.132 18.956-3.08 1.876-6.754-4.913-10.886-11.856-.261-.43-.52-.877-.782-1.306-1.856-3.081-3.771-6.095-5.735-8.32-2.534-2.871-5.089-4.54-7.599-3.455 1.42-1.475 3.21-3.108 5.406-4.931 3.388-2.792 8.319-6.135 13.372-9.147Z" opacity=".49"/><path fill="#828282" d="M35.493 47.643c2.611-1.564 5.256-3.09 7.835-4.421 2.97-1.542 5.796-2.822 8.221-3.697-4.298 3.58-6.812 7.918-8.207 12.47-.137.476-.274.936-.393 1.413-1.225 4.706-1.364 9.55-1.139 14.04.498 9.36 2.618 17.186-.051 18.818-3.006 1.845-6.607-4.976-10.669-11.897-.26-.43-.521-.859-.763-1.305-1.82-3.079-3.737-6.074-5.685-8.262-2.518-2.834-5.04-4.447-7.57-3.328 1.4-1.44 3.151-3.04 5.31-4.83 3.331-2.758 8.168-6.036 13.111-9.001Z" opacity=".51"/><path fill="#878787" d="M35.325 47.758c2.574-1.547 5.2-3.056 7.76-4.39 2.915-1.526 5.723-2.79 8.15-3.7-4.26 3.528-6.752 7.814-8.127 12.33-.136.459-.273.936-.391 1.396-1.204 4.653-1.34 9.444-1.112 13.898.502 9.288 2.624 17.078.048 18.662-2.931 1.795-6.442-5.038-10.469-11.938-.242-.429-.503-.858-.764-1.288-1.804-3.06-3.685-6.035-5.633-8.222-2.486-2.78-5.011-4.356-7.544-3.183 1.381-1.424 3.094-2.99 5.214-4.728 3.276-2.726 8.018-5.938 12.867-8.837Z" opacity=".529"/><path fill="#8C8C8C" d="M35.158 47.856c2.555-1.531 5.145-3.042 7.67-4.36 2.877-1.511 5.65-2.777 8.058-3.688-4.219 3.459-6.691 7.71-8.064 12.19-.136.459-.273.918-.39 1.378-1.184 4.6-1.316 9.356-1.068 13.757.525 9.218 2.649 16.972.128 18.523-2.857 1.764-6.293-5.1-10.267-11.998-.242-.428-.503-.857-.746-1.286-1.786-3.059-3.65-6.014-5.583-8.165-2.47-2.742-4.98-4.264-7.516-3.055 1.361-1.39 3.056-2.938 5.119-4.644 3.254-2.656 7.902-5.802 12.659-8.652Z" opacity=".549"/><path fill="#919191" d="M34.99 47.953c2.518-1.515 5.09-3.01 7.596-4.328 2.84-1.496 5.577-2.764 7.968-3.676-4.198 3.406-6.631 7.605-7.984 12.052-.136.458-.273.918-.39 1.36-1.161 4.547-1.273 9.25-1.04 13.614.53 9.147 2.673 16.866.21 18.366-2.783 1.716-6.146-5.162-10.05-12.037l-.728-1.285c-1.77-3.04-3.616-5.995-5.532-8.109-2.456-2.687-4.95-4.172-7.488-2.927 1.342-1.373 2.997-2.87 5.04-4.54 3.197-2.607 7.733-5.67 12.398-8.49Z" opacity=".569"/><path fill="#969696" d="M34.82 48.069c2.5-1.517 5.035-2.995 7.522-4.297 2.804-1.48 5.523-2.75 7.896-3.663-4.159 3.355-6.589 7.5-7.904 11.913-.135.441-.253.901-.371 1.361-1.14 4.495-1.249 9.144-.996 13.474.55 9.094 2.68 16.758.308 18.228-2.708 1.684-5.98-5.224-9.849-12.079-.243-.428-.485-.857-.73-1.267-1.733-3.038-3.582-5.957-5.482-8.052-2.422-2.65-4.92-4.08-7.46-2.8a66.38 66.38 0 0 1 4.945-4.439c3.108-2.629 7.55-5.625 12.121-8.38Z" opacity=".588"/><path fill="#9B9B9B" d="M34.653 48.166c2.464-1.5 4.979-2.963 7.45-4.283 2.766-1.465 5.45-2.736 7.806-3.669-4.137 3.285-6.529 7.397-7.84 11.755-.135.441-.254.901-.37 1.344-1.12 4.442-1.225 9.037-.97 13.331.555 9.023 2.706 16.634.39 18.072-2.634 1.634-5.833-5.287-9.63-12.137-.243-.429-.469-.838-.712-1.267-1.716-3.018-3.53-5.935-5.45-7.995-2.407-2.595-4.89-3.97-7.431-2.673 1.32-1.301 2.9-2.75 4.848-4.336 3.1-2.505 7.449-5.435 11.91-8.142Z" opacity=".608"/><path fill="#A0A0A0" d="M34.485 48.263c2.445-1.483 4.924-2.948 7.376-4.252 2.73-1.466 5.376-2.704 7.716-3.655-4.098 3.233-6.469 7.292-7.76 11.616-.135.441-.252.883-.37 1.325-1.097 4.372-1.2 8.932-.942 13.19.56 8.95 2.73 16.527.488 17.934-2.54 1.586-5.685-5.35-9.43-12.18-.224-.427-.468-.837-.711-1.266-1.7-3.017-3.497-5.897-5.4-7.938-2.392-2.558-4.86-3.879-7.403-2.544 1.3-1.286 2.86-2.7 4.752-4.236 3.062-2.47 7.317-5.334 11.684-7.994Z" opacity=".627"/><path fill="#A5A5A5" d="M34.317 48.379c2.407-1.468 4.868-2.916 7.301-4.22 2.695-1.451 5.304-2.692 7.644-3.643-4.058 3.164-6.408 7.188-7.697 11.476-.136.441-.252.866-.35 1.309-1.077 4.32-1.16 8.844-.897 13.03.581 8.88 2.737 16.42.57 17.778-2.468 1.554-5.52-5.412-9.23-12.221-.225-.427-.47-.838-.695-1.247-1.665-2.998-3.462-5.878-5.35-7.882-2.358-2.52-4.812-3.785-7.376-2.399a67.732 67.732 0 0 1 4.675-4.15c2.988-2.421 7.131-5.238 11.405-7.831Z" opacity=".647"/><path fill="#AAA" d="M34.13 48.475c2.39-1.451 4.814-2.9 7.21-4.19 2.658-1.435 5.249-2.677 7.553-3.63-4.036 3.11-6.365 7.083-7.617 11.338a16.93 16.93 0 0 0-.349 1.29c-1.054 4.267-1.134 8.738-.87 12.888.587 8.809 2.762 16.314.668 17.64-2.392 1.505-5.372-5.474-9.011-12.261-.226-.41-.451-.837-.677-1.246-1.647-2.997-3.41-5.838-5.299-7.825-2.344-2.464-4.782-3.694-7.349-2.271a65.165 65.165 0 0 1 4.58-4.048c2.949-2.388 6.999-5.139 11.161-7.685Z" opacity=".667"/><path fill="#AFAFAF" d="M33.964 48.573a147.74 147.74 0 0 1 7.136-4.16c2.62-1.419 5.176-2.662 7.462-3.617-3.997 3.06-6.305 6.979-7.536 11.199-.134.423-.233.848-.35 1.29-1.033 4.214-1.109 8.632-.825 12.748.608 8.755 2.787 16.206.75 17.483-2.319 1.473-5.207-5.537-8.81-12.32-.226-.41-.451-.838-.678-1.247-1.63-2.977-3.375-5.818-5.248-7.767-2.31-2.427-4.752-3.603-7.32-2.144a66.999 66.999 0 0 1 4.482-3.947c2.929-2.335 6.884-5.02 10.937-7.518Z" opacity=".686"/><path fill="#B4B4B4" d="M33.794 48.688c2.335-1.437 4.703-2.854 7.063-4.128 2.583-1.403 5.103-2.65 7.373-3.623-3.975 2.99-6.245 6.875-7.474 11.059l-.348 1.273c-1.012 4.161-1.085 8.525-.799 12.605.612 8.684 2.793 16.1.83 17.344-2.243 1.425-5.06-5.599-8.592-12.36a41.956 41.956 0 0 0-.66-1.228c-1.594-2.975-3.341-5.798-5.197-7.728-2.295-2.39-4.722-3.511-7.293-2.017a69.492 69.492 0 0 1 4.387-3.844c2.89-2.301 6.752-4.92 10.71-7.353Z" opacity=".706"/><path fill="#B9B9B9" d="M33.627 48.785c2.297-1.42 4.647-2.821 6.989-4.096 2.546-1.388 5.03-2.618 7.3-3.61C43.98 44.018 41.73 47.85 40.523 52c-.117.425-.232.831-.33 1.257-.99 4.108-1.042 8.42-.771 12.463.634 8.613 2.817 15.993.928 17.206-2.17 1.393-4.912-5.661-8.392-12.402-.208-.409-.434-.818-.642-1.227-1.578-2.955-3.29-5.758-5.147-7.67-2.28-2.335-4.692-3.42-7.265-1.89a62.28 62.28 0 0 1 4.309-3.74c2.799-2.272 6.549-4.826 10.414-7.21Z" opacity=".726"/><path fill="#BEBEBE" d="M33.459 48.883c2.278-1.405 4.61-2.806 6.916-4.083a93.422 93.422 0 0 1 7.21-3.597c-3.896 2.868-6.125 6.666-7.314 10.78-.115.407-.23.832-.328 1.239-.97 4.056-1.018 8.331-.727 12.322.639 8.542 2.843 15.87 1.01 17.05-2.094 1.344-4.746-5.723-8.19-12.462-.209-.409-.417-.817-.643-1.227-1.56-2.954-3.255-5.738-5.096-7.614-2.247-2.296-4.662-3.327-7.238-1.743a70.028 70.028 0 0 1 4.213-3.657c2.758-2.184 6.414-4.671 10.187-7.008Z" opacity=".745"/><path fill="#C3C3C3" d="M33.29 48.999a176.394 176.394 0 0 1 6.842-4.052 94.68 94.68 0 0 1 7.12-3.585c-3.875 2.815-6.083 6.561-7.25 10.623-.115.407-.23.813-.327 1.22-.948 4.004-.994 8.226-.7 12.18.643 8.47 2.867 15.763 1.108 16.912-2.003 1.314-4.599-5.786-7.973-12.502l-.624-1.225c-1.525-2.935-3.222-5.7-5.046-7.557-2.232-2.242-4.614-3.234-7.21-1.616a66.89 66.89 0 0 1 4.117-3.555c2.72-2.15 6.264-4.573 9.943-6.843Z" opacity=".765"/><path fill="#C8C8C8" d="M33.123 49.096c2.223-1.39 4.5-2.759 6.769-4.02 2.436-1.36 4.829-2.577 7.045-3.572-3.835 2.764-6.02 6.458-7.168 10.485-.115.406-.212.814-.31 1.22-.926 3.952-.969 8.12-.673 12.039.664 8.417 2.874 15.655 1.19 16.755-1.928 1.264-4.451-5.849-7.773-12.544-.208-.408-.416-.817-.607-1.206-1.507-2.933-3.169-5.679-4.996-7.5-2.198-2.203-4.583-3.142-7.182-1.488a69.97 69.97 0 0 1 4.022-3.453c2.646-2.137 6.114-4.475 9.683-6.716Z" opacity=".784"/><path fill="#CDCDCD" d="M32.955 49.193a169.977 169.977 0 0 1 6.677-3.99c2.4-1.343 4.756-2.563 6.957-3.577-3.813 2.694-5.962 6.354-7.089 10.346-.114.388-.21.796-.308 1.203-.906 3.899-.927 8.014-.629 11.897.669 8.346 2.9 15.549 1.288 16.618-1.853 1.215-4.285-5.91-7.553-12.603-.19-.407-.4-.797-.608-1.206-1.49-2.914-3.135-5.64-4.945-7.442-2.183-2.167-4.553-3.051-7.154-1.361a67.987 67.987 0 0 1 3.943-3.35c2.57-2.052 5.945-4.341 9.421-6.535Z" opacity=".804"/><path fill="#D2D2D2" d="M32.786 49.309c2.167-1.358 4.389-2.712 6.603-3.959 2.363-1.327 4.7-2.53 6.866-3.565-3.774 2.643-5.9 6.25-7.026 10.206-.114.389-.21.796-.307 1.185-.883 3.828-.902 7.908-.602 11.755.691 8.276 2.924 15.443 1.37 16.46-1.78 1.185-4.138-5.972-7.353-12.642-.19-.408-.4-.798-.59-1.206-1.454-2.912-3.1-5.62-4.895-7.385-2.15-2.111-4.523-2.96-7.126-1.233a64.178 64.178 0 0 1 3.847-3.249c2.568-2.016 5.83-4.24 9.213-6.367Z" opacity=".824"/><path fill="#D7D7D7" d="M32.619 49.406a169.555 169.555 0 0 1 6.53-3.927 114.155 114.155 0 0 1 6.793-3.551c-3.735 2.59-5.859 6.143-6.946 10.067-.114.388-.21.778-.305 1.167-.863 3.775-.88 7.819-.557 11.596.696 8.204 2.93 15.335 1.45 16.322-1.704 1.134-3.99-6.036-7.153-12.685a23.89 23.89 0 0 0-.59-1.187c-1.438-2.894-3.049-5.6-4.845-7.33-2.135-2.073-4.493-2.866-7.098-1.105a75.658 75.658 0 0 1 3.752-3.164c2.51-1.966 5.68-4.124 8.969-6.203Z" opacity=".843"/><path fill="#DCDCDC" d="M32.45 49.504c2.112-1.325 4.278-2.665 6.456-3.896 2.29-1.296 4.555-2.504 6.703-3.54-3.712 2.52-5.798 6.04-6.865 9.929-.114.388-.209.76-.287 1.15-.84 3.724-.854 7.713-.53 11.454.7 8.133 2.956 15.211 1.55 16.167-1.63 1.103-3.843-6.099-6.934-12.743-.19-.408-.382-.797-.573-1.187-1.42-2.892-3.014-5.561-4.794-7.271-2.12-2.038-4.462-2.776-7.071-.96a71.462 71.462 0 0 1 3.656-3.063c2.436-1.916 5.493-4.01 8.69-6.04Z" opacity=".863"/><path fill="#E1E1E1" d="M32.282 49.62a168.037 168.037 0 0 1 6.383-3.883c2.253-1.28 4.483-2.49 6.613-3.545-3.673 2.469-5.737 5.936-6.802 9.789-.113.37-.19.76-.287 1.15-.82 3.67-.83 7.606-.502 11.312.72 8.08 2.98 15.104 1.63 16.027-1.556 1.054-3.696-6.162-6.734-12.785-.192-.39-.364-.795-.556-1.185-1.402-2.873-2.98-5.541-4.742-7.233-2.087-1.98-4.415-2.664-7.043-.832a78.44 78.44 0 0 1 3.578-2.96c2.414-1.863 5.377-3.89 8.462-5.856Z" opacity=".882"/><path fill="#E6E6E6" d="M32.114 49.717a165.355 165.355 0 0 1 6.309-3.852c2.215-1.264 4.428-2.475 6.54-3.53-3.65 2.398-5.677 5.831-6.72 9.631-.095.372-.19.743-.286 1.133-.799 3.617-.788 7.501-.458 11.17.726 8.008 2.987 14.997 1.73 15.872-1.465 1.024-3.53-6.223-6.534-12.827a23.266 23.266 0 0 0-.557-1.167c-1.366-2.87-2.928-5.502-4.692-7.175-2.07-1.944-4.385-2.572-7.015-.705a64.542 64.542 0 0 1 3.482-2.858c2.34-1.814 5.209-3.775 8.201-5.692Z" opacity=".902"/><path fill="#EBEBEB" d="M31.947 49.814a186.183 186.183 0 0 1 6.217-3.82 139.361 139.361 0 0 1 6.45-3.52c-3.612 2.347-5.617 5.728-6.64 9.494-.095.371-.19.742-.267 1.115-.778 3.565-.763 7.395-.431 11.029.747 7.937 3.011 14.89 1.81 15.733-1.39.974-3.383-6.286-6.316-12.867-.174-.388-.347-.777-.539-1.166-1.35-2.852-2.893-5.482-4.642-7.119-2.038-1.888-4.354-2.48-6.987-.577a80.789 80.789 0 0 1 3.386-2.756c2.3-1.763 5.059-3.677 7.959-5.546Z" opacity=".922"/><path fill="#F0F0F0" d="M31.778 49.93c1.983-1.28 4.056-2.571 6.144-3.79 2.142-1.251 4.28-2.43 6.359-3.506-3.572 2.295-5.575 5.622-6.578 9.352-.095.372-.188.726-.265 1.098-.757 3.512-.74 7.306-.387 10.887.752 7.867 3.036 14.785 1.891 15.577-1.315.943-3.217-6.347-6.114-12.926l-.52-1.165c-1.333-2.85-2.842-5.46-4.593-7.062-2.022-1.85-4.324-2.389-6.958-.449a89.905 89.905 0 0 1 3.29-2.672 133.633 133.633 0 0 1 7.73-5.345Z" opacity=".941"/><path fill="#F5F5F5" d="M31.61 50.027c1.966-1.28 4.002-2.538 6.07-3.758a136.362 136.362 0 0 1 6.288-3.493c-3.55 2.224-5.515 5.518-6.498 9.214-.094.354-.188.725-.264 1.08-.735 3.46-.716 7.2-.36 10.745.757 7.794 3.042 14.677 1.99 15.439-1.241.894-3.07-6.41-5.897-12.967l-.52-1.165c-1.298-2.83-2.808-5.422-4.542-7.004-1.989-1.813-4.294-2.298-6.932-.304a85.2 85.2 0 0 1 3.213-2.569c2.17-1.681 4.74-3.463 7.453-5.218Z" opacity=".961"/><path fill="#FAFAFA" d="M31.442 50.124a142.519 142.519 0 0 1 5.996-3.727c2.07-1.22 4.154-2.402 6.198-3.498-3.511 2.173-5.454 5.414-6.435 9.074-.094.354-.17.709-.246 1.082-.714 3.407-.673 7.094-.334 10.602.778 7.742 3.067 14.57 2.072 15.282-1.166.845-2.922-6.472-5.697-13.007-.173-.389-.329-.776-.504-1.147-1.28-2.83-2.772-5.402-4.49-6.947-1.974-1.776-4.264-2.206-6.904-.176a79.414 79.414 0 0 1 3.116-2.468c2.15-1.646 4.608-3.363 7.229-5.07Z" opacity=".98"/><path fill="#fff" d="M21.271 57.475c2.725-2.24 6.203-4.756 10.004-7.254 1.91-1.247 3.89-2.49 5.923-3.712a165.198 165.198 0 0 1 6.107-3.486c-3.472 2.121-5.393 5.31-6.354 8.934-.961 3.626-.943 7.69-.533 11.508.782 7.67 3.093 14.447 2.17 15.144-1.093.814-2.757-6.534-5.495-13.067-1.36-3.266-2.986-6.315-4.945-8.036-1.96-1.704-4.235-2.096-6.877-.031Z" opacity=".2"/></g></g></g></g></g></g><path fill="#000" d="M83 73.08v20.078h38.719V132H209V93.159h63V53H83v20.08Zm38.587-.264-.196 19.091H83.984l-.197-18.301c-.065-10.073 0-18.631.197-19.092.197-.658 4.529-.856 19.032-.856h18.703l-.132 19.158Zm149.297.132.132 18.894H123.031V53.658l73.828.132 73.894.197.131 18.96Zm-63.197 39.302v19.092h-84.656V93.158h84.656v19.092Z"/><path fill="#000" d="M96.585 66.035c-2.232 2.502-.985 7.11 3.609 13.233l2.69 3.555 1.838-2.239c2.691-3.226 5.841-9.414 5.841-11.389 0-.922-.591-2.304-1.313-3.028-1.378-1.383-4.856-1.778-5.578-.659-.263.461-.788.461-1.641 0-1.903-.987-4.265-.79-5.447.527Zm5.315 1.58c.591.593.984.593 1.575 0 1.116-1.12 4.397-.987 4.922.263.591 1.58-.853 5.662-3.15 8.756-2.363 3.292-2.888 3.094-5.906-2.238-1.772-3.094-2.428-6.189-1.444-7.11.722-.724 3.15-.527 4.003.329ZM139.766 64.323c-2.1 1.185-2.297 1.844-2.297 9.151 0 7.834.656 9.151 4.528 9.151 3.478 0 4.659-.987 4.659-3.95 0-2.172-.197-2.633-1.312-2.633-1.05 0-1.313.46-1.313 1.975 0 2.304-1.444 3.226-2.953 1.975-.853-.659-.984-2.173-.853-7.176.197-6.254.197-6.32 1.837-6.32 1.313 0 1.707.395 1.969 1.909.197 1.185.788 1.975 1.51 2.107.918.131 1.115-.33 1.115-2.37 0-3.885-3.478-5.794-6.89-3.819ZM153.219 64.39c-1.575.79-1.641 1.052-1.838 8.294-.197 8.69.328 9.941 4.528 9.941 4.069 0 4.529-.987 4.529-9.546 0-6.978-.066-7.57-1.444-8.492-1.772-1.251-3.544-1.317-5.775-.198Zm4.265 9.018v6.913h-1.64c-1.641 0-1.641-.066-1.838-6.189-.197-7.241 0-8.163 1.969-7.834 1.444.198 1.509.461 1.509 7.11ZM233.281 63.994c-2.165.79-2.625 2.37-2.625 9.414 0 8.032.591 9.217 4.791 9.217 2.953 0 4.397-1.448 4.397-4.345 0-1.778-.263-2.238-1.247-2.238-.985 0-1.378.526-1.51 2.106-.131 1.844-.459 2.173-1.837 2.173h-1.641V66.496h1.641c1.312 0 1.706.395 1.969 1.909.197 1.185.787 1.975 1.509 2.107.919.131 1.116-.33 1.116-2.37 0-3.621-2.888-5.464-6.563-4.148ZM165.031 73.408c0 8.756.066 9.217 1.313 9.217 1.247 0 1.312-.46 1.312-5.925 0-3.292.197-5.925.525-5.925.263 0 .985 1.317 1.641 2.962.722 1.646 1.444 2.963 1.706 2.963.263 0 1.181-1.383 2.1-3.16l1.575-3.094.197 6.056c.131 5.596.262 6.123 1.444 6.123 1.247 0 1.312-.527 1.312-9.217 0-8.821-.065-9.216-1.312-9.216-.985 0-1.838 1.053-3.085 3.62-.984 1.975-1.968 3.621-2.165 3.621-.197 0-1.182-1.646-2.166-3.62-1.247-2.568-2.1-3.621-3.084-3.621-1.247 0-1.313.395-1.313 9.216ZM183.275 73.408l.197 9.217h3.937c3.413 0 3.872-.132 3.872-1.317 0-1.119-.459-1.316-2.625-1.316h-2.625v-2.963c0-2.962 0-2.962 2.297-2.962 1.575 0 2.297-.33 2.297-.988 0-.658-.722-.987-2.297-.987-2.297 0-2.297 0-2.297-2.963v-2.962h2.625c1.903 0 2.625-.264 2.625-.988 0-.79-.919-.987-4.069-.987h-4.134l.197 9.216ZM202.438 73.408v9.217h3.609c2.756 0 3.937-.33 4.922-1.317 1.64-1.646 1.772-5.661.197-7.373-.853-.922-.919-1.383-.328-1.975 1.115-1.12.984-5.53-.263-6.715-.656-.724-2.231-1.053-4.594-1.053h-3.543v9.216Zm6.431-4.476c.197 1.909-.066 2.501-1.116 2.83-1.969.593-2.69-.131-2.69-2.567 0-2.567.459-3.16 2.296-2.897.985.132 1.379.79 1.51 2.634Zm0 5.925c1.181 1.185.984 4.345-.328 5.003-2.428 1.185-3.15.593-3.347-2.7-.197-2.896-.066-3.093 1.312-3.093.853 0 1.903.329 2.363.79ZM217.925 72.552c-1.05 4.675-2.034 8.822-2.231 9.217-.132.527.262.856 1.115.856 1.05 0 1.51-.527 1.838-2.04.328-1.844.59-1.976 2.69-1.778 1.904.131 2.429.526 2.757 1.843.393 1.777 2.625 2.7 2.625 1.12 0-.922-2.822-13.3-3.675-16.46-.197-.592-.985-1.118-1.772-1.118-1.313 0-1.641.79-3.347 8.36Zm4.528.659c.459 2.765.394 2.83-1.312 2.83-1.247 0-1.707-.263-1.444-.921.197-.527.59-2.04.853-3.358.525-2.896 1.247-2.304 1.903 1.449ZM244.438 73.408c0 8.69.065 9.217 1.246 9.217 1.116 0 1.313-.527 1.51-3.423.131-1.844.525-3.49.919-3.621.328-.132 1.312 1.382 2.165 3.423 1.05 2.568 1.838 3.621 2.756 3.621 1.707 0 1.575-.658-1.05-5.925l-2.296-4.608 1.509-2.436c3.15-5.004 3.281-5.464 1.772-5.464-.919 0-2.035 1.119-3.478 3.423l-2.1 3.49-.197-3.49c-.197-2.897-.394-3.423-1.51-3.423-1.181 0-1.246.526-1.246 9.216ZM141.209 103.56c-1.05 1.58-4.331 17.577-3.806 18.104.919.922 1.903 0 2.363-2.172.393-1.646.722-1.975 2.362-1.975 1.575 0 2.166.395 2.822 2.106.984 2.239 3.084 3.16 2.953 1.317 0-.658-.984-4.806-2.1-9.348-1.575-6.057-2.362-8.295-3.215-8.427-.591-.132-1.247.066-1.379.395Zm2.429 9.48c.459 2.37.328 2.502-1.247 2.502-.919 0-1.641-.132-1.641-.33 0-.131.328-1.843.722-3.752.853-3.753 1.247-3.423 2.166 1.58ZM152.563 103.297c0 .197-.066 4.476-.066 9.414v9.085h3.806c3.085 0 3.806-.198 4.003-1.185.197-.922-.262-1.119-2.428-1.119h-2.625l-.197-8.032c-.197-7.11-.328-8.097-1.312-8.295-.656-.132-1.181-.066-1.181.132ZM164.506 112.382c.197 8.229.328 9.282 1.378 9.48.985.131 1.116-.659 1.116-9.349 0-9.085-.066-9.48-1.313-9.48-1.312 0-1.312.329-1.181 9.349ZM171.922 105.535c.197 1.514 1.247 5.727 2.166 9.48 1.443 5.53 1.968 6.781 3.018 6.781.985 0 1.575-1.448 3.413-8.888 2.625-10.599 2.559-9.875.984-9.875-1.05 0-1.509 1.119-2.756 6.584-.788 3.621-1.575 6.451-1.772 6.32-.131-.198-.919-3.094-1.706-6.452-1.116-4.74-1.706-6.188-2.625-6.32-1.05-.198-1.116.066-.722 2.37ZM186.95 103.889c-.131.461-.197 4.674-.131 9.414l.197 8.493h3.937c3.216 0 3.938-.198 4.134-1.185.197-.922-.262-1.119-2.428-1.119h-2.69v-2.963c0-2.831.065-2.962 1.968-2.962 1.51 0 1.969-.264 1.969-1.317s-.459-1.317-1.969-1.317c-1.837 0-1.968-.131-1.968-2.633v-2.633h2.625c2.165 0 2.625-.198 2.625-1.317 0-1.185-.46-1.317-3.938-1.317-2.69 0-4.069.264-4.331.856Z"/><rect width="86" height="24" x="186" y="21" fill="#FFD839" rx="8"/><path fill="#000" d="M199.311 30.19c-.473 0-.899.081-1.278.245-.375.16-.695.395-.961.704a3.184 3.184 0 0 0-.603 1.107 4.726 4.726 0 0 0-.211 1.465c0 .719.111 1.344.334 1.875.226.527.562.936 1.008 1.224.449.29 1.009.434 1.681.434.383 0 .742-.031 1.078-.094.34-.066.67-.148.991-.246v.867a5.07 5.07 0 0 1-.985.258 7.394 7.394 0 0 1-1.224.088c-.871 0-1.6-.18-2.186-.539a3.372 3.372 0 0 1-1.312-1.535c-.289-.66-.434-1.44-.434-2.338 0-.648.09-1.24.27-1.775.183-.54.449-1.004.796-1.395a3.54 3.54 0 0 1 1.289-.902c.512-.215 1.098-.322 1.758-.322.434 0 .852.043 1.254.128.403.086.766.21 1.09.37l-.398.843a5.977 5.977 0 0 0-.903-.322 3.78 3.78 0 0 0-1.054-.14Zm4.722-1.307v2.724c0 .157-.004.315-.012.475a4.17 4.17 0 0 1-.041.434h.065c.133-.227.301-.416.504-.569.207-.156.441-.273.703-.351.262-.082.539-.123.832-.123.516 0 .945.082 1.289.246.348.164.607.418.779.761.176.344.264.79.264 1.336V38h-.961v-4.12c0-.534-.123-.935-.369-1.2-.242-.266-.615-.399-1.119-.399-.477 0-.858.092-1.143.276a1.51 1.51 0 0 0-.609.796c-.121.352-.182.782-.182 1.29V38h-.972v-9.117h.972Zm8.789 2.59c.766 0 1.334.172 1.705.515.371.344.557.893.557 1.647V38h-.709l-.187-.95h-.047c-.18.235-.368.432-.563.593a2.088 2.088 0 0 1-.68.357 3.22 3.22 0 0 1-.937.117c-.391 0-.738-.068-1.043-.205a1.624 1.624 0 0 1-.715-.621c-.172-.277-.258-.629-.258-1.055 0-.64.254-1.133.762-1.476.508-.344 1.281-.532 2.32-.563l1.108-.047v-.392c0-.555-.119-.944-.358-1.166-.238-.223-.574-.334-1.007-.334-.336 0-.657.049-.961.146a6.608 6.608 0 0 0-.868.346l-.298-.738a5.35 5.35 0 0 1 .996-.381 4.347 4.347 0 0 1 1.183-.158Zm1.301 3.363-.978.041c-.801.031-1.366.162-1.694.392-.328.231-.492.557-.492.979 0 .367.111.639.334.815.223.175.518.263.885.263.57 0 1.037-.158 1.4-.474.363-.317.545-.791.545-1.424v-.592Zm5.883-3.375c.129 0 .264.008.404.023.141.012.266.03.375.053l-.123.903a3.036 3.036 0 0 0-.715-.088c-.258 0-.502.052-.732.158-.227.101-.426.25-.598.445a2.076 2.076 0 0 0-.404.697c-.098.27-.147.57-.147.903V38h-.978v-6.422h.808l.106 1.184h.041a3.17 3.17 0 0 1 .48-.65c.188-.2.405-.358.651-.475.25-.117.527-.176.832-.176Zm2.965.117V38h-.973v-6.422h.973Zm-.475-2.402a.58.58 0 0 1 .41.158c.117.102.176.262.176.48 0 .215-.059.375-.176.48a.58.58 0 0 1-.41.16.597.597 0 0 1-.422-.16c-.109-.105-.164-.265-.164-.48 0-.218.055-.378.164-.48a.597.597 0 0 1 .422-.158Zm4.611 8.144a3.068 3.068 0 0 0 .903-.14v.755c-.114.051-.272.094-.475.13a3.367 3.367 0 0 1-.586.052c-.34 0-.648-.058-.926-.176a1.435 1.435 0 0 1-.668-.609c-.164-.285-.246-.68-.246-1.184V32.34h-.914v-.475l.92-.38.387-1.395h.586v1.488h1.881v.762h-1.881v3.78c0 .402.092.702.275.902.188.199.436.298.744.298Zm1.19-5.742h1.043l1.418 3.727a25.118 25.118 0 0 1 .416 1.207c.055.183.097.361.129.533h.041a33.9 33.9 0 0 1 .562-1.746l1.342-3.72h1.049l-2.795 7.364a4.836 4.836 0 0 1-.522 1.032 2.055 2.055 0 0 1-.714.673c-.282.16-.621.24-1.02.24-.184 0-.346-.011-.486-.035a3.03 3.03 0 0 1-.364-.07v-.78a3.401 3.401 0 0 0 .698.077c.242 0 .451-.047.627-.14a1.29 1.29 0 0 0 .463-.399c.128-.176.24-.385.334-.627l.351-.902-2.572-6.434Zm13.002.762h-1.6V38h-.972v-5.66h-1.137v-.469l1.137-.322v-.428c0-.539.08-.976.24-1.312.16-.34.392-.59.697-.75.305-.16.676-.24 1.113-.24.246 0 .471.02.674.064.207.043.389.092.545.146l-.252.768a4.392 4.392 0 0 0-.451-.117 2.166 2.166 0 0 0-.504-.059c-.371 0-.646.121-.826.363-.176.239-.264.614-.264 1.125v.47h1.6v.76Zm6.486-.762V38h-.797l-.14-.902h-.053a1.87 1.87 0 0 1-.516.562 2.236 2.236 0 0 1-.715.34 2.91 2.91 0 0 1-.837.117c-.508 0-.934-.082-1.278-.246a1.655 1.655 0 0 1-.779-.762c-.172-.343-.258-.785-.258-1.324v-4.207h.984v4.137c0 .535.122.935.364 1.201.242.262.611.393 1.107.393.477 0 .856-.09 1.137-.27a1.5 1.5 0 0 0 .615-.791c.125-.351.188-.781.188-1.289v-3.38h.978Zm5.098-.117c.762 0 1.338.187 1.728.562.391.371.586.97.586 1.793V38h-.961v-4.12c0-.534-.123-.935-.369-1.2-.242-.266-.615-.399-1.119-.399-.711 0-1.211.201-1.5.604-.289.402-.434.986-.434 1.752V38h-.972v-6.422h.785l.146.926h.053c.137-.227.311-.416.522-.568a2.27 2.27 0 0 1 .709-.352c.261-.082.537-.123.826-.123Zm6.603 6.656c-.812 0-1.457-.277-1.933-.832-.473-.554-.709-1.379-.709-2.472 0-1.106.242-1.94.726-2.503.485-.566 1.129-.85 1.934-.85.34 0 .637.046.891.136a2.212 2.212 0 0 1 1.119.873h.07a9.715 9.715 0 0 1-.07-1.014v-2.572h.972V38h-.785l-.146-.914h-.041a2.242 2.242 0 0 1-1.125.896 2.71 2.71 0 0 1-.903.135Zm.153-.808c.687 0 1.173-.196 1.459-.586.285-.391.427-.971.427-1.74v-.176c0-.817-.136-1.444-.41-1.881-.269-.438-.761-.657-1.476-.657-.598 0-1.045.231-1.342.692-.297.457-.445 1.082-.445 1.875 0 .789.146 1.398.439 1.828.297.43.746.645 1.348.645Z"/></g><defs><linearGradient id="d" x1="53.749" x2="61.84" y1="100.308" y2="94.455" gradientUnits="userSpaceOnUse"><stop stop-color="#fff"/><stop offset=".044" stop-color="#D6D6D6"/><stop offset=".099" stop-color="#AAA"/><stop offset=".161" stop-color="#818181"/><stop offset=".226" stop-color="#5E5E5E"/><stop offset=".298" stop-color="#414141"/><stop offset=".376" stop-color="#292929"/><stop offset=".465" stop-color="#171717"/><stop offset=".57" stop-color="#0A0A0A"/><stop offset=".708" stop-color="#020202"/><stop offset="1"/></linearGradient><linearGradient id="e" x1="99.503" x2="102.248" y1="74.731" y2="69.822" gradientUnits="userSpaceOnUse"><stop offset=".042" stop-color="#fff"/><stop offset=".049" stop-color="#F6F6F6"/><stop offset=".088" stop-color="#C8C8C8"/><stop offset=".132" stop-color="#9D9D9D"/><stop offset=".178" stop-color="#777"/><stop offset=".229" stop-color="#575757"/><stop offset=".285" stop-color="#3B3B3B"/><stop offset=".349" stop-color="#252525"/><stop offset=".423" stop-color="#141414"/><stop offset=".515" stop-color="#090909"/><stop offset=".643" stop-color="#020202"/><stop offset="1"/></linearGradient><linearGradient id="f" x1="154.843" x2="104.759" y1="16.966" y2="46.013" gradientUnits="userSpaceOnUse"><stop stop-color="#fff"/><stop offset=".103" stop-color="#CFCFCF"/><stop offset=".235" stop-color="#999"/><stop offset=".368" stop-color="#6A6A6A"/><stop offset=".5" stop-color="#444"/><stop offset=".63" stop-color="#262626"/><stop offset=".758" stop-color="#111"/><stop offset=".882" stop-color="#040404"/><stop offset="1"/></linearGradient><linearGradient id="h" x1="66.273" x2="19.278" y1="77.767" y2="77.566" gradientUnits="userSpaceOnUse"><stop stop-color="#fff"/><stop offset=".044" stop-color="#D5D5D5"/><stop offset=".099" stop-color="#A9A9A9"/><stop offset=".16" stop-color="#818181"/><stop offset=".225" stop-color="#5E5E5E"/><stop offset=".295" stop-color="#404040"/><stop offset=".373" stop-color="#292929"/><stop offset=".461" stop-color="#161616"/><stop offset=".566" stop-color="#0A0A0A"/><stop offset=".703" stop-color="#020202"/><stop offset="1"/></linearGradient><linearGradient id="j" x1="66.272" x2="19.277" y1="77.767" y2="77.566" gradientUnits="userSpaceOnUse"><stop stop-color="#fff"/><stop offset=".044" stop-color="#D5D5D5"/><stop offset=".099" stop-color="#A9A9A9"/><stop offset=".16" stop-color="#818181"/><stop offset=".225" stop-color="#5E5E5E"/><stop offset=".295" stop-color="#404040"/><stop offset=".373" stop-color="#292929"/><stop offset=".461" stop-color="#161616"/><stop offset=".566" stop-color="#0A0A0A"/><stop offset=".703" stop-color="#020202"/><stop offset="1"/></linearGradient><clipPath id="a"><rect width="282" height="132" fill="#fff"/></clipPath><clipPath id="b"><rect width="156.197" height="139.479" fill="#fff" transform="translate(-.043 -8)"/></clipPath></defs></svg>
